<svg width="40" height="40" viewBox="0 0 40 40" fill="none" xmlns="http://www.w3.org/2000/svg">
<path fill-rule="evenodd" clip-rule="evenodd" d="M20.7661 1.875C23.9139 1.87497 26.4322 1.87494 28.4088 2.12651C30.4469 2.3859 32.154 2.93763 33.517 4.22788C34.893 5.53055 35.4937 7.18325 35.7738 9.15565C36.0421 11.0447 36.042 13.4441 36.042 16.409V19.1196C36.042 20.0628 36.042 20.5344 35.797 20.6796C35.5521 20.8249 35.0956 20.5753 34.1825 20.0762C32.8787 19.3635 31.3827 18.9583 29.792 18.9583C24.7294 18.9583 20.6253 23.0624 20.6253 28.125V33.9582C20.6253 34.9868 20.8583 35.961 21.2743 36.8309L21.2744 36.8311L21.2747 36.8317C21.3313 36.9499 21.3595 37.0091 21.3662 37.0261C21.4998 37.3675 21.3027 37.6803 20.937 37.707C20.9188 37.7083 20.8679 37.7083 20.7661 37.7083H18.8179C15.6701 37.7084 13.1518 37.7084 11.1752 37.4568C9.13713 37.1974 7.43 36.6457 6.06703 35.3554C4.69094 34.0528 4.09032 32.4001 3.81019 30.4277C3.5419 28.5386 3.54194 26.1392 3.54199 23.1744V16.4089C3.54194 13.4441 3.5419 11.0447 3.81019 9.15565C4.09032 7.18325 4.69094 5.53055 6.06703 4.22788C7.43 2.93763 9.13714 2.3859 11.1752 2.12651C13.1518 1.87494 15.6701 1.87497 18.8179 1.875H20.7661ZM13.1253 9.79167C12.2049 9.79167 11.4587 10.5379 11.4587 11.4583C11.4587 12.3788 12.2049 13.125 13.1253 13.125H26.4587C27.3791 13.125 28.1253 12.3788 28.1253 11.4583C28.1253 10.5379 27.3791 9.79167 26.4587 9.79167H13.1253ZM11.4587 19.7917C11.4587 18.8712 12.2049 18.125 13.1253 18.125H18.1253C19.0458 18.125 19.792 18.8712 19.792 19.7917C19.792 20.7121 19.0458 21.4583 18.1253 21.4583H13.1253C12.2049 21.4583 11.4587 20.7121 11.4587 19.7917ZM33.1253 28.125C33.1253 26.284 31.6329 24.7917 29.792 24.7917C27.951 24.7917 26.4587 26.2841 26.4587 28.125V33.9582C26.4587 34.4184 26.8318 34.7915 27.292 34.7915C27.7522 34.7915 28.1253 34.4184 28.1253 33.9582V29.7917C28.1253 28.8712 28.8715 28.125 29.792 28.125C30.7125 28.125 31.4587 28.8712 31.4587 29.7917V33.9582C31.4587 36.2593 29.5932 38.1248 27.292 38.1248C24.9908 38.1248 23.1253 36.2593 23.1253 33.9582V28.125C23.1253 24.4431 26.1101 21.4583 29.792 21.4583C33.4739 21.4583 36.4587 24.4431 36.4587 28.125V34.2033C36.4587 35.1237 35.7125 35.8699 34.792 35.8699C33.8715 35.8699 33.1253 35.1237 33.1253 34.2033L33.1253 28.125Z" fill="#FFCC33"/>
</svg>
