<svg width="18" height="12" viewBox="0 0 18 12" fill="none" xmlns="http://www.w3.org/2000/svg">
<path fill-rule="evenodd" clip-rule="evenodd" d="M12.6906 0.233828C12.3977 -0.0590641 11.9228 -0.0590623 11.6299 0.233832C11.3371 0.526727 11.3371 1.0016 11.63 1.29449L15.3496 5.0141H1.16406C0.749849 5.0141 0.414062 5.34988 0.414062 5.7641C0.414062 6.17831 0.749849 6.5141 1.16406 6.5141H15.3497L11.63 10.2338C11.3371 10.5267 11.3371 11.0016 11.63 11.2945C11.9229 11.5874 12.3978 11.5874 12.6907 11.2945L17.6478 6.33729C17.8106 6.19971 17.9141 5.99398 17.9141 5.7641C17.9141 5.53406 17.8105 5.32821 17.6474 5.19063L12.6906 0.233828Z" fill="#002244"/>
</svg>
