<svg width="286" height="160" viewBox="0 0 286 160" fill="none" xmlns="http://www.w3.org/2000/svg">
<path d="M0.666667 5.5C0.666667 8.44552 3.05448 10.8333 6 10.8333C8.94552 10.8333 11.3333 8.44552 11.3333 5.5C11.3333 2.55448 8.94552 0.166667 6 0.166667C3.05448 0.166667 0.666667 2.55448 0.666667 5.5ZM280 159.5L285.773 149.5H274.227L280 159.5ZM6 6.5H8.01613V4.5H6V6.5ZM12.0484 6.5H16.0806V4.5H12.0484V6.5ZM20.1129 6.5H24.1452V4.5H20.1129V6.5ZM28.1774 6.5H32.2097V4.5H28.1774V6.5ZM36.2419 6.5H40.2742V4.5H36.2419V6.5ZM44.3064 6.5H48.3387V4.5H44.3064V6.5ZM52.371 6.5H56.4032V4.5H52.371V6.5ZM60.4355 6.5H64.4677V4.5H60.4355V6.5ZM68.5 6.5H72.5322V4.5H68.5V6.5ZM76.5645 6.5H80.5968V4.5H76.5645V6.5ZM84.629 6.5H88.6613V4.5H84.629V6.5ZM92.6935 6.5H96.7258V4.5H92.6935V6.5ZM100.758 6.5H104.79V4.5H100.758V6.5ZM108.823 6.5H112.855V4.5H108.823V6.5ZM116.887 6.5H120.919V4.5H116.887V6.5ZM124.952 6.5H128.984V4.5H124.952V6.5ZM133.016 6.5H137.048V4.5H133.016V6.5ZM141.081 6.5H145.113V4.5H141.081V6.5ZM149.145 6.5H153.177V4.5H149.145V6.5ZM157.21 6.5H161.242V4.5H157.21V6.5ZM165.274 6.5H169.306V4.5H165.274V6.5ZM173.339 6.5H177.371V4.5H173.339V6.5ZM181.403 6.5H185.435V4.5H181.403V6.5ZM189.468 6.5H193.5V4.5H189.468V6.5ZM197.532 6.5H201.564V4.5H197.532V6.5ZM205.597 6.5H209.629V4.5H205.597V6.5ZM213.661 6.5H217.694V4.5H213.661V6.5ZM221.726 6.5H225.758V4.5H221.726V6.5ZM229.79 6.5H233.823V4.5H229.79V6.5ZM237.855 6.5H241.887V4.5H237.855V6.5ZM245.919 6.5H249.952V4.5H245.919V6.5ZM253.984 6.5H256V4.5H253.984V6.5ZM256 6.5C256.608 6.5 257.211 6.52361 257.807 6.56992L257.962 4.57593C257.315 4.52561 256.66 4.5 256 4.5V6.5ZM261.372 7.13061C262.554 7.41338 263.701 7.78741 264.804 8.24486L265.57 6.39741C264.37 5.89989 263.123 5.49306 261.838 5.1855L261.372 7.13061ZM268.018 9.88569C269.047 10.5177 270.023 11.2286 270.937 12.0099L272.237 10.4897C271.244 9.64086 270.183 8.86837 269.065 8.18139L268.018 9.88569ZM273.49 14.5629C274.271 15.4768 274.982 16.4526 275.614 17.4819L277.319 16.4353C276.632 15.3166 275.859 14.2562 275.01 13.2633L273.49 14.5629ZM277.255 20.6961C277.713 21.7993 278.087 22.9457 278.369 24.1276L280.314 23.6622C280.007 22.3767 279.6 21.1298 279.103 19.93L277.255 20.6961ZM278.93 27.6926C278.976 28.2888 279 28.8915 279 29.5H281C281 28.8398 280.974 28.1854 280.924 27.5377L278.93 27.6926ZM279 29.5V31.5312H281V29.5H279ZM279 35.5938V39.6562H281V35.5938H279ZM279 43.7188V47.7812H281V43.7188H279ZM279 51.8438V55.9062H281V51.8438H279ZM279 59.9688V64.0312H281V59.9688H279ZM279 68.0938V72.1562H281V68.0938H279ZM279 76.2188V80.2812H281V76.2188H279ZM279 84.3438V88.4062H281V84.3438H279ZM279 92.4688V96.5312H281V92.4688H279ZM279 100.594V104.656H281V100.594H279ZM279 108.719V112.781H281V108.719H279ZM279 116.844V120.906H281V116.844H279ZM279 124.969V129.031H281V124.969H279ZM279 133.094V137.156H281V133.094H279ZM279 141.219V145.281H281V141.219H279ZM279 149.344V153.406H281V149.344H279Z" fill="#002244"/>
</svg>
