<svg width="52" height="52" viewBox="0 0 52 52" fill="none" xmlns="http://www.w3.org/2000/svg">
<path d="M26 0C20.8577 0 15.8309 1.52487 11.5552 4.38179C7.27951 7.23871 3.94702 11.2994 1.97914 16.0502C0.0112654 20.8011 -0.503621 26.0288 0.499594 31.0723C1.50281 36.1159 3.97907 40.7486 7.61523 44.3848C11.2514 48.0209 15.8842 50.4972 20.9277 51.5004C25.9712 52.5036 31.1989 51.9887 35.9498 50.0209C40.7007 48.053 44.7613 44.7205 47.6182 40.4448C50.4751 36.1691 52 31.1423 52 26C51.9927 19.1066 49.2511 12.4976 44.3767 7.62326C39.5024 2.74889 32.8934 0.00727955 26 0ZM36 30C36 30.5304 35.7893 31.0391 35.4142 31.4142C35.0392 31.7893 34.5304 32 34 32C33.4696 32 32.9609 31.7893 32.5858 31.4142C32.2107 31.0391 32 30.5304 32 30V22.8275L19.415 35.415C19.2292 35.6008 19.0086 35.7482 18.7658 35.8488C18.523 35.9493 18.2628 36.0011 18 36.0011C17.7372 36.0011 17.477 35.9493 17.2342 35.8488C16.9914 35.7482 16.7708 35.6008 16.585 35.415C16.3992 35.2292 16.2518 35.0086 16.1512 34.7658C16.0507 34.523 15.9989 34.2628 15.9989 34C15.9989 33.7372 16.0507 33.477 16.1512 33.2342C16.2518 32.9914 16.3992 32.7708 16.585 32.585L29.1725 20H22C21.4696 20 20.9609 19.7893 20.5858 19.4142C20.2107 19.0391 20 18.5304 20 18C20 17.4696 20.2107 16.9609 20.5858 16.5858C20.9609 16.2107 21.4696 16 22 16H34C34.5304 16 35.0392 16.2107 35.4142 16.5858C35.7893 16.9609 36 17.4696 36 18V30Z" fill="white"/>
</svg>
