<svg width="48" height="48" viewBox="0 0 48 48" fill="none" xmlns="http://www.w3.org/2000/svg">
<path fill-rule="evenodd" clip-rule="evenodd" d="M12.0098 4.5H11.8743C10.1062 4.5 8.57518 4.4998 7.34766 4.67123C6.02328 4.8562 4.76148 5.27421 3.74609 6.32898C2.74099 7.37308 2.35248 8.65239 2.1792 9.99123C2.01617 11.2509 2.01615 12.8276 2.01624 14.6748L2.01636 14.8035C2.01636 15.311 2.01183 15.7986 2.00757 16.2628C1.99654 17.4649 1.98693 18.5103 2.06018 19.3396C2.17416 20.63 2.50928 21.8313 3.52564 22.8871C4.29168 23.6828 5.55788 23.7069 6.35364 22.9409C7.14942 22.1748 7.17339 20.9087 6.40735 20.113C6.25309 19.9527 6.11316 19.7629 6.04468 18.9877C5.98948 18.3627 5.99637 17.617 6.00635 16.5417C6.01099 16.0409 6.01636 15.4685 6.01636 14.8035C6.01636 12.7919 6.02028 11.4769 6.14612 10.5046C6.2655 9.5823 6.46229 9.27501 6.62781 9.10307C6.78305 8.94183 7.04852 8.75184 7.90088 8.63278C8.81882 8.50458 10.067 8.5 12.0098 8.5H35.9902C37.9328 8.5 39.181 8.50458 40.099 8.6328C40.9514 8.75184 41.2167 8.94184 41.3719 9.1031C41.5375 9.27502 41.7344 9.5823 41.8538 10.5046C41.9796 11.4769 41.9836 12.7919 41.9836 14.8035C41.9836 15.4647 41.9888 16.0343 41.9934 16.5331C42.0032 17.6122 42.01 18.3609 41.9546 18.987C41.8858 19.7621 41.7458 19.9523 41.5912 20.113C40.825 20.9087 40.8492 22.1748 41.645 22.9409C42.4406 23.7069 43.7068 23.6828 44.4728 22.8871C45.4888 21.8317 45.8246 20.6308 45.939 19.3403C46.0126 18.5091 46.0032 17.4615 45.9922 16.2565C45.988 15.7942 45.9836 15.3088 45.9836 14.8035V14.6748C45.9836 12.8277 45.9838 11.2509 45.8206 9.99123C45.6474 8.65239 45.259 7.37308 44.2538 6.32898C43.2384 5.27422 41.9766 4.8562 40.6522 4.67123C39.4248 4.4998 37.8936 4.5 36.1256 4.5H12.0098ZM28.3954 12.5L29.0328 12.5004C30.2775 12.5026 31.3436 12.5183 32.2286 12.6281C33.3234 12.7639 34.3204 13.0612 35.1824 13.7829C36.0444 14.5046 36.5124 15.4339 36.8386 16.4878C37.1462 17.4817 37.371 18.7406 37.6384 20.2385L38.979 27.7452L39.118 28.5249C39.6181 31.3353 40.0045 33.6226 40.0696 35.4658C40.143 37.5432 39.8236 39.3352 38.585 40.8146C37.3462 42.2942 35.6382 42.9236 33.5804 43.2164C31.9204 43.4527 29.8524 43.4921 27.3455 43.4987H20.6559C18.1489 43.4921 16.081 43.4527 14.421 43.2164C12.3631 42.9236 10.6551 42.2942 9.41638 40.8146C8.17766 39.3352 7.85842 37.5432 7.93176 35.4658C8.00274 33.455 8.45628 30.9156 9.02246 27.7454L10.3629 20.2387L10.4752 19.6114C10.6962 18.3863 10.899 17.3397 11.1627 16.4878C11.4889 15.4339 11.957 14.5046 12.819 13.7829C13.681 13.0612 14.678 12.7639 15.7728 12.6281C16.8053 12.5 18.0842 12.5 19.6058 12.5H28.3954ZM24 32C22.8954 32 22 32.8914 22 33.991C22 35.1086 22.8954 36 24 36C25.1046 36 26 35.1086 26 34.009C26 32.8914 25.1046 32 24 32ZM24 18C21.2386 18 19 20.2386 19 23C19 25.7614 21.2386 28 24 28C26.7614 28 29 25.7614 29 23C29 20.2386 26.7614 18 24 18Z" fill="#233FA0"/>
</svg>
