<svg width="25" height="24" viewBox="0 0 25 24" fill="none" xmlns="http://www.w3.org/2000/svg">
<path fill-rule="evenodd" clip-rule="evenodd" d="M13.9885 1.30548C14.528 1.3663 15.0371 1.50081 15.5002 1.83044C15.9604 2.15801 16.2447 2.58569 16.469 3.06183C16.6792 3.50827 16.8701 4.07401 17.0931 4.73474L17.1151 4.7998C17.4991 4.8217 17.8543 4.85304 18.1821 4.89795C19.3034 5.05157 20.2158 5.37629 20.9347 6.10883C22.0266 7.22151 22.2045 8.80829 22.2495 10.9837V12.2548C21.0892 11.3133 19.6102 10.7491 17.9995 10.7491C14.2716 10.7491 11.2495 13.7712 11.2495 17.4991C11.2495 19.1098 11.8137 20.5887 12.7552 21.7491H10.0477C8.30362 21.7491 6.91692 21.7491 5.8305 21.6003C4.70919 21.4467 3.79683 21.122 3.07796 20.3895C2.36101 19.6589 2.04499 18.735 1.89513 17.5991C1.77374 16.679 1.75351 15.546 1.75014 14.1639L1.75 12.502C1.75292 11.0665 1.77187 9.83349 1.89513 8.89911C2.04499 7.76327 2.36101 6.8394 3.07796 6.10883C3.79683 5.37629 4.70919 5.05157 5.8305 4.89795C6.15436 4.85358 6.5049 4.82246 6.88363 4.8006L6.90585 4.73474C7.12881 4.074 7.31973 3.50827 7.53001 3.06183C7.75428 2.58569 8.0386 2.15801 8.49876 1.83044C8.96182 1.50081 9.47102 1.3663 10.0104 1.30548C10.3857 1.26321 10.922 1.25264 11.4629 1.25H12.536C13.0769 1.25264 13.6132 1.26321 13.9885 1.30548ZM12.4895 3.06787H11.5095C10.9662 3.06989 10.5264 3.07808 10.2349 3.11096C9.88661 3.15023 9.74104 3.21594 9.64166 3.28668C9.53938 3.35949 9.42437 3.48203 9.27179 3.80597C9.17616 4.00901 9.04812 4.35404 8.90923 4.75092L9.27661 4.74963H14.7265C14.8495 4.74988 14.9706 4.75029 15.0897 4.75085C14.9508 4.354 14.8228 4.009 14.7272 3.80597C14.5746 3.48203 14.4596 3.35949 14.3573 3.28668C14.2579 3.21594 14.1124 3.15023 13.7641 3.11096C13.4726 3.07808 13.0328 3.06989 12.4895 3.06787ZM17.9995 12.2491C20.899 12.2491 23.2495 14.5996 23.2495 17.4991C23.2495 20.3986 20.899 22.7491 17.9995 22.7491C15.1 22.7491 12.7495 20.3986 12.7495 17.4991C12.7495 14.5996 15.1 12.2491 17.9995 12.2491ZM17.9995 14.9484C17.5853 14.9484 17.2495 15.2842 17.2495 15.6984V17.9484C17.2495 18.1992 17.3748 18.4333 17.5835 18.5724L18.9335 19.4725C19.2781 19.7022 19.7438 19.609 19.9735 19.2643C20.2033 18.9197 20.1102 18.4541 19.7655 18.2244L18.7495 17.5469V15.6984C18.7495 15.2842 18.4137 14.9484 17.9995 14.9484Z" fill="#FFCC33"/>
</svg>
