<svg width="22" height="20" viewBox="0 0 22 20" fill="none" xmlns="http://www.w3.org/2000/svg">
<path fill-rule="evenodd" clip-rule="evenodd" d="M6.06551 5.96421C6.0655 5.05997 6.0655 4.33069 6.11859 3.7424C6.17332 3.13605 6.28913 2.60625 6.56581 2.125C6.89357 1.55493 7.36498 1.08154 7.93266 0.752408C8.4119 0.474558 8.93948 0.358261 9.54329 0.303306C10.1291 0.249989 10.8553 0.249994 11.7557 0.25H11.7557H11.7558H11.7558H15.0829H15.0829H15.083H15.083C16.4448 0.249982 17.5425 0.249968 18.4058 0.366526C19.3022 0.487543 20.0569 0.746436 20.6563 1.34835C21.2556 1.95027 21.5135 2.70814 21.634 3.60825C21.75 4.47522 21.75 5.57754 21.75 6.94513V13.0549C21.75 14.4225 21.75 15.5248 21.634 16.3918C21.5135 17.2919 21.2556 18.0497 20.6563 18.6517C20.0569 19.2536 19.3022 19.5125 18.4058 19.6335C17.5425 19.75 16.4448 19.75 15.0829 19.75H5.25C5.75896 19.1416 6.06551 18.3568 6.06551 17.5V5.96421ZM18.5 6.75L9.50003 6.75037C9.08582 6.75038 8.75002 6.41461 8.75 6.0004C8.74998 5.58618 9.08576 5.25038 9.49997 5.25037L18.5 5.25C18.9142 5.24998 19.25 5.58576 19.25 5.99997C19.25 6.41418 18.9142 6.74998 18.5 6.75ZM8.75 10C8.75 9.58579 9.08579 9.25 9.5 9.25H12C12.4142 9.25 12.75 9.58579 12.75 10C12.75 10.4142 12.4142 10.75 12 10.75H9.5C9.08579 10.75 8.75 10.4142 8.75 10ZM15.25 10C15.25 9.58579 15.5858 9.25 16 9.25H18.5C18.9142 9.25 19.25 9.58579 19.25 10C19.25 10.4142 18.9142 10.75 18.5 10.75H16C15.5858 10.75 15.25 10.4142 15.25 10ZM8.75 14C8.75 13.5858 9.08579 13.25 9.5 13.25H12C12.4142 13.25 12.75 13.5858 12.75 14C12.75 14.4142 12.4142 14.75 12 14.75H9.5C9.08579 14.75 8.75 14.4142 8.75 14ZM15.25 14C15.25 13.5858 15.5858 13.25 16 13.25H18.5C18.9142 13.25 19.25 13.5858 19.25 14C19.25 14.4142 18.9142 14.75 18.5 14.75H16C15.5858 14.75 15.25 14.4142 15.25 14ZM4.75 17.5V5.25H3.97475H3.97474C3.53028 5.24999 3.15925 5.24999 2.85464 5.27077C2.53754 5.29241 2.23801 5.33905 1.94762 5.45933C1.27379 5.73844 0.738441 6.27379 0.459332 6.94762C0.339049 7.23801 0.292406 7.53754 0.270771 7.85464C0.249988 8.15924 0.249993 8.53027 0.25 8.97472V8.97474V8.97475V17.5C0.25 18.7426 1.25736 19.75 2.5 19.75C3.74264 19.75 4.75 18.7426 4.75 17.5Z" fill="#FFCC33"/>
</svg>
