<svg width="23" height="20" viewBox="0 0 23 20" fill="none" xmlns="http://www.w3.org/2000/svg">
<path fill-rule="evenodd" clip-rule="evenodd" d="M5.50488 0.25H5.43713C4.5531 0.25 3.78759 0.249898 3.17383 0.335617C2.51164 0.428099 1.88074 0.637107 1.37305 1.16449C0.870495 1.68654 0.67624 2.32619 0.5896 2.99561C0.508083 3.62545 0.508075 4.41382 0.508118 5.33738L0.508179 5.40177C0.508179 5.65552 0.505916 5.89931 0.503785 6.13142C0.498269 6.73244 0.493464 7.25515 0.530091 7.66981C0.587082 8.31499 0.75464 8.91564 1.26282 9.44353C1.64584 9.84142 2.27894 9.85346 2.67682 9.47044C3.07471 9.08741 3.08669 8.45436 2.70367 8.05648C2.62654 7.97636 2.55658 7.88147 2.52234 7.49383C2.49474 7.18135 2.49818 6.80852 2.50317 6.27087C2.50549 6.02045 2.50818 5.73426 2.50818 5.40177C2.50818 4.39595 2.51014 3.73847 2.57306 3.25232C2.63275 2.79115 2.73114 2.63751 2.8139 2.55154C2.89152 2.47092 3.02426 2.37592 3.45044 2.31639C3.90941 2.25229 4.5335 2.25 5.50488 2.25H17.4951C18.4664 2.25 19.0905 2.25229 19.5495 2.3164C19.9757 2.37592 20.1084 2.47092 20.186 2.55155C20.2688 2.63751 20.3672 2.79115 20.4269 3.25232C20.4898 3.73847 20.4918 4.39595 20.4918 5.40177C20.4918 5.73233 20.4944 6.01713 20.4967 6.26653C20.5016 6.80612 20.505 7.18046 20.4773 7.4935C20.4429 7.88104 20.3729 7.97616 20.2956 8.05648C19.9125 8.45436 19.9246 9.08741 20.3225 9.47044C20.7203 9.85346 21.3534 9.84142 21.7364 9.44353C22.2444 8.91584 22.4123 8.31542 22.4695 7.67014C22.5063 7.25455 22.5016 6.73073 22.4961 6.12825C22.494 5.89711 22.4918 5.65439 22.4918 5.40177V5.33739C22.4918 4.41387 22.4919 3.62543 22.4103 2.99561C22.3237 2.32619 22.1295 1.68654 21.6269 1.16449C21.1192 0.637108 20.4883 0.428099 19.8261 0.335617C19.2124 0.249898 18.4468 0.25 17.5628 0.25H5.50488ZM13.6977 4.25L14.0164 4.25018C14.6388 4.2513 15.1718 4.25915 15.6143 4.31403C16.1617 4.38197 16.6602 4.5306 17.0912 4.89146C17.5222 5.25232 17.7562 5.71697 17.9193 6.24389C18.0731 6.74083 18.1855 7.37029 18.3192 8.11927L18.9895 11.8726L19.059 12.2625C19.3091 13.6677 19.5022 14.8113 19.5348 15.7329C19.5715 16.7716 19.4118 17.6676 18.7925 18.4073C18.1731 19.1471 17.3191 19.4618 16.2902 19.6082C15.4602 19.7264 14.4262 19.7461 13.1727 19.7493H9.82794C8.57445 19.7461 7.54048 19.7264 6.71051 19.6082C5.68155 19.4618 4.82755 19.1471 4.20819 18.4073C3.58883 17.6676 3.42921 16.7716 3.46588 15.7329C3.50137 14.7275 3.72814 13.4578 4.01123 11.8727L4.68146 8.11934L4.73761 7.80568C4.8481 7.19317 4.94951 6.66985 5.08136 6.24389C5.24446 5.71697 5.47848 5.25232 5.90949 4.89146C6.3405 4.5306 6.83901 4.38197 7.38641 4.31403C7.90265 4.25 8.54209 4.25 9.30292 4.25H13.6977ZM11.5 14C10.9477 14 10.5 14.4457 10.5 14.9955C10.5 15.5543 10.9477 16 11.5 16C12.0523 16 12.5 15.5543 12.5 15.0045C12.5 14.4457 12.0523 14 11.5 14ZM11.5 7C10.1193 7 9 8.11929 9 9.5C9 10.8807 10.1193 12 11.5 12C12.8807 12 14 10.8807 14 9.5C14 8.11929 12.8807 7 11.5 7Z" fill="#FFCC33"/>
</svg>
