<svg width="21" height="22" viewBox="0 0 21 22" fill="none" xmlns="http://www.w3.org/2000/svg">
<path fill-rule="evenodd" clip-rule="evenodd" d="M10.6764 0.500003H10.325C9.6797 0.499945 9.10078 0.499893 8.62087 0.563816C8.09012 0.634509 7.58326 0.793273 7.12922 1.17507C6.68832 1.54582 6.42513 2.02008 6.22062 2.53295C6.03683 2.99388 5.86881 3.57206 5.67498 4.25H3.14804C1.69902 4.25 0.838921 5.32293 0.481822 6.40879C0.12757 7.486 0.167906 8.81185 0.683413 9.79214C2.5701 13.3799 6.75164 14.75 10.5 14.75C14.2484 14.75 18.43 13.3799 20.3167 9.79214C20.8322 8.81185 20.8725 7.486 20.5183 6.40879C20.1612 5.32292 19.3011 4.25 17.852 4.25H15.3264C15.1326 3.57206 14.9646 2.99388 14.7808 2.53295C14.5763 2.02008 14.3131 1.54582 13.8722 1.17507C13.4182 0.793273 12.9113 0.634509 12.3805 0.563816C11.9006 0.499893 11.3217 0.499945 10.6764 0.500003ZM13.2444 4.25C13.1233 3.83888 13.0237 3.52618 12.923 3.27373C12.7766 2.90647 12.6679 2.7755 12.585 2.70581C12.5153 2.64718 12.4124 2.58572 12.1165 2.54631C11.7842 2.50205 11.3402 2.50001 10.6177 2.50001H10.3837C9.66125 2.50001 9.21717 2.50205 8.88493 2.54631C8.58901 2.58572 8.48613 2.64718 8.4164 2.70581C8.33352 2.7755 8.22482 2.90647 8.07838 3.27373C7.97771 3.52618 7.87814 3.83888 7.75703 4.25H13.2444ZM10.4957 9C9.94584 9 9.50012 9.44772 9.50012 10C9.50012 10.5523 9.94584 11 10.4957 11H10.5046C11.0544 11 11.5001 10.5523 11.5001 10C11.5001 9.44772 11.0544 9 10.5046 9H10.4957ZM0.899279 13.1517C0.888662 12.9276 0.883353 12.8156 0.944674 12.7874C1.006 12.7592 1.08901 12.8376 1.25505 12.9943C3.78359 15.3809 7.40525 16.2534 10.5007 16.2534C13.5964 16.2534 17.2183 15.3808 19.7469 12.9938C19.9129 12.8371 19.9959 12.7587 20.0572 12.7869C20.1186 12.8151 20.1133 12.9271 20.1026 13.1513L20.0945 13.3231C20.0147 14.9955 19.9511 16.3289 19.7555 17.3723C19.553 18.4525 19.1925 19.3243 18.4469 20.0028C17.7061 20.6769 16.7896 20.9742 15.6645 21.1157C14.5684 21.2534 13.1731 21.2534 11.409 21.2534H11.409H11.409H9.59289H9.59286H9.59282C7.82878 21.2534 6.43351 21.2534 5.33743 21.1157C4.21232 20.9742 3.29575 20.6769 2.55499 20.0028C1.80941 19.3243 1.44889 18.4525 1.24641 17.3723C1.05082 16.3289 0.9872 14.9955 0.907396 13.323L0.899279 13.1517Z" fill="#FFCC33"/>
</svg>
