<svg width="26" height="27" viewBox="0 0 26 27" fill="none" xmlns="http://www.w3.org/2000/svg">
<path fill-rule="evenodd" clip-rule="evenodd" d="M16.5615 7.60242C16.2492 7.29008 15.7428 7.29008 15.4305 7.60242C15.1181 7.91476 15.1181 8.42117 15.4305 8.73351L19.3971 12.7002H4.26562C3.8239 12.7002 3.46582 13.0582 3.46582 13.5C3.46582 13.9417 3.8239 14.2998 4.26562 14.2998H19.3971L15.4305 18.2664C15.1182 18.5787 15.1182 19.0852 15.4305 19.3975C15.7428 19.7098 16.2492 19.7098 16.5616 19.3975L21.8887 14.0703C21.9059 14.0534 21.9223 14.0357 21.938 14.0173C21.988 13.9584 22.0282 13.894 22.0584 13.8262C22.103 13.7266 22.1278 13.6162 22.1278 13.5C22.1278 13.4975 22.1278 13.495 22.1278 13.4925C22.1269 13.3972 22.1091 13.302 22.0743 13.2119C22.0354 13.1107 21.9751 13.0159 21.8935 12.9344L16.5615 7.60242Z" fill="#002244"/>
</svg>
