<svg width="27" height="27" viewBox="0 0 27 27" fill="none" xmlns="http://www.w3.org/2000/svg">
<path fill-rule="evenodd" clip-rule="evenodd" d="M17.4209 7.59851C17.1086 7.28617 16.6022 7.28617 16.2898 7.59852C15.9775 7.91086 15.9775 8.41726 16.2898 8.7296L20.2565 12.6962H5.12499C4.68328 12.6962 4.3252 13.0543 4.3252 13.496C4.3252 13.9378 4.68328 14.2958 5.12499 14.2958H20.2565L16.2899 18.2625C15.9775 18.5748 15.9775 19.0812 16.2899 19.3936C16.6022 19.7059 17.1086 19.7059 17.421 19.3936L22.7481 14.0664C22.7653 14.0495 22.7817 14.0318 22.7974 14.0134C22.8474 13.9545 22.8876 13.8901 22.9178 13.8223C22.9624 13.7227 22.9872 13.6123 22.9872 13.496C22.9872 13.4936 22.9872 13.4911 22.9871 13.4886C22.9863 13.3933 22.9685 13.2981 22.9337 13.208C22.8947 13.1068 22.8345 13.012 22.7529 12.9305L17.4209 7.59851Z" fill="#FFCC33"/>
</svg>
