<svg width="40" height="40" viewBox="0 0 40 40" fill="none" xmlns="http://www.w3.org/2000/svg">
<path opacity="0.4" d="M35.8327 21.5834V18.4167C35.8327 11.6992 35.8327 8.34048 33.5139 6.25361C31.1952 4.16675 27.4633 4.16675 19.9993 4.16675C12.5354 4.16675 8.80349 4.16675 6.48475 6.25361C4.16602 8.34048 4.16602 11.6992 4.16602 18.4167V21.5834C4.16602 28.3009 4.16602 31.6597 6.48475 33.7465C8.80349 35.8334 12.5354 35.8334 19.9993 35.8334C27.4633 35.8334 31.1952 35.8334 33.5139 33.7465C35.8327 31.6597 35.8327 28.3009 35.8327 21.5834Z" fill="#141B34"/>
<path fill-rule="evenodd" clip-rule="evenodd" d="M20.086 2.91675H19.9127C16.2541 2.91673 13.3933 2.91672 11.1625 3.18666C8.89037 3.46158 7.08189 4.03449 5.64855 5.32449C4.19635 6.63147 3.53396 8.30946 3.21958 10.414C2.91596 12.4465 2.91598 15.0423 2.91602 18.313V21.6871C2.91598 24.9578 2.91596 27.5537 3.21958 29.5862C3.53396 31.6907 4.19635 33.3687 5.64855 34.6757C7.08189 35.9657 8.89037 36.5386 11.1625 36.8135C13.3933 37.0834 16.2541 37.0834 19.9127 37.0834H20.086C23.7446 37.0834 26.6054 37.0834 28.8362 36.8135C31.1083 36.5386 32.9168 35.9657 34.3502 34.6757C35.8023 33.3687 36.4647 31.6907 36.7791 29.5862C37.0827 27.5537 37.0827 24.9579 37.0827 21.6872V18.313C37.0827 15.0423 37.0827 12.4465 36.7791 10.414C36.4647 8.30946 35.8023 6.63147 34.3502 5.32449C32.9168 4.03449 31.1083 3.46158 28.8362 3.18666C26.6054 2.91672 23.7446 2.91673 20.086 2.91675ZM7.32096 7.18273C8.20636 6.38587 9.42322 5.91534 11.4628 5.66855C13.526 5.41891 16.2355 5.41675 19.9994 5.41675C23.7632 5.41675 26.4728 5.41891 28.5359 5.66855C30.5755 5.91534 31.7923 6.38587 32.6777 7.18273C33.5443 7.96262 34.0413 9.00743 34.3066 10.7834C34.5794 12.6099 34.5827 15.0188 34.5827 18.4167V21.5834C34.5827 24.9813 34.5794 27.3902 34.3066 29.2168C34.0413 30.9927 33.5443 32.0375 32.6777 32.8174C31.7923 33.6143 30.5755 34.0848 28.5359 34.3316C26.4728 34.5813 23.7632 34.5834 19.9994 34.5834C16.2355 34.5834 13.526 34.5813 11.4628 34.3316C9.42322 34.0848 8.20636 33.6143 7.32096 32.8174C6.45442 32.0375 5.95744 30.9927 5.69214 29.2168C5.41928 27.3902 5.41602 24.9813 5.41602 21.5834V18.4167C5.41602 15.0188 5.41928 12.6099 5.69214 10.7834C5.95744 9.00743 6.45442 7.96262 7.32096 7.18273ZM27.916 10.0001C27.916 9.30973 27.3564 8.75008 26.666 8.75008C25.9757 8.75008 25.416 9.30973 25.416 10.0001V12.0834H23.3327C22.6423 12.0834 22.0827 12.6431 22.0827 13.3334C22.0827 14.0238 22.6423 14.5834 23.3327 14.5834H25.416V16.6667C25.416 17.3571 25.9757 17.9167 26.666 17.9167C27.3564 17.9167 27.916 17.3571 27.916 16.6667V14.5834H29.9993C30.6897 14.5834 31.2493 14.0238 31.2493 13.3334C31.2493 12.6431 30.6897 12.0834 29.9993 12.0834H27.916V10.0001ZM22.0827 29.1667C22.0827 28.4764 22.6423 27.9167 23.3327 27.9167H29.9993C30.6897 27.9167 31.2493 28.4764 31.2493 29.1667C31.2493 29.8571 30.6897 30.4167 29.9993 30.4167H23.3327C22.6423 30.4167 22.0827 29.8571 22.0827 29.1667ZM23.3327 22.9167C22.6423 22.9167 22.0827 23.4764 22.0827 24.1667C22.0827 24.8571 22.6423 25.4167 23.3327 25.4167H29.9993C30.6897 25.4167 31.2493 24.8571 31.2493 24.1667C31.2493 23.4764 30.6897 22.9167 29.9993 22.9167H23.3327ZM17.5499 22.4495C18.0381 22.9377 18.0381 23.7291 17.5499 24.2173L15.5171 26.2501L17.5499 28.2829C18.0381 28.771 18.0381 29.5625 17.5499 30.0506C17.0617 30.5388 16.2703 30.5388 15.7821 30.0506L13.7493 28.0178L11.7166 30.0506C11.2284 30.5388 10.437 30.5388 9.9488 30.0506C9.46064 29.5625 9.46064 28.771 9.9488 28.2829L11.9816 26.2501L9.9488 24.2173C9.46064 23.7291 9.46064 22.9377 9.9488 22.4495C10.437 21.9614 11.2284 21.9614 11.7166 22.4495L13.7493 24.4823L15.7821 22.4495C16.2703 21.9614 17.0617 21.9614 17.5499 22.4495ZM9.99935 12.0834C9.30899 12.0834 8.74935 12.6431 8.74935 13.3334C8.74935 14.0238 9.30899 14.5834 9.99935 14.5834H16.666C17.3564 14.5834 17.916 14.0238 17.916 13.3334C17.916 12.6431 17.3564 12.0834 16.666 12.0834H9.99935Z" fill="white"/>
</svg>
