<svg width="48" height="48" viewBox="0 0 48 48" fill="none" xmlns="http://www.w3.org/2000/svg">
<path d="M36 4C37.5913 4 39.1174 4.63214 40.2426 5.75736C41.3679 6.88258 42 8.4087 42 10V38C42 39.5913 41.3679 41.1174 40.2426 42.2426C39.1174 43.3679 37.5913 44 36 44H12C10.4087 44 8.88258 43.3679 7.75736 42.2426C6.63214 41.1174 6 39.5913 6 38V10C6 8.4087 6.63214 6.88258 7.75736 5.75736C8.88258 4.63214 10.4087 4 12 4H36ZM16 34C15.4696 34 14.9609 34.2107 14.5858 34.5858C14.2107 34.9609 14 35.4696 14 36L14.014 36.254C14.0742 36.7602 14.3254 37.2243 14.7163 37.5515C15.1072 37.8787 15.6083 38.0442 16.1172 38.0143C16.6261 37.9845 17.1044 37.7614 17.4543 37.3907C17.8042 37.0201 17.9994 36.5298 18 36.02L17.986 35.766C17.9287 35.2795 17.6948 34.8309 17.3287 34.5054C16.9627 34.1799 16.4899 34.0001 16 34ZM24 34C23.4696 34 22.9609 34.2107 22.5858 34.5858C22.2107 34.9609 22 35.4696 22 36L22.014 36.254C22.0742 36.7602 22.3254 37.2243 22.7163 37.5515C23.1072 37.8787 23.6083 38.0442 24.1172 38.0143C24.6261 37.9845 25.1044 37.7614 25.4543 37.3907C25.8042 37.0201 25.9994 36.5298 26 36.02L25.986 35.766C25.9287 35.2795 25.6948 34.8309 25.3287 34.5054C24.9627 34.1799 24.4899 34.0001 24 34ZM32 34C31.4696 34 30.9609 34.2107 30.5858 34.5858C30.2107 34.9609 30 35.4696 30 36L30.014 36.254C30.0742 36.7602 30.3254 37.2243 30.7163 37.5515C31.1072 37.8787 31.6083 38.0442 32.1172 38.0143C32.6261 37.9845 33.1044 37.7614 33.4543 37.3907C33.8042 37.0201 33.9994 36.5298 34 36.02L33.986 35.766C33.9287 35.2795 33.6948 34.8309 33.3287 34.5054C32.9627 34.1799 32.4899 34.0001 32 34ZM16 26C15.4696 26 14.9609 26.2107 14.5858 26.5858C14.2107 26.9609 14 27.4696 14 28L14.014 28.254C14.0742 28.7602 14.3254 29.2243 14.7163 29.5515C15.1072 29.8787 15.6083 30.0442 16.1172 30.0143C16.6261 29.9845 17.1044 29.7614 17.4543 29.3907C17.8042 29.0201 17.9994 28.5298 18 28.02L17.986 27.766C17.9287 27.2795 17.6948 26.8309 17.3287 26.5054C16.9627 26.1799 16.4899 26.0001 16 26ZM24 26C23.4696 26 22.9609 26.2107 22.5858 26.5858C22.2107 26.9609 22 27.4696 22 28L22.014 28.254C22.0742 28.7602 22.3254 29.2243 22.7163 29.5515C23.1072 29.8787 23.6083 30.0442 24.1172 30.0143C24.6261 29.9845 25.1044 29.7614 25.4543 29.3907C25.8042 29.0201 25.9994 28.5298 26 28.02L25.986 27.766C25.9287 27.2795 25.6948 26.8309 25.3287 26.5054C24.9627 26.1799 24.4899 26.0001 24 26ZM32 26C31.4696 26 30.9609 26.2107 30.5858 26.5858C30.2107 26.9609 30 27.4696 30 28L30.014 28.254C30.0742 28.7602 30.3254 29.2243 30.7163 29.5515C31.1072 29.8787 31.6083 30.0442 32.1172 30.0143C32.6261 29.9845 33.1044 29.7614 33.4543 29.3907C33.8042 29.0201 33.9994 28.5298 34 28.02L33.986 27.766C33.9287 27.2795 33.6948 26.8309 33.3287 26.5054C32.9627 26.1799 32.4899 26.0001 32 26ZM30 12H18C16.9391 12 15.9217 12.4214 15.1716 13.1716C14.4214 13.9217 14 14.9391 14 16V18C14 19.0609 14.4214 20.0783 15.1716 20.8284C15.9217 21.5786 16.9391 22 18 22H30C31.0609 22 32.0783 21.5786 32.8284 20.8284C33.5786 20.0783 34 19.0609 34 18V16C34 14.9391 33.5786 13.9217 32.8284 13.1716C32.0783 12.4214 31.0609 12 30 12Z" fill="#F04438"/>
</svg>
