<svg width="40" height="40" viewBox="0 0 40 40" fill="none" xmlns="http://www.w3.org/2000/svg">
<rect width="40" height="40" rx="6" fill="#FFFAEB"/>
<path fill-rule="evenodd" clip-rule="evenodd" d="M22.0558 12.25C23.6584 12.25 24.9373 12.25 25.9404 12.3848C26.9767 12.5242 27.8301 12.8197 28.5052 13.4948C29.1803 14.1699 29.4758 15.0233 29.6152 16.0596C29.6236 16.122 29.6314 16.1855 29.6388 16.25H18.5C18.2234 16.25 17.9693 16.4022 17.8387 16.6461C17.7082 16.89 17.7225 17.1859 17.876 17.416L18.876 18.916C19.0151 19.1247 19.2492 19.25 19.5 19.25H29.7496C29.75 19.4715 29.75 19.6999 29.75 19.9352V22.0557C29.75 23.6583 29.75 24.9373 29.6152 25.9404C29.4758 26.9767 29.1803 27.8301 28.5052 28.5052C27.8301 29.1803 26.9767 29.4758 25.9404 29.6152C24.9373 29.75 23.6583 29.75 22.0557 29.75H15.9443C14.3417 29.75 13.0627 29.75 12.0596 29.6152C11.0233 29.4758 10.1699 29.1803 9.4948 28.5052C8.81966 27.8301 8.52415 26.9767 8.38483 25.9404C8.24997 24.9373 8.24998 23.6583 8.25 22.0558V19.9443C8.24998 18.3417 8.24997 17.0627 8.38483 16.0596C8.52415 15.0233 8.81966 14.1699 9.4948 13.4948C10.1699 12.8197 11.0233 12.5242 12.0596 12.3848C13.0627 12.25 14.3416 12.25 15.9442 12.25H22.0558ZM14.5 17.25C12.7051 17.25 11.25 18.7051 11.25 20.5C11.25 22.2949 12.7051 23.75 14.5 23.75C16.2949 23.75 17.75 22.2949 17.75 20.5C17.75 18.7051 16.2949 17.25 14.5 17.25Z" fill="#FFCC33"/>
</svg>
