<svg width="81" height="81" viewBox="0 0 81 81" fill="none" xmlns="http://www.w3.org/2000/svg">
<rect x="0.5" y="0.5" width="80" height="80" rx="40" fill="#FFCC33"/>
<path fill-rule="evenodd" clip-rule="evenodd" d="M19 39.6334C19 28.1768 28.6905 19 40.5 19C52.3095 19 62 28.1768 62 39.6334C62 51.0901 52.3095 60.2669 40.5 60.2669C39.1083 60.2685 37.7207 60.1398 36.354 59.8831C35.8796 59.794 35.5782 59.7379 35.3539 59.7071C35.1867 59.6815 35.0186 59.7438 34.9555 59.7781C34.7264 59.8869 34.4214 60.0487 33.9543 60.2971C31.0908 61.8199 27.7501 62.36 24.5279 61.7607C24.0076 61.6639 23.5768 61.3001 23.3943 60.8033C23.2117 60.3065 23.3045 59.7504 23.6383 59.3397C24.5739 58.1889 25.2173 56.8027 25.5018 55.3104C25.5787 54.9 25.4045 54.3426 24.869 53.7987C21.2394 50.1131 19 45.1288 19 39.6334ZM32.5 38.5C31.3954 38.5 30.5 39.3954 30.5 40.5C30.5 41.6046 31.3954 42.5 32.5 42.5H32.5179C33.6225 42.5 34.5179 41.6046 34.5179 40.5C34.5179 39.3954 33.6225 38.5 32.5179 38.5H32.5ZM40.491 38.5C39.3865 38.5 38.491 39.3954 38.491 40.5C38.491 41.6046 39.3865 42.5 40.491 42.5H40.509C41.6135 42.5 42.509 41.6046 42.509 40.5C42.509 39.3954 41.6135 38.5 40.509 38.5H40.491ZM46.4821 40.5C46.4821 39.3954 47.3775 38.5 48.4821 38.5H48.5C49.6046 38.5 50.5 39.3954 50.5 40.5C50.5 41.6046 49.6046 42.5 48.5 42.5H48.4821C47.3775 42.5 46.4821 41.6046 46.4821 40.5Z" fill="#002244"/>
</svg>
