<svg width="16" height="16" viewBox="0 0 16 16" fill="none" xmlns="http://www.w3.org/2000/svg">
<path fill-rule="evenodd" clip-rule="evenodd" d="M15.5306 1.61041C15.8235 1.31752 15.8235 0.842641 15.5306 0.549748C15.2377 0.256855 14.7628 0.256855 14.4699 0.549748L8.00037 7.0193L1.53082 0.549748C1.23793 0.256855 0.763051 0.256855 0.470158 0.549748C0.177265 0.842641 0.177265 1.31752 0.470158 1.61041L6.93971 8.07996L0.469914 14.5497C0.177021 14.8426 0.177021 15.3175 0.469914 15.6104C0.762807 15.9033 1.23768 15.9033 1.53057 15.6104L8.00037 9.14062L14.4702 15.6104C14.7631 15.9033 15.2379 15.9033 15.5308 15.6104C15.8237 15.3175 15.8237 14.8426 15.5308 14.5497L9.06103 8.07996L15.5306 1.61041Z" fill="#002244"/>
</svg>
