<svg width="80" height="76" viewBox="0 0 80 76" fill="none" xmlns="http://www.w3.org/2000/svg">
<rect width="80" height="76" rx="16" fill="#D2EBE4"/>
<path fill-rule="evenodd" clip-rule="evenodd" d="M35.4999 21C35.4999 18.5147 37.5147 16.5 39.9999 16.5C42.4852 16.5 44.4999 18.5147 44.4999 21C44.4999 23.4853 42.4852 25.5 39.9999 25.5C37.5147 25.5 35.4999 23.4853 35.4999 21ZM35.036 27.8104C38.0789 26.0632 41.9218 26.0632 44.9647 27.8104C45.0288 27.8472 45.1171 27.8949 45.2235 27.9525L45.2239 27.9527L45.224 27.9527L45.224 27.9527C45.7606 28.243 46.7573 28.7821 47.4332 29.42C47.8516 29.815 48.3848 30.455 48.4845 31.3337C48.5956 32.3139 48.1285 33.1387 47.4609 33.752C46.4612 34.6704 45.158 35.5 43.4297 35.5H36.5711C34.8427 35.5 33.5395 34.6704 32.5399 33.752C31.8722 33.1387 31.4052 32.3139 31.5163 31.3337C31.6159 30.455 32.1491 29.815 32.5676 29.42C33.2435 28.7821 34.2401 28.243 34.7768 27.9527C34.8834 27.8951 34.9719 27.8472 35.036 27.8104ZM60.4332 53.42C59.7573 52.7821 58.7607 52.243 58.224 51.9527L58.2238 51.9527C58.1173 51.895 58.0289 51.8472 57.9647 51.8104C54.9218 50.0632 51.0789 50.0632 48.036 51.8104C47.9719 51.8472 47.8834 51.8951 47.7768 51.9527C47.2401 52.243 46.2435 52.7821 45.5676 53.42C45.1491 53.815 44.6159 54.455 44.5163 55.3337C44.4052 56.3139 44.8722 57.1387 45.5399 57.752C46.5395 58.6704 47.8427 59.5 49.5711 59.5H56.4297C58.158 59.5 59.4612 58.6704 60.4609 57.752C61.1285 57.1387 61.5956 56.3139 61.4845 55.3337C61.3848 54.455 60.8516 53.815 60.4332 53.42ZM48.4999 45C48.4999 42.5147 50.5147 40.5 53 40.5C55.4852 40.5 57.5 42.5147 57.5 45C57.5 47.4853 55.4852 49.5 53 49.5C50.5147 49.5 48.4999 47.4853 48.4999 45ZM34.4332 53.42C33.7574 52.7821 32.7607 52.243 32.224 51.9527L32.2237 51.9525C32.1172 51.895 32.0289 51.8472 31.9648 51.8104C28.9219 50.0632 25.079 50.0632 22.0361 51.8104C21.9719 51.8472 21.8834 51.8951 21.7768 51.9527C21.2402 52.243 20.2435 52.7821 19.5677 53.42C19.1492 53.815 18.616 54.455 18.5164 55.3337C18.4053 56.3139 18.8723 57.1387 19.5399 57.752C20.5396 58.6704 21.8428 59.5 23.5711 59.5H30.4298C32.1581 59.5 33.4613 58.6704 34.4609 57.752C35.1286 57.1387 35.5956 56.3139 35.4845 55.3337C35.3849 54.455 34.8517 53.815 34.4332 53.42ZM22.4999 45C22.4999 42.5147 24.5147 40.5 26.9999 40.5C29.4852 40.5 31.4999 42.5147 31.4999 45C31.4999 47.4853 29.4852 49.5 26.9999 49.5C24.5147 49.5 22.4999 47.4853 22.4999 45ZM42.0002 40C42.0002 38.8954 41.1048 38 40.0002 38C38.8957 38 38.0002 38.8954 38.0002 40V43.8676L33.9713 46.285C33.0241 46.8533 32.717 48.0818 33.2853 49.029C33.8536 49.9762 35.0821 50.2833 36.0292 49.715L40.0002 47.3324L43.9713 49.715C44.9184 50.2833 46.1469 49.9762 46.7152 49.029C47.2835 48.0818 46.9764 46.8533 46.0292 46.285L42.0002 43.8676V40Z" fill="#3BBB96"/>
</svg>
