<svg width="25" height="24" viewBox="0 0 25 24" fill="none" xmlns="http://www.w3.org/2000/svg">
<path fill-rule="evenodd" clip-rule="evenodd" d="M2.04289 1.29289C2.43342 0.902369 3.06658 0.902369 3.45711 1.29289L23.4571 21.2929C23.8476 21.6834 23.8476 22.3166 23.4571 22.7071C23.0666 23.0976 22.4334 23.0976 22.0429 22.7071L18.6082 19.2724C18.5071 19.269 18.398 19.2648 18.2805 19.2602C18.1055 19.2535 17.9286 19.25 17.75 19.25C15.9244 19.25 14.2852 19.6107 13.0674 20.1795C11.6202 20.8555 9.75848 21.25 7.74999 21.25C6.63015 21.25 5.55948 21.1274 4.58254 20.9037C3.70688 20.7031 3.01522 20.3111 2.56642 19.6488C2.1324 19.0082 1.99999 18.2216 1.99999 17.386V6.61394C1.99999 5.48133 2.83098 4.69244 3.79253 4.45671L2.04289 2.70708C1.65237 2.31655 1.65237 1.68342 2.04289 1.29289ZM10.0423 10.7066C9.85492 11.0982 9.74999 11.5369 9.74999 12C9.74999 13.6569 11.0931 15 12.75 15C13.2131 15 13.6518 14.895 14.0434 14.7076L10.0423 10.7066ZM6.24999 12C5.69771 12 5.24999 12.4477 5.24999 13C5.24999 13.5613 5.69771 14.009 6.24999 14.009C6.80227 14.009 7.24999 13.5613 7.24999 13.009C7.24999 12.4477 6.80227 12 6.24999 12ZM17.75 2.74999C18.8698 2.74999 19.9405 2.87254 20.9174 3.0963C21.8345 3.30634 22.5325 3.71216 22.9718 4.38744C23.3928 5.03452 23.5 5.81709 23.5 6.61394V17.386C23.5 17.6691 23.4481 17.9307 23.3552 18.1675C23.2579 18.4156 23.2093 18.5397 23.0505 18.5728C22.8918 18.606 22.7789 18.4931 22.5531 18.2673L15.7685 11.4822C15.74 11.4526 15.7221 11.4314 15.7089 11.4085C15.6891 11.374 15.6763 11.3258 15.6507 11.2293C15.3757 10.192 14.5587 9.37522 13.5214 9.10008C13.4249 9.0745 13.3767 9.06166 13.3423 9.04186C13.3079 9.02206 13.2774 8.99163 13.2165 8.93071L9.77553 5.48949C9.4643 5.17623 9.31315 5.00485 9.36028 4.8499C9.41264 4.67772 9.69062 4.62289 10.2466 4.51311C11.0657 4.3514 11.8051 4.11351 12.4326 3.82042C13.8798 3.1445 15.7415 2.74999 17.75 2.74999ZM19.25 9.99217C18.6977 9.99217 18.25 10.4399 18.25 10.9922C18.25 11.5535 18.6977 12.0012 19.25 12.0012C19.8023 12.0012 20.25 11.5535 20.25 11.0012C20.25 10.4399 19.8023 9.99217 19.25 9.99217Z" fill="#FFCC33"/>
</svg>
