<svg width="48" height="48" viewBox="0 0 48 48" fill="none" xmlns="http://www.w3.org/2000/svg">
<path fill-rule="evenodd" clip-rule="evenodd" d="M2.5 12C2.5 8.96243 4.96243 6.5 8 6.5H40C43.0376 6.5 45.5 8.96243 45.5 12V16.5H2.5V12ZM2.5 19.5H45.5V36C45.5 39.0376 43.0376 41.5 40 41.5H8C4.96244 41.5 2.5 39.0376 2.5 36V19.5ZM20 30.5C19.1716 30.5 18.5 31.1716 18.5 32C18.5 32.8284 19.1716 33.5 20 33.5H23C23.8284 33.5 24.5 32.8284 24.5 32C24.5 31.1716 23.8284 30.5 23 30.5H20ZM29 30.5C28.1716 30.5 27.5 31.1716 27.5 32C27.5 32.8284 28.1716 33.5 29 33.5H36C36.8284 33.5 37.5 32.8284 37.5 32C37.5 31.1716 36.8284 30.5 36 30.5H29Z" fill="#FFCC33"/>
</svg>
