<svg width="24" height="24" viewBox="0 0 24 24" fill="none" xmlns="http://www.w3.org/2000/svg">
<path fill-rule="evenodd" clip-rule="evenodd" d="M8.5 5C8.5 3.067 10.067 1.5 12 1.5C13.933 1.5 15.5 3.067 15.5 5C15.5 6.933 13.933 8.5 12 8.5C10.067 8.5 8.5 6.933 8.5 5ZM14 20.5C14 21.6046 13.1046 22.5 12 22.5C10.8954 22.5 10 21.6046 10 20.5C10 19.3954 10.8954 18.5 12 18.5C13.1046 18.5 14 19.3954 14 20.5ZM20 22.5C21.1046 22.5 22 21.6046 22 20.5C22 19.3954 21.1046 18.5 20 18.5C18.8954 18.5 18 19.3954 18 20.5C18 21.6046 18.8954 22.5 20 22.5ZM6 20.5C6 21.6046 5.10457 22.5 4 22.5C2.89543 22.5 2 21.6046 2 20.5C2 19.3954 2.89543 18.5 4 18.5C5.10457 18.5 6 19.3954 6 20.5ZM13 11.5C13 10.9477 12.5523 10.5 12 10.5C11.4477 10.5 11 10.9477 11 11.5V12.5H6.5C4.78677 12.5 3 13.6464 3 15.5C3 16.0523 3.44772 16.5 4 16.5C4.55228 16.5 5 16.0523 5 15.5C5 15.1444 5.45181 14.5 6.5 14.5H11V15.5C11 16.0523 11.4477 16.5 12 16.5C12.5523 16.5 13 16.0523 13 15.5V14.5H17.5C18.5482 14.5 19 15.1444 19 15.5C19 16.0523 19.4477 16.5 20 16.5C20.5523 16.5 21 16.0523 21 15.5C21 13.6464 19.2132 12.5 17.5 12.5H13V11.5Z" fill="#FFCC33"/>
</svg>
