<svg width="40" height="40" viewBox="0 0 40 40" fill="none" xmlns="http://www.w3.org/2000/svg">
<rect width="40" height="40" rx="6" fill="#FFFAEB"/>
<path fill-rule="evenodd" clip-rule="evenodd" d="M9 11.75C8.58579 11.75 8.25 12.0858 8.25 12.5C8.25 12.9142 8.58579 13.25 9 13.25L15.7574 13.25C16.3541 13.25 16.9264 13.4871 17.3483 13.909L19.1893 15.75L16.8107 15.75L16.0304 14.9697C15.7375 14.6768 15.2626 14.6768 14.9697 14.9697C14.6768 15.2626 14.6768 15.7374 14.9697 16.0303L15.9648 17.0254C15.9664 17.027 15.968 17.0287 15.9697 17.0303L16.9697 18.0303C17.2291 18.2897 17.2291 18.7103 16.9697 18.9697C16.8879 19.0515 16.79 19.1075 16.6863 19.1377C16.6256 19.1554 16.5628 19.1642 16.5 19.1642C16.3301 19.1642 16.1601 19.0994 16.0304 18.9697L14.5304 17.4697C14.3792 17.3185 14.1797 17.2454 13.9816 17.2502C13.9398 17.2512 13.898 17.2557 13.8568 17.2637C13.715 17.2912 13.5795 17.3598 13.4697 17.4697C13.4112 17.5281 13.3494 17.5815 13.2849 17.6298C12.6904 18.0741 11.862 18.084 11.253 17.6272L10.95 17.4C10.6187 17.1515 10.1486 17.2186 9.90004 17.55C9.65152 17.8814 9.71867 18.3515 10.05 18.6L10.353 18.8272C10.6317 19.0362 10.9348 19.1934 11.25 19.2996L11.25 20.75H9C8.58579 20.75 8.25 21.0858 8.25 21.5C8.25 21.9142 8.58579 22.25 9 22.25H11.25L11.25 23.552V23.552V23.5521C11.25 24.4505 11.25 25.1997 11.3299 25.7945C11.4143 26.4223 11.6 26.9891 12.0555 27.4445C12.5109 27.9 13.0777 28.0857 13.7055 28.1701C14.3003 28.2501 15.0495 28.25 15.948 28.25H15.948H25.052H25.052C25.9505 28.25 26.6997 28.2501 27.2945 28.1701C27.9223 28.0857 28.4891 27.9 28.9445 27.4445C29.4 26.9891 29.5857 26.4223 29.6701 25.7945C29.7501 25.1997 29.75 24.4505 29.75 23.552V20.448C29.75 19.5495 29.7501 18.8003 29.6701 18.2055C29.5857 17.5777 29.4 17.0109 28.9445 16.5555C28.4891 16.1 27.9223 15.9143 27.2945 15.8299C26.6997 15.75 25.9505 15.75 25.0521 15.75H25.052H25.052L21.3107 15.75L18.409 12.8483C17.7057 12.1451 16.7519 11.75 15.7574 11.75L9 11.75ZM22.5 22C22.5 23.1045 21.6046 24 20.5 24C19.3954 24 18.5 23.1045 18.5 22C18.5 20.8954 19.3954 20 20.5 20C21.6046 20 22.5 20.8954 22.5 22Z" fill="#FFCC33"/>
</svg>
