<svg width="24" height="24" viewBox="0 0 24 24" fill="none" xmlns="http://www.w3.org/2000/svg">
<path fill-rule="evenodd" clip-rule="evenodd" d="M2 3.75C1.58579 3.75 1.25 4.08579 1.25 4.5C1.25 4.91421 1.58579 5.25 2 5.25L8.75736 5.25C9.3541 5.25 9.92639 5.48705 10.3483 5.90901L12.1893 7.75L9.81071 7.75L9.03037 6.96967C8.73748 6.67678 8.26261 6.67678 7.96971 6.96967C7.67682 7.26256 7.67682 7.73744 7.96971 8.03033L8.96478 9.02539C8.9664 9.02705 8.96803 9.02869 8.96967 9.03033L9.96967 10.0303C10.2291 10.2897 10.2291 10.7103 9.96967 10.9697C9.88787 11.0515 9.79004 11.1075 9.68628 11.1377C9.62555 11.1554 9.5628 11.1642 9.50004 11.1642C9.33006 11.1642 9.16007 11.0994 9.03038 10.9697L7.53037 9.46967C7.37925 9.31854 7.17967 9.24539 6.98163 9.25022C6.9398 9.25125 6.89803 9.25575 6.8568 9.26373C6.71496 9.29118 6.57952 9.35983 6.46967 9.46967C6.41121 9.52813 6.34942 9.58152 6.28486 9.62979C5.69039 10.0741 4.86201 10.084 4.25299 9.62721L3.95004 9.4C3.61867 9.15147 3.14857 9.21863 2.90004 9.55C2.65152 9.88137 2.71867 10.3515 3.05004 10.6L3.35299 10.8272C3.63169 11.0362 3.93478 11.1934 4.25 11.2996L4.25 12.75H2C1.58579 12.75 1.25 13.0858 1.25 13.5C1.25 13.9142 1.58579 14.25 2 14.25H4.25L4.25 15.552V15.552V15.5521C4.24997 16.4505 4.24995 17.1997 4.32992 17.7945C4.41432 18.4223 4.59999 18.9891 5.05546 19.4445C5.51093 19.9 6.07773 20.0857 6.70552 20.1701C7.3003 20.2501 8.04951 20.25 8.94798 20.25H8.94801H18.052H18.052C18.9505 20.25 19.6997 20.2501 20.2945 20.1701C20.9223 20.0857 21.4891 19.9 21.9445 19.4445C22.4 18.9891 22.5857 18.4223 22.6701 17.7945C22.7501 17.1997 22.75 16.4505 22.75 15.552V12.448C22.75 11.5495 22.7501 10.8003 22.6701 10.2055C22.5857 9.57773 22.4 9.01093 21.9445 8.55546C21.4891 8.09999 20.9223 7.91432 20.2945 7.82992C19.6997 7.74995 18.9505 7.74997 18.0521 7.75H18.052H18.052L14.3107 7.75L11.409 4.84835C10.7057 4.14509 9.75192 3.75 8.75736 3.75L2 3.75ZM15.5 14C15.5 15.1045 14.6046 16 13.5 16C12.3954 16 11.5 15.1045 11.5 14C11.5 12.8954 12.3954 12 13.5 12C14.6046 12 15.5 12.8954 15.5 14Z" fill="#FFCC33"/>
</svg>
