<svg width="22" height="22" viewBox="0 0 22 22" fill="none" xmlns="http://www.w3.org/2000/svg">
<path fill-rule="evenodd" clip-rule="evenodd" d="M4.97858 0.250002H7.02142C7.87097 0.249954 8.60296 0.249912 9.18913 0.330278C9.81733 0.416407 10.4195 0.610635 10.9079 1.10871C11.3964 1.60679 11.5868 2.22086 11.6713 2.86148C11.7501 3.45924 11.75 4.20569 11.75 5.07203V6.25L17.052 6.25H17.052H17.0521C17.9505 6.24997 18.6997 6.24995 19.2945 6.32992C19.9223 6.41432 20.4891 6.59999 20.9445 7.05546C21.4 7.51093 21.5857 8.07773 21.6701 8.70552C21.7501 9.3003 21.75 10.0495 21.75 10.948V10.948V17.052V17.052C21.75 17.9505 21.7501 18.6997 21.6701 19.2945C21.5857 19.9223 21.4 20.4891 20.9445 20.9445C20.4891 21.4 19.9223 21.5857 19.2945 21.6701C18.6997 21.7501 17.9505 21.75 17.0521 21.75H17.0521H17.052H17.052L10.25 21.75L4.9786 21.75H4.97858H4.97855C4.12901 21.75 3.39704 21.7501 2.81087 21.6697C2.18267 21.5836 1.5805 21.3894 1.09207 20.8913C0.603646 20.3932 0.413182 19.7791 0.328723 19.1385C0.249914 18.5408 0.249955 17.7943 0.250002 16.928L0.250005 5.13637L0.250002 5.07203C0.249955 4.20569 0.249914 3.45924 0.328723 2.86148C0.413182 2.22086 0.603646 1.60679 1.09207 1.10871C1.5805 0.610635 2.18267 0.416407 2.81087 0.330278C3.39704 0.249912 4.12903 0.249954 4.97858 0.250002ZM3.06626 2.26739C2.65059 2.32438 2.52031 2.41639 2.44736 2.49079C2.37441 2.56518 2.28418 2.69804 2.2283 3.12192C2.16871 3.57391 2.16667 4.18736 2.16667 5.13637V16.8636C2.16667 17.8126 2.16871 18.4261 2.2283 18.8781C2.28418 19.302 2.37441 19.4348 2.44736 19.5092C2.52031 19.5836 2.65059 19.6756 3.06626 19.7326C3.5095 19.7934 4.11105 19.7955 5.04167 19.7955H9.83333V5.13637C9.83333 4.18736 9.8313 3.57391 9.7717 3.12192C9.71582 2.69804 9.62559 2.56518 9.55264 2.49079C9.47969 2.41639 9.34941 2.32438 8.93374 2.26739C8.49051 2.20662 7.88895 2.20455 6.95833 2.20455H5.04167C4.11105 2.20455 3.5095 2.20662 3.06626 2.26739ZM14.5 10.25C14.0858 10.25 13.75 10.5858 13.75 11C13.75 11.4142 14.0858 11.75 14.5 11.75H17.5C17.9142 11.75 18.25 11.4142 18.25 11C18.25 10.5858 17.9142 10.25 17.5 10.25H14.5ZM14.5 14.25C14.0858 14.25 13.75 14.5858 13.75 15C13.75 15.4142 14.0858 15.75 14.5 15.75H17.5C17.9142 15.75 18.25 15.4142 18.25 15C18.25 14.5858 17.9142 14.25 17.5 14.25H14.5ZM4.5 4C3.94772 4 3.5 4.44772 3.5 5C3.5 5.55228 3.94772 6 4.5 6H7.5C8.05228 6 8.5 5.55228 8.5 5C8.5 4.44772 8.05228 4 7.5 4H4.5ZM4.5 8C3.94772 8 3.5 8.44772 3.5 9C3.5 9.55228 3.94772 10 4.5 10H7.5C8.05228 10 8.5 9.55228 8.5 9C8.5 8.44772 8.05228 8 7.5 8H4.5ZM4.5 12C3.94772 12 3.5 12.4477 3.5 13C3.5 13.5523 3.94772 14 4.5 14H7.5C8.05228 14 8.5 13.5523 8.5 13C8.5 12.4477 8.05228 12 7.5 12H4.5Z" fill="#FFCC33"/>
</svg>
