<svg width="18" height="22" viewBox="0 0 18 22" fill="none" xmlns="http://www.w3.org/2000/svg">
<path fill-rule="evenodd" clip-rule="evenodd" d="M0.250058 8.58259L0.25 13.5474V13.5475V13.5475V13.5475C0.249985 15.0811 0.249973 16.3176 0.364246 17.3014C0.482485 18.3194 0.734184 19.1916 1.32682 19.9305C1.54435 20.2017 1.79012 20.4487 2.05993 20.6674C2.79495 21.2631 3.66266 21.5161 4.67535 21.635C5.65411 21.7498 7.06171 21.7499 8.58745 21.7499C9.15739 21.7507 9.6619 21.7513 10.1373 21.5827C10.2353 21.5479 10.3314 21.5079 10.4251 21.4629C10.8799 21.2442 11.2362 20.8851 11.6387 20.4795L16.4215 15.6718C16.8889 15.2035 17.3037 14.7878 17.5277 14.244C17.7518 13.7003 17.7509 13.1115 17.7499 12.4482L17.7497 8.9739C17.7498 7.19189 17.7498 5.75554 17.5987 4.62586C17.4418 3.453 17.1062 2.46548 16.326 1.68117C15.5457 0.896866 14.5633 0.559523 13.3965 0.401835C12.2727 0.249956 10.8438 0.249976 9.07097 0.250001H9.07089C8.14767 0.249989 7.27915 0.249977 6.5 0.271421V4.12815C7.28068 3.85288 8.1844 4.0205 8.81823 4.63657C9.69323 5.48706 9.72853 6.87596 8.90943 7.76951L7.56052 9.43213C7.25018 9.79839 6.86368 10.2265 6.4492 10.5795C6.24084 10.757 5.97291 10.961 5.65759 11.1298C5.36004 11.289 4.86733 11.5 4.25 11.5C3.63268 11.5 3.13996 11.289 2.84242 11.1298C2.52709 10.961 2.25917 10.757 2.05081 10.5795C1.63633 10.2265 1.24983 9.79839 0.939482 9.43214L0.250058 8.58259ZM14.9511 14.3856C15.5692 13.7643 15.6746 13.6339 15.7314 13.4961C14.3638 13.4961 13.7152 13.4969 12.8483 13.6134C11.9481 13.7344 11.1903 13.9933 10.5884 14.5953C9.98644 15.1972 9.72754 15.955 9.60653 16.8551C9.4902 17.7203 9.49021 18.3764 9.49024 19.7383C9.67188 19.6836 9.81326 19.5502 10.3462 19.0145L14.9511 14.3856ZM5.25 1.25C5.25 0.697716 4.80229 0.250001 4.25 0.250001C3.69772 0.250001 3.25 0.697716 3.25 1.25L3.25 7.12839C3.05725 6.89383 2.86888 6.65389 2.68935 6.42521L2.68932 6.42518L2.63584 6.35707C2.40657 6.06516 2.16012 5.75161 1.96708 5.55301C1.58215 5.15698 0.949045 5.14798 0.553012 5.53292C0.156978 5.91786 0.147983 6.55096 0.53292 6.94699C0.634804 7.05181 0.805778 7.26497 1.06301 7.59246L1.11958 7.66452C1.3475 7.95488 1.61619 8.29719 1.89315 8.62404C2.18969 8.974 2.52451 9.34104 2.86131 9.62789C3.03012 9.77166 3.22285 9.91564 3.4322 10.0277C3.63363 10.1355 3.91729 10.25 4.25 10.25C4.58271 10.25 4.86638 10.1355 5.0678 10.0277C5.27715 9.91564 5.46989 9.77166 5.6387 9.62789C5.97549 9.34104 6.31032 8.974 6.60685 8.62404C6.8838 8.29719 7.15249 7.9549 7.3804 7.66453L7.43699 7.59246C7.69422 7.26497 7.8652 7.05181 7.96708 6.94699C8.35202 6.55096 8.34302 5.91786 7.94699 5.53292C7.55096 5.14798 6.91786 5.15698 6.53292 5.55301C6.33989 5.75161 6.09344 6.06516 5.86416 6.35706L5.8107 6.42515C5.63116 6.65385 5.44276 6.89381 5.25 7.12839V1.25Z" fill="#002244"/>
</svg>
