<svg width="20" height="20" viewBox="0 0 20 20" fill="none" xmlns="http://www.w3.org/2000/svg">
<path fill-rule="evenodd" clip-rule="evenodd" d="M4.15039 0.25C3.80791 0.25 3.49054 0.429691 3.31434 0.723367L1.85184 3.16087C1.76092 3.3124 1.71289 3.48579 1.71289 3.6625C1.71289 4.8232 2.2923 5.84711 3.17539 6.46309L3.17539 9.025C3.17539 9.56348 3.61191 10 4.15039 10C4.68887 10 5.12539 9.56348 5.12539 9.025L5.12539 7.075C6.08026 7.075 6.94352 6.68281 7.56289 6.05074C8.18227 6.68281 9.04552 7.075 10.0004 7.075C10.9553 7.075 11.8185 6.68281 12.4379 6.05074C13.0573 6.68281 13.9205 7.075 14.8754 7.075V9.025C14.8754 9.56348 15.3119 10 15.8504 10C16.3889 10 16.8254 9.56348 16.8254 9.025L16.8254 6.46309C17.7085 5.84711 18.2879 4.8232 18.2879 3.6625C18.2879 3.48579 18.2399 3.3124 18.1489 3.16087L16.6864 0.723367C16.5102 0.429691 16.1929 0.25 15.8504 0.25L4.15039 0.25ZM2.2 9.99844C2.2 9.45996 1.76348 9.02344 1.225 9.02344C0.686522 9.02344 0.25 9.45996 0.25 9.99844L0.25 18.7734C0.25 19.3119 0.686522 19.7484 1.225 19.7484C1.76348 19.7484 2.2 19.3119 2.2 18.7734L2.2 15.8484H3.175C3.89199 15.8484 4.33165 15.8505 4.64984 15.8933C4.92952 15.9309 4.97622 15.9844 4.98176 15.9907L4.98273 15.9917C4.98907 15.9972 5.04255 16.0439 5.08015 16.3236C5.12293 16.6418 5.125 17.0814 5.125 17.7984V18.7734C5.125 19.3119 5.56152 19.7484 6.1 19.7484C6.63848 19.7484 7.075 19.3119 7.075 18.7734V17.7984L7.075 17.7384C7.07506 17.1006 7.07512 16.5276 7.01276 16.0638C6.94468 15.5574 6.7866 15.0379 6.36107 14.6124C5.93554 14.1868 5.41605 14.0288 4.90968 13.9607C4.44586 13.8983 3.87284 13.8984 3.23507 13.8984L3.175 13.8984H2.2L2.2 9.99844ZM18.7758 9.02344C19.3143 9.02344 19.7508 9.45996 19.7508 9.99844L19.7508 18.7734C19.7508 19.3119 19.3143 19.7484 18.7758 19.7484C18.2373 19.7484 17.8008 19.3119 17.8008 18.7734V15.8484H16.8258C16.1088 15.8484 15.6691 15.8505 15.3509 15.8933C15.0713 15.9309 15.0246 15.9844 15.019 15.9907L15.0181 15.9917C15.0117 15.9972 14.9582 16.0439 14.9206 16.3236C14.8779 16.6418 14.8758 17.0814 14.8758 17.7984L14.8758 18.7734C14.8758 19.3119 14.4393 19.7484 13.9008 19.7484C13.3623 19.7484 12.9258 19.3119 12.9258 18.7734L12.9258 17.7984L12.9258 17.7384C12.9257 17.1006 12.9257 16.5276 12.988 16.0638C13.0561 15.5574 13.2142 15.0379 13.6397 14.6124C14.0652 14.1868 14.5847 14.0288 15.0911 13.9607C15.5549 13.8983 16.1279 13.8984 16.7657 13.8984L16.8258 13.8984H17.8008V9.99844C17.8008 9.45996 18.2373 9.02344 18.7758 9.02344ZM5.12539 10.9766C4.58691 10.9766 4.15039 11.4131 4.15039 11.9516C4.15039 12.49 4.58691 12.9266 5.12539 12.9266H9.02539V17.8016C8.48691 17.8016 8.05039 18.2381 8.05039 18.7766C8.05039 19.315 8.48691 19.7516 9.02539 19.7516H10.9754C11.5139 19.7516 11.9504 19.315 11.9504 18.7766C11.9504 18.2381 11.5139 17.8016 10.9754 17.8016V12.9266L14.8754 12.9266C15.4139 12.9266 15.8504 12.49 15.8504 11.9516C15.8504 11.4131 15.4139 10.9766 14.8754 10.9766L5.12539 10.9766Z" fill="#FFCC33"/>
</svg>
