<svg width="22" height="22" viewBox="0 0 22 22" fill="none" xmlns="http://www.w3.org/2000/svg">
<path fill-rule="evenodd" clip-rule="evenodd" d="M4.34101 3.27286C4.13606 3.06791 4.14715 2.73129 4.375 2.55214C6.20908 1.11012 8.52226 0.25 11.0363 0.25C16.5571 0.25 21.1092 4.39767 21.7464 9.74692C21.7807 10.0346 21.5505 10.2804 21.2608 10.2804H15.3929C15.1529 10.2804 14.95 10.1086 14.8808 9.87872C14.3838 8.22678 12.8509 7.02344 11.037 7.02344C10.3496 7.02344 9.70254 7.19624 9.13695 7.50078C8.9256 7.61457 8.66068 7.59253 8.49095 7.4228L4.34101 3.27286ZM3.2763 4.33664C3.07142 4.13176 2.73494 4.14276 2.55573 4.37043C1.11155 6.20524 0.25 8.52018 0.25 11.0363C0.25 16.5585 4.39978 21.1115 9.751 21.7469C10.0386 21.781 10.2843 21.5509 10.2843 21.2613V15.3941C10.2843 15.1539 10.1122 14.9509 9.88213 14.8819C8.22843 14.3859 7.02344 12.8521 7.02344 11.037C7.02344 10.3478 7.19715 9.69916 7.50317 9.13252C7.61735 8.92109 7.59547 8.6558 7.42555 8.48589L3.2763 4.33664ZM12.1916 14.8819C11.9615 14.9509 11.7894 15.1539 11.7894 15.3941V21.2611C11.7894 21.5508 12.0352 21.7809 12.3228 21.7467C17.253 21.1608 21.1631 17.2495 21.7472 12.3188C21.7813 12.0312 21.5512 11.7855 21.2616 11.7855H15.3953C15.1549 11.7855 14.9518 11.9578 14.8829 12.1882C14.4974 13.4779 13.4809 14.4953 12.1916 14.8819Z" fill="#FFCC33"/>
</svg>
