<svg width="36" height="36" viewBox="0 0 36 36" fill="none" xmlns="http://www.w3.org/2000/svg">
<rect x="0.424419" y="0.424419" width="35.1512" height="35.1512" rx="7.57558" stroke="#002244" stroke-width="0.848837"/>
<path d="M26.9 8H9.1C8.80826 8 8.52847 8.11589 8.32218 8.32218C8.11589 8.52847 8 8.80826 8 9.1V26.9C8 27.1917 8.11589 27.4715 8.32218 27.6778C8.52847 27.8841 8.80826 28 9.1 28H18.68V20.25H16.08V17.25H18.68V15C18.6261 14.4718 18.6885 13.9381 18.8627 13.4365C19.0369 12.9349 19.3188 12.4775 19.6885 12.0964C20.0582 11.7153 20.5068 11.4196 21.0028 11.2302C21.4989 11.0408 22.0304 10.9623 22.56 11C23.3383 10.9946 24.1163 11.0347 24.89 11.12V13.82H23.3C22.04 13.82 21.8 14.42 21.8 15.29V17.22H24.8L24.41 20.22H21.8V28H26.9C27.0445 28 27.1875 27.9715 27.321 27.9163C27.4544 27.861 27.5757 27.78 27.6778 27.6778C27.78 27.5757 27.861 27.4544 27.9163 27.321C27.9715 27.1875 28 27.0445 28 26.9V9.1C28 8.95555 27.9715 8.81251 27.9163 8.67905C27.861 8.54559 27.78 8.42433 27.6778 8.32218C27.5757 8.22004 27.4544 8.13901 27.321 8.08373C27.1875 8.02845 27.0445 8 26.9 8Z" fill="#002244"/>
</svg>
