<svg width="40" height="40" viewBox="0 0 40 40" fill="none" xmlns="http://www.w3.org/2000/svg">
<rect width="40" height="40" rx="6" fill="#FFFAEB"/>
<path fill-rule="evenodd" clip-rule="evenodd" d="M8.25 19.5667C8.25 13.8384 13.0952 9.25 19 9.25C24.9048 9.25 29.75 13.8384 29.75 19.5667C29.75 25.295 24.9048 29.8834 19 29.8834C18.3041 29.8843 17.6103 29.8199 16.927 29.6916C16.6898 29.647 16.5391 29.6189 16.427 29.6036C16.3433 29.5907 16.2593 29.6219 16.2277 29.6391C16.1132 29.6935 15.9607 29.7744 15.7271 29.8986C14.2954 30.66 12.625 30.93 11.014 30.6303C10.7538 30.5819 10.5384 30.4 10.4471 30.1517C10.3559 29.9033 10.4022 29.6252 10.5692 29.4199C11.037 28.8445 11.3586 28.1513 11.5009 27.4052C11.5394 27.2 11.4523 26.9213 11.1845 26.6494C9.36972 24.8065 8.25 22.3144 8.25 19.5667ZM18 17.2582C18 16.9566 18.3228 16.5 19 16.5C19.6772 16.5 20 16.9566 20 17.2582C20 17.3803 19.9608 17.5021 19.8762 17.6178C19.7622 17.7734 19.6156 17.9397 19.4303 18.1422L19.3414 18.239C19.1863 18.4076 19.0087 18.6007 18.847 18.796C18.4761 19.2443 18 19.9172 18 20.7747V21.2143C18 21.7666 18.4477 22.2143 19 22.2143C19.5523 22.2143 20 21.7666 20 21.2143V20.7747C20 20.6612 20.0666 20.4593 20.3878 20.0712C20.5131 19.9198 20.6484 19.7726 20.8027 19.6046L20.8027 19.6046L20.9056 19.4925C21.092 19.2889 21.3051 19.0517 21.4901 18.799C21.8065 18.3667 22 17.8363 22 17.2582C22 15.6177 20.5319 14.5 19 14.5C17.4681 14.5 16 15.6177 16 17.2582C16 17.8105 16.4477 18.2582 17 18.2582C17.5523 18.2582 18 17.8105 18 17.2582ZM19 23.5C18.4477 23.5 18 23.9477 18 24.5C18 25.0523 18.4477 25.5 19 25.5H19.012C19.5643 25.5 20.012 25.0523 20.012 24.5C20.012 23.9477 19.5643 23.5 19.012 23.5H19Z" fill="#FFCC33"/>
</svg>
