<svg width="48" height="48" viewBox="0 0 48 48" fill="none" xmlns="http://www.w3.org/2000/svg">
<path fill-rule="evenodd" clip-rule="evenodd" d="M26 6C26 4.89543 25.1046 4 24 4C22.8954 4 22 4.89543 22 6V10.5451C21.8633 10.556 21.7316 10.5697 21.6056 10.5866C20.8946 10.6822 20.1432 10.9071 19.5251 11.5251C18.9071 12.1432 18.6822 12.8946 18.5866 13.6056C18.4998 14.2512 18.4999 15.0449 18.5 15.9105V32.0895C18.4999 32.9551 18.4998 33.7488 18.5866 34.3944C18.6822 35.1054 18.9071 35.8568 19.5251 36.4749C20.1432 37.0929 20.8946 37.3178 21.6056 37.4134C21.7316 37.4304 21.8633 37.444 22 37.455V42C22 43.1046 22.8954 44 24 44C25.1046 44 26 43.1046 26 42V37.455C26.1367 37.444 26.2684 37.4304 26.3944 37.4134C27.1054 37.3178 27.8568 37.0929 28.4749 36.4749C29.0929 35.8568 29.3178 35.1054 29.4134 34.3944C29.5002 33.7488 29.5001 32.9552 29.5 32.0896V32.0896V32.0896V32.0895V15.9105V15.9104V15.9104V15.9104C29.5001 15.0448 29.5002 14.2512 29.4134 13.6056C29.3178 12.8946 29.0929 12.1432 28.4749 11.5251C27.8568 10.9071 27.1054 10.6822 26.3944 10.5866C26.2684 10.5697 26.1367 10.556 26 10.5451V6ZM40 6C40 4.89543 39.1046 4 38 4C36.8954 4 36 4.89543 36 6V8.54507C35.8633 8.55604 35.7316 8.56967 35.6056 8.58661C34.8946 8.6822 34.1432 8.90709 33.5251 9.52514C32.9071 10.1432 32.6822 10.8946 32.5866 11.6056C32.4998 12.2512 32.4999 13.0449 32.5 13.9105V18.0895C32.4999 18.9551 32.4998 19.7488 32.5866 20.3944C32.6822 21.1054 32.9071 21.8568 33.5251 22.4749C34.1432 23.0929 34.8946 23.3178 35.6056 23.4134C35.7316 23.4304 35.8633 23.444 36 23.455V26C36 27.1046 36.8954 28 38 28C39.1046 28 40 27.1046 40 26V23.455C40.1367 23.444 40.2684 23.4304 40.3944 23.4134C41.1054 23.3178 41.8568 23.0929 42.4749 22.4749C43.0929 21.8568 43.3178 21.1054 43.4134 20.3944C43.5002 19.7488 43.5001 18.9551 43.5 18.0895V13.9105C43.5001 13.0449 43.5002 12.2512 43.4134 11.6056C43.3178 10.8946 43.0929 10.1432 42.4749 9.52514C41.8568 8.90709 41.1054 8.6822 40.3944 8.58661C40.2684 8.56967 40.1367 8.55604 40 8.54507V6ZM12 16C12 14.8954 11.1046 14 10 14C8.89543 14 8 14.8954 8 16V18.5451C7.86327 18.556 7.73161 18.5697 7.6056 18.5866C6.89464 18.6822 6.14319 18.9071 5.52514 19.5251C4.90709 20.1432 4.6822 20.8946 4.58661 21.6056C4.49981 22.2512 4.4999 23.0449 4.50001 23.9105V28.0895C4.4999 28.9551 4.49981 29.7488 4.58661 30.3944C4.6822 31.1054 4.90709 31.8568 5.52514 32.4749C6.14319 33.0929 6.89464 33.3178 7.6056 33.4134C7.73161 33.4304 7.86327 33.444 8 33.455V36C8 37.1046 8.89543 38 10 38C11.1046 38 12 37.1046 12 36V33.455C12.1367 33.444 12.2684 33.4304 12.3944 33.4134C13.1054 33.3178 13.8568 33.0929 14.4749 32.4749C15.0929 31.8568 15.3178 31.1054 15.4134 30.3944C15.5002 29.7488 15.5001 28.9551 15.5 28.0895V23.9105C15.5001 23.0449 15.5002 22.2512 15.4134 21.6056C15.3178 20.8946 15.0929 20.1432 14.4749 19.5251C13.8568 18.9071 13.1054 18.6822 12.3944 18.5866C12.2684 18.5697 12.1367 18.556 12 18.5451V16Z" fill="#17B26A"/>
</svg>
