<svg width="44" height="44" viewBox="0 0 44 44" fill="none" xmlns="http://www.w3.org/2000/svg">
<path fill-rule="evenodd" clip-rule="evenodd" d="M0.5 19.2199C0.5 8.81992 9.294 0.5 20 0.5C29.426 0.5 37.37 6.94 39.134 15.6C39.33 16.54 39.428 17.02 39.144 17.26C38.8604 17.4797 38.3632 17.2605 37.3678 16.8216L37.364 16.8199C35.408 15.9799 33.248 15.5 31 15.5C22.634 15.5 15.5 22.0399 15.5 30.5199C15.5 32.7599 15.992 34.8399 16.868 36.7199C17.076 37.1599 16.722 37.68 16.24 37.6C16.1107 37.5758 15.9961 37.5535 15.8938 37.5335C15.6575 37.4874 15.4862 37.454 15.348 37.44C15.298 37.42 15.254 37.42 15.216 37.44H15.164C15.1399 37.4501 15.1129 37.465 15.0769 37.4851C15.0409 37.505 14.996 37.53 14.936 37.56C14.8398 37.6018 14.7283 37.6601 14.5963 37.729C14.4758 37.7919 14.3384 37.8637 14.18 37.94C11.572 39.34 8.53205 39.8201 5.59805 39.2801C5.07805 39.1801 4.64597 38.8199 4.46396 38.3199C4.28196 37.8199 4.37401 37.28 4.70801 36.86C5.53401 35.84 6.102 34.62 6.354 33.3C6.412 33 6.28598 32.5401 5.82598 32.0801C2.53198 28.7401 0.5 24.1999 0.5 19.2199ZM31 18.5C24.16 18.5 18.5 23.8199 18.5 30.5199C18.5 37.2199 24.16 42.54 31 42.54C31.806 42.54 32.612 42.4799 33.404 42.3199C33.515 42.2975 33.6052 42.2814 33.68 42.2681C33.7387 42.2576 33.7878 42.2488 33.83 42.24C33.932 42.3 34.072 42.3801 34.284 42.4801C35.99 43.4001 37.982 43.72 39.908 43.36C40.428 43.26 40.86 42.9 41.042 42.4C41.224 41.9 41.132 41.34 40.798 40.94C40.358 40.4 40.052 39.74 39.914 39.04C39.9154 39.026 39.9168 39.0218 39.9196 39.0136C39.9208 39.0101 39.9222 39.0059 39.924 39C39.944 38.96 39.992 38.8801 40.078 38.7801C42.19 36.6401 43.5 33.7399 43.5 30.5199C43.5 23.8199 37.84 18.5 31 18.5Z" fill="#17B26A"/>
</svg>
