<svg width="22" height="22" viewBox="0 0 22 22" fill="none" xmlns="http://www.w3.org/2000/svg">
<path fill-rule="evenodd" clip-rule="evenodd" d="M11.0572 0.75C13.2479 0.749987 14.9686 0.749976 16.312 0.930594C17.6886 1.11568 18.7809 1.50272 19.6391 2.36091C20.4973 3.21911 20.8843 4.31137 21.0694 5.68802C21.25 7.03144 21.25 8.7521 21.25 10.9428V10.9428V11.0572V11.0572C21.25 13.2479 21.25 14.9686 21.0694 16.312C20.8843 17.6886 20.4973 18.7809 19.6391 19.6391C18.7809 20.4973 17.6886 20.8843 16.312 21.0694C14.9686 21.25 13.2479 21.25 11.0572 21.25H11.0572H10.9428H10.9428C8.7521 21.25 7.03144 21.25 5.68802 21.0694C4.31137 20.8843 3.21911 20.4973 2.36091 19.6391C1.50272 18.7809 1.11568 17.6886 0.930594 16.312C0.749976 14.9686 0.749987 13.2479 0.75 11.0572V10.9428C0.749987 8.75212 0.749976 7.03144 0.930594 5.68802C1.11568 4.31137 1.50272 3.21911 2.36091 2.36091C3.21911 1.50272 4.31137 1.11568 5.68802 0.930594C7.03144 0.749976 8.75212 0.749987 10.9428 0.75H11.0572ZM18 17C18 17.5523 17.5523 18 17 18H9C8.44771 18 8 17.5523 8 17C8 16.4477 8.44771 16 9 16H17C17.5523 16 18 16.4477 18 17ZM9 12C8.44772 12 8 12.4477 8 13C8 13.5523 8.44772 14 9 14H11C11.5523 14 12 13.5523 12 13C12 12.4477 11.5523 12 11 12H9ZM14 12C13.4477 12 13 12.4477 13 13C13 13.5523 13.4477 14 14 14H17C17.5523 14 18 13.5523 18 13C18 12.4477 17.5523 12 17 12H14Z" fill="#FFCC33"/>
</svg>
