<svg width="80" height="76" viewBox="0 0 80 76" fill="none" xmlns="http://www.w3.org/2000/svg">
<rect width="80" height="76" rx="16" fill="#E2D4F5"/>
<path fill-rule="evenodd" clip-rule="evenodd" d="M39.2734 16.6895C39.7274 16.4368 40.2798 16.4368 40.7337 16.6896L60.7327 27.8264C61.1679 28.0687 61.4542 28.511 61.497 29.007C61.5397 29.5029 61.3333 29.9876 60.9461 30.3007L55.5 34.7042V44.4778C55.5 50.505 51.4513 54.2756 47.7615 56.4482C45.8976 57.5457 44.0467 58.2873 42.6694 58.7542C41.9782 58.9885 41.3997 59.1559 40.9897 59.2656C40.838 59.3062 40.4322 59.3999 40.1847 59.4571C40.0975 59.4772 40.0299 59.4929 40 59.5C39.9701 59.4929 39.9025 59.4772 39.8153 59.4571C39.5678 59.3999 39.162 59.3062 39.0103 59.2656C38.6003 59.1559 38.0218 58.9885 37.3306 58.7542C35.9533 58.2873 34.1024 57.5457 32.2385 56.4482C28.5487 54.2756 24.5 50.505 24.5 44.4778V34.6989L19.0569 30.3011C18.6694 29.988 18.4628 29.5032 18.5055 29.0072C18.5482 28.5111 18.8347 28.0686 19.2699 27.8263L39.2734 16.6895ZM52.5 38.481H27.5V44.4778C27.5 48.9424 30.4513 51.9164 33.7615 53.8656C35.3976 54.8289 37.0467 55.4924 38.2944 55.9155C38.9157 56.1261 39.6444 56.3306 40 56.4258C40.3556 56.3306 41.0843 56.1261 41.7056 55.9155C42.9533 55.4924 44.6024 54.8289 46.2385 53.8656C49.5487 51.9164 52.5 48.9424 52.5 44.4778V38.481Z" fill="#8E44EC"/>
</svg>
