<svg width="32" height="32" viewBox="0 0 32 32" fill="none" xmlns="http://www.w3.org/2000/svg">
<path fill-rule="evenodd" clip-rule="evenodd" d="M10.3337 10C10.3337 6.87043 12.8707 4.33337 16.0003 4.33337C19.1299 4.33337 21.667 6.87043 21.667 10C21.667 13.1297 19.1299 15.6667 16.0003 15.6667C12.8707 15.6667 10.3337 13.1297 10.3337 10ZM29.3741 27.6659H28.3291C28.2079 23.2348 25.6781 19.2843 21.9322 17.4375C26.6552 17.6567 30.3338 21.7738 30.3338 26.7061C30.3338 27.2362 29.9041 27.6659 29.3741 27.6659ZM1.66699 26.7061C1.66699 21.7739 5.34552 17.6568 10.0684 17.4375C6.32254 19.2843 3.79277 23.2348 3.67155 27.6659H2.62676C2.0967 27.6659 1.66699 27.2362 1.66699 26.7061ZM14.8337 18.3334C9.7159 18.3334 5.66699 22.7181 5.66699 28C5.66699 28.5523 6.11471 29 6.66699 29H25.3337C25.8859 29 26.3337 28.5523 26.3337 28C26.3337 22.7181 22.2848 18.3334 17.167 18.3334H14.8337ZM8.33366 9.9976C8.33366 8.61076 8.70189 7.30993 9.34591 6.18754C7.24142 6.65175 5.66699 8.52806 5.66699 10.7721C5.66699 13.3649 7.7689 15.4668 10.3617 15.4668C10.4486 15.4668 10.5349 15.4645 10.6206 15.4598C9.20886 14.0693 8.33366 12.1357 8.33366 9.9976ZM23.667 9.9976C23.667 12.1357 22.7918 14.0693 21.3801 15.4598C21.4658 15.4645 21.5521 15.4668 21.6389 15.4668C24.2318 15.4668 26.3337 13.3649 26.3337 10.7721C26.3337 8.52806 24.7592 6.65175 22.6547 6.18754C23.2988 7.30993 23.667 8.61076 23.667 9.9976Z" fill="#F04438"/>
</svg>
