<svg width="36" height="36" viewBox="0 0 36 36" fill="none" xmlns="http://www.w3.org/2000/svg">
<rect x="0.424419" y="0.424419" width="35.1512" height="35.1512" rx="7.57558" stroke="#002244" stroke-width="0.848837"/>
<path d="M22.5 8.25H13.5C12.1081 8.25149 10.7736 8.80509 9.78933 9.78933C8.80509 10.7736 8.25149 12.1081 8.25 13.5V22.5C8.25149 23.8919 8.80509 25.2264 9.78933 26.2107C10.7736 27.1949 12.1081 27.7485 13.5 27.75H22.5C23.8919 27.7485 25.2264 27.1949 26.2107 26.2107C27.1949 25.2264 27.7485 23.8919 27.75 22.5V13.5C27.7485 12.1081 27.1949 10.7736 26.2107 9.78933C25.2264 8.80509 23.8919 8.25149 22.5 8.25ZM18 22.5C17.11 22.5 16.24 22.2361 15.4999 21.7416C14.7599 21.2471 14.1831 20.5443 13.8425 19.7221C13.5019 18.8998 13.4128 17.995 13.5865 17.1221C13.7601 16.2492 14.1887 15.4474 14.818 14.818C15.4474 14.1887 16.2492 13.7601 17.1221 13.5865C17.995 13.4128 18.8998 13.5019 19.7221 13.8425C20.5443 14.1831 21.2471 14.7599 21.7416 15.4999C22.2361 16.24 22.5 17.11 22.5 18C22.4988 19.1931 22.0243 20.337 21.1806 21.1806C20.337 22.0243 19.1931 22.4988 18 22.5ZM23.625 13.5C23.4025 13.5 23.185 13.434 23 13.3104C22.815 13.1868 22.6708 13.0111 22.5856 12.8055C22.5005 12.6 22.4782 12.3738 22.5216 12.1555C22.565 11.9373 22.6722 11.7368 22.8295 11.5795C22.9868 11.4222 23.1873 11.315 23.4055 11.2716C23.6238 11.2282 23.85 11.2505 24.0555 11.3356C24.2611 11.4208 24.4368 11.565 24.5604 11.75C24.684 11.935 24.75 12.1525 24.75 12.375C24.75 12.6734 24.6315 12.9595 24.4205 13.1705C24.2095 13.3815 23.9234 13.5 23.625 13.5ZM21 18C21 18.5933 20.8241 19.1734 20.4944 19.6667C20.1648 20.1601 19.6962 20.5446 19.1481 20.7716C18.5999 20.9987 17.9967 21.0581 17.4147 20.9424C16.8328 20.8266 16.2982 20.5409 15.8787 20.1213C15.4591 19.7018 15.1734 19.1672 15.0576 18.5853C14.9419 18.0033 15.0013 17.4001 15.2284 16.8519C15.4554 16.3038 15.8399 15.8352 16.3333 15.5056C16.8266 15.1759 17.4067 15 18 15C18.7956 15 19.5587 15.3161 20.1213 15.8787C20.6839 16.4413 21 17.2044 21 18Z" fill="#002244"/>
</svg>
