<svg width="40" height="40" viewBox="0 0 40 40" fill="none" xmlns="http://www.w3.org/2000/svg">
<rect width="40" height="40" rx="6" fill="#FFFAEB"/>
<path fill-rule="evenodd" clip-rule="evenodd" d="M27.2945 10.3299C27.9223 10.4143 28.4891 10.6 28.9445 11.0555C29.4 11.511 29.5857 12.0777 29.6701 12.7055C29.75 13.3003 29.75 14.0495 29.75 14.948V20.0253C29.75 20.4697 29.75 20.8408 29.7292 21.1454C29.7076 21.4625 29.661 21.762 29.5407 22.0524C29.2616 22.7262 28.7262 23.2616 28.0524 23.5407C27.762 23.661 27.4625 23.7076 27.1454 23.7292C27.0232 23.7376 26.8904 23.7426 26.7465 23.7455C26.7409 24.3399 26.7263 24.8535 26.6883 25.3005C26.6251 26.0431 26.4933 26.6701 26.1891 27.2391C25.7463 28.0677 25.0677 28.7463 24.2391 29.1891C23.6701 29.4933 23.0431 29.6251 22.3005 29.6883C21.5745 29.75 20.6726 29.75 19.5344 29.75H18.9725C18.0639 29.75 17.3437 29.75 16.7603 29.7102C16.1643 29.6695 15.6564 29.5848 15.1823 29.3884C14.0184 28.9063 13.0937 27.9816 12.6116 26.8177C12.4152 26.3436 12.3305 25.8357 12.2898 25.2397C12.2612 24.8198 12.2531 24.3292 12.2509 23.7484C11.655 23.7442 11.1392 23.7284 10.7055 23.6701C10.0777 23.5857 9.51092 23.4 9.05545 22.9445C8.59998 22.4891 8.41433 21.9223 8.32993 21.2945C8.26 20.774 8.25125 20.1354 8.25015 19.382L8.25 14.9479C8.25 14.0495 8.25001 13.3003 8.32993 12.7055C8.41433 12.0777 8.59998 11.511 9.05545 11.0555C9.51092 10.6 10.0777 10.4143 10.7055 10.3299C11.2259 10.26 11.8646 10.2513 12.618 10.2502L25.0521 10.25C25.9505 10.25 26.6997 10.25 27.2945 10.3299ZM25.25 17.8781C24.3761 18.1869 23.75 19.0203 23.75 20V22C23.75 22.4142 23.4142 22.75 23 22.75C22.9532 22.7501 22.9145 22.7513 22.876 22.7534C21.691 22.8177 20.75 23.799 20.75 25C20.75 25.4142 20.4142 25.75 20 25.75C19.5858 25.75 19.25 25.4142 19.25 25C19.25 24.5617 19.3252 24.141 19.4634 23.75H13.7509C13.7532 24.3161 13.7608 24.763 13.7863 25.1376C13.8218 25.6572 13.8893 25.9828 13.9974 26.2437C14.3272 27.0401 14.9599 27.6728 15.7563 28.0026C16.0172 28.1107 16.3428 28.1782 16.8624 28.2137C17.2718 28.2416 17.7676 28.2481 18.4109 28.2496L20.1108 28.2496C20.9789 28.248 21.6375 28.2393 22.1734 28.1937C22.819 28.1387 23.2174 28.0344 23.532 27.8662C24.0989 27.5632 24.5632 27.0989 24.8662 26.532C25.0344 26.2174 25.1387 25.819 25.1937 25.1734C25.2393 24.6375 25.2479 23.9789 25.2496 23.1108L25.25 17.8781ZM19 14.75C17.7574 14.75 16.75 15.7574 16.75 17C16.75 18.2426 17.7573 19.25 19 19.25C20.2427 19.25 21.25 18.2426 21.25 17C21.25 15.7574 20.2426 14.75 19 14.75Z" fill="#FFCC33"/>
</svg>
