<svg width="24" height="24" viewBox="0 0 24 24" fill="none" xmlns="http://www.w3.org/2000/svg">
<path fill-rule="evenodd" clip-rule="evenodd" d="M20.2945 2.3299C20.9223 2.4143 21.4891 2.60001 21.9445 3.05548C22.4 3.51095 22.5857 4.07772 22.6701 4.70551C22.75 5.3003 22.75 6.04952 22.75 6.948V12.0253C22.75 12.4697 22.75 12.8408 22.7292 13.1454C22.7076 13.4625 22.661 13.762 22.5407 14.0524C22.2616 14.7262 21.7262 15.2616 21.0524 15.5407C20.762 15.661 20.4625 15.7076 20.1454 15.7292C20.0232 15.7376 19.8904 15.7426 19.7465 15.7455C19.7409 16.3399 19.7263 16.8535 19.6883 17.3005C19.6251 18.0431 19.4933 18.6701 19.1891 19.2391C18.7463 20.0677 18.0677 20.7463 17.2391 21.1891C16.6701 21.4933 16.0431 21.6251 15.3005 21.6883C14.5745 21.75 13.6726 21.75 12.5344 21.75H11.9725C11.0639 21.75 10.3437 21.75 9.76031 21.7102C9.1643 21.6695 8.65641 21.5848 8.18225 21.3884C7.01837 20.9063 6.09367 19.9816 5.61157 18.8177C5.41517 18.3436 5.33046 17.8357 5.28979 17.2397C5.26116 16.8198 5.25314 16.3292 5.25089 15.7484C4.65499 15.7442 4.13919 15.7284 3.70551 15.6701C3.07772 15.5857 2.51092 15.4 2.05545 14.9445C1.59998 14.4891 1.41433 13.9223 1.32993 13.2945C1.26 12.774 1.25125 12.1354 1.25015 11.382L1.25 6.94794C1.25 6.04949 1.25001 5.30028 1.32993 4.70551C1.41433 4.07772 1.59998 3.51095 2.05545 3.05548C2.51092 2.60001 3.07772 2.4143 3.70551 2.3299C4.22593 2.25997 4.86462 2.25128 5.61804 2.25018L18.0521 2.25C18.9505 2.25 19.6997 2.24998 20.2945 2.3299ZM18.25 9.87805C17.3761 10.1869 16.75 11.0203 16.75 12V14C16.75 14.4142 16.4142 14.75 16 14.75C15.9532 14.7501 15.9145 14.7513 15.876 14.7534C14.691 14.8177 13.75 15.799 13.75 17C13.75 17.4142 13.4142 17.75 13 17.75C12.5858 17.75 12.25 17.4142 12.25 17C12.25 16.5617 12.3252 16.141 12.4634 15.75H6.75095C6.7532 16.3161 6.76076 16.763 6.78632 17.1376C6.82178 17.6572 6.8893 17.9828 6.99738 18.2437C7.32724 19.0401 7.95995 19.6728 8.75629 20.0026C9.01721 20.1107 9.34279 20.1782 9.86243 20.2137C10.2718 20.2416 10.7676 20.2481 11.4109 20.2496L13.1108 20.2496C13.9789 20.248 14.6375 20.2393 15.1734 20.1937C15.819 20.1387 16.2174 20.0344 16.532 19.8662C17.0989 19.5632 17.5632 19.0989 17.8662 18.532C18.0344 18.2174 18.1387 17.819 18.1937 17.1734C18.2393 16.6375 18.2479 15.9789 18.2496 15.1108L18.25 9.87805ZM12 6.75C10.7574 6.75 9.75 7.75736 9.75 9C9.75 10.2426 10.7573 11.25 12 11.25C13.2427 11.25 14.25 10.2426 14.25 9C14.25 7.75736 13.2426 6.75 12 6.75Z" fill="#FFCC33"/>
</svg>
