<svg width="40" height="40" viewBox="0 0 40 40" fill="none" xmlns="http://www.w3.org/2000/svg">
<path fill-rule="evenodd" clip-rule="evenodd" d="M12.0837 11.6667C12.0837 7.29442 15.6281 3.75 20.0003 3.75C24.3725 3.75 27.917 7.29442 27.917 11.6667C27.917 16.0389 24.3725 19.5833 20.0003 19.5833C15.6281 19.5833 12.0837 16.0389 12.0837 11.6667ZM28.6657 24.4155C28.8337 24.514 29.0428 24.6302 29.281 24.7623L29.2818 24.7628C30.3361 25.3481 31.9554 26.2471 33.0642 27.3153C33.7567 27.9827 34.4392 28.8838 34.5638 30.0062C34.6973 31.2087 34.1602 32.3185 33.133 33.2818C31.3828 34.9232 29.2697 36.25 26.5323 36.25H13.4683C10.731 36.25 8.61784 34.923 6.8677 33.2818C5.8405 32.3185 5.30325 31.2087 5.43679 30.0062C5.5614 28.8838 6.244 27.9827 6.93649 27.3153C8.04532 26.247 9.66517 25.3477 10.7196 24.7624L10.72 24.7622C10.9579 24.6302 11.1671 24.514 11.335 24.4155C16.6403 21.306 23.3603 21.306 28.6657 24.4155ZM34.8795 8.02365C35.5108 7.35375 36.5657 7.32243 37.2355 7.95372L38.4815 9.12788L38.534 9.17732L38.535 9.17824C38.8192 9.44592 39.1416 9.74947 39.38 10.0437C39.6607 10.3905 40 10.9303 40 11.6667C40 12.403 39.6607 12.9428 39.38 13.2896C39.1416 13.5839 38.8191 13.8876 38.5348 14.1553L38.534 14.1561L38.4815 14.2054L37.2355 15.3796C36.5657 16.0109 35.5108 15.9796 34.8795 15.3097C34.576 14.9877 34.4258 14.5767 34.4258 14.1667V13.3333H31.6667C30.7462 13.3333 30 12.5871 30 11.6667C30 10.7462 30.7462 10 31.6667 10H34.4258V9.17728C34.4232 8.76368 34.5735 8.34842 34.8795 8.02365ZM2.7645 7.95372C3.4344 7.32243 4.4892 7.35375 5.12048 8.02365C5.42653 8.34842 5.57685 8.76368 5.57417 9.17728V10H8.33333C9.2538 10 10 10.7462 10 11.6667C10 12.5871 9.2538 13.3333 8.33333 13.3333H5.57417V14.1667C5.57423 14.5767 5.42392 14.9877 5.12048 15.3097C4.4892 15.9796 3.4344 16.0109 2.7645 15.3796L1.51849 14.2054L1.46603 14.156C1.18145 13.8882 0.858598 13.5842 0.620052 13.2896C0.339303 12.9428 0 12.403 0 11.6667C0 10.9303 0.339303 10.3905 0.620052 10.0437C0.8586 9.74912 1.18146 9.44518 1.46604 9.17728L1.51849 9.12788L2.7645 7.95372Z" fill="#141B34"/>
</svg>
