<svg width="31" height="37" viewBox="0 0 31 37" fill="none" xmlns="http://www.w3.org/2000/svg">
<path fill-rule="evenodd" clip-rule="evenodd" d="M20.4881 0.666687C16.9919 0.666687 13.7698 1.95876 11.1143 4.11914C10.4002 4.70003 10.2923 5.74977 10.8732 6.4638C11.4541 7.17784 12.5038 7.28577 13.2179 6.70488C15.3491 4.97103 17.8439 4.00002 20.4881 4.00002C23.1405 4.00002 25.6428 4.97714 27.7785 6.72134C28.4914 7.30358 29.5414 7.19763 30.1236 6.4847C30.7059 5.77177 30.5999 4.72183 29.887 4.13959C27.2267 1.96696 23.9954 0.666687 20.4881 0.666687ZM20.4881 7.6681C18.5302 7.6681 16.6939 8.24252 15.0894 9.23739C14.3071 9.72245 14.0661 10.7498 14.5512 11.5321C15.0363 12.3144 16.0636 12.5554 16.8459 12.0703C17.9649 11.3765 19.1985 11.0014 20.4881 11.0014C21.7841 11.0014 23.0237 11.3803 24.1472 12.0809C24.9283 12.568 25.9563 12.3296 26.4433 11.5486C26.9304 10.7675 26.6921 9.73951 25.911 9.25246C24.3008 8.24837 22.4559 7.6681 20.4881 7.6681ZM18.8327 15.6667C18.8327 14.7462 19.5789 14 20.4994 14H20.51C21.4305 14 22.1767 14.7462 22.1767 15.6667C22.1767 16.5872 21.4305 17.3334 20.51 17.3334H20.4994C19.5789 17.3334 18.8327 16.5872 18.8327 15.6667ZM8.93398 8.04558C8.79769 7.87797 8.59672 7.77059 8.38078 7.77628C7.52134 7.79893 6.75731 7.84454 6.08437 7.93638C4.68989 8.12669 3.50185 8.53616 2.55804 9.49419C1.67093 10.3947 1.264 11.5118 1.06422 12.8173L1.05056 12.9066L0.916016 30.3812L0.918555 30.4235C1.03558 32.372 1.36373 33.9826 2.55804 35.1949C3.50185 36.1529 4.68989 36.5624 6.08437 36.7527C7.42151 36.9352 9.11838 36.9351 11.2087 36.9351H11.3921C13.4824 36.9351 15.1792 36.9352 16.5164 36.7527C17.9108 36.5624 19.0989 36.1529 20.0427 35.1949C20.984 34.2394 21.3841 33.0408 21.5704 31.634C21.7497 30.2803 21.7497 28.5609 21.7496 26.4362V20.5615V20.5615C21.7496 20.1674 21.7496 19.9704 21.642 19.8714C21.5343 19.7723 21.3103 19.7911 20.8623 19.8286C20.7462 19.8383 20.6287 19.8433 20.5101 19.8433H20.4995C18.1983 19.8433 16.3328 17.9769 16.3328 15.6746V15.6745C16.3328 15.2737 16.3328 15.0732 16.2621 14.9828C16.2496 14.9667 16.245 14.9617 16.2304 14.9476C16.1475 14.8681 15.9478 14.8477 15.5484 14.807C14.3067 14.6805 13.1351 13.9994 12.4266 12.856C11.9506 12.088 11.7542 11.2255 11.8096 10.3877C11.8357 9.99278 11.8488 9.79532 11.7781 9.69783C11.7074 9.60034 11.5156 9.55136 11.1321 9.45339C10.2967 9.23997 9.51991 8.76617 8.93398 8.04558ZM11.3327 29.0145C10.4122 29.0145 9.66602 29.7611 9.66602 30.682C9.66602 31.6029 10.4122 32.3495 11.3327 32.3495H11.3477C12.2681 32.3495 13.0143 31.6029 13.0143 30.682C13.0143 29.7611 12.2681 29.0145 11.3477 29.0145H11.3327Z" fill="#002244"/>
</svg>
