<svg width="24" height="24" viewBox="0 0 24 24" fill="none" xmlns="http://www.w3.org/2000/svg">
<path fill-rule="evenodd" clip-rule="evenodd" d="M3 3C2.44772 3 2 3.44772 2 4C2 4.55228 2.44772 5 3 5H6C6.55229 5 7 4.55228 7 4C7 3.44772 6.55229 3 6 3H3ZM3 7C2.44772 7 2 7.44772 2 8C2 8.55228 2.44772 9 3 9H6C6.55229 9 7 8.55228 7 8C7 7.44772 6.55229 7 6 7H3ZM2 12C2 11.4477 2.44772 11 3 11H6C6.55229 11 7 11.4477 7 12C7 12.5523 6.55229 13 6 13H3C2.44772 13 2 12.5523 2 12ZM3 15C2.44772 15 2 15.4477 2 16C2 16.5523 2.44772 17 3 17H6C6.55229 17 7 16.5523 7 16C7 15.4477 6.55229 15 6 15H3ZM3 19C2.44772 19 2 19.4477 2 20C2 20.5523 2.44772 21 3 21H6C6.55229 21 7 20.5523 7 20C7 19.4477 6.55229 19 6 19H3ZM18 19C17.4477 19 17 19.4477 17 20C17 20.5523 17.4477 21 18 21H21C21.5523 21 22 20.5523 22 20C22 19.4477 21.5523 19 21 19H18ZM9.5 20C9.5 19.4477 9.94772 19 10.5 19H13.5C14.0523 19 14.5 19.4477 14.5 20C14.5 20.5523 14.0523 21 13.5 21H10.5C9.94772 21 9.5 20.5523 9.5 20ZM17 16C17 15.4477 17.4477 15 18 15H21C21.5523 15 22 15.4477 22 16C22 16.5523 21.5523 17 21 17H18C17.4477 17 17 16.5523 17 16ZM10.5 15C9.94772 15 9.5 15.4477 9.5 16C9.5 16.5523 9.94772 17 10.5 17H13.5C14.0523 17 14.5 16.5523 14.5 16C14.5 15.4477 14.0523 15 13.5 15H10.5ZM18 11C17.4477 11 17 11.4477 17 12C17 12.5523 17.4477 13 18 13H21C21.5523 13 22 12.5523 22 12C22 11.4477 21.5523 11 21 11H18ZM9.5 12C9.5 11.4477 9.94772 11 10.5 11H13.5C14.0523 11 14.5 11.4477 14.5 12C14.5 12.5523 14.0523 13 13.5 13H10.5C9.94772 13 9.5 12.5523 9.5 12ZM17 8C17 7.44772 17.4477 7 18 7H21C21.5523 7 22 7.44772 22 8C22 8.55228 21.5523 9 21 9H18C17.4477 9 17 8.55228 17 8Z" fill="#FFCC33"/>
</svg>
