<svg width="25" height="24" viewBox="0 0 25 24" fill="none" xmlns="http://www.w3.org/2000/svg">
<path fill-rule="evenodd" clip-rule="evenodd" d="M12.25 1.25C12.952 1.24997 13.7387 1.24993 14.239 1.30635C14.7785 1.36718 15.2876 1.50166 15.7507 1.8313C16.2109 2.15886 16.4952 2.58653 16.7195 3.06267C16.9297 3.50911 17.1206 4.07485 17.3436 4.73558L17.3656 4.80064C17.7496 4.82254 18.1048 4.8539 18.4326 4.89881C19.5539 5.05243 20.4663 5.37711 21.1852 6.10965C22.2771 7.22233 22.455 8.80912 22.4998 10.9845L22.5 10.9923V12.2568C22.0074 11.8961 21.5043 11.8079 21.2163 11.7822L20.3643 11.7952L19.7161 11.2264C19.4575 11.0436 18.9527 10.75 18.2502 10.75C17.5477 10.75 17.0429 11.0436 16.7843 11.2264L16.1362 11.7952L15.2841 11.7822C14.9706 11.8102 14.4019 11.9122 13.8696 12.3595C13.3373 12.8068 13.1389 13.3494 13.0573 13.6534L12.9172 14.5381L12.2369 15.0995C12.0183 15.3222 11.6564 15.762 11.5376 16.4373C11.4187 17.1125 11.6079 17.6495 11.7374 17.9334L12.1935 18.7062L12.0256 19.5928C11.9998 19.9049 12.0033 20.4777 12.3476 21.075C12.5165 21.368 12.7214 21.587 12.9197 21.75H10.2983C8.55415 21.75 7.16745 21.75 6.08103 21.6012C4.95972 21.4476 4.04737 21.1229 3.3285 20.3904C2.61155 19.6598 2.29553 18.7359 2.14567 17.6C1.99997 16.4958 1.99999 15.0851 2 13.3053V13.3053C1.99999 11.5256 1.99997 10.0042 2.14567 8.89997C2.29553 7.76413 2.61155 6.84022 3.3285 6.10965C4.04737 5.37711 4.95972 5.05243 6.08103 4.89881C6.40489 4.85444 6.75543 4.8233 7.13416 4.80144L7.15639 4.73559C7.37935 4.07485 7.57027 3.50911 7.78055 3.06267C8.00482 2.58653 8.28914 2.15886 8.7493 1.8313C9.21236 1.50166 9.72155 1.36718 10.261 1.30635C10.7613 1.24993 11.548 1.24997 12.25 1.25ZM9.15977 4.75176C9.52115 4.74999 9.90046 4.74999 10.2984 4.75H14.2153C14.6082 4.74999 14.9829 4.74999 15.3402 4.75169C15.2013 4.35484 15.0733 4.00984 14.9777 3.80681C14.8251 3.48287 14.7101 3.36036 14.6078 3.28755C14.5084 3.21681 14.3629 3.15111 14.0146 3.11184C13.6398 3.06957 13.0199 3.06809 12.25 3.06809C11.4801 3.06809 10.8602 3.06957 10.4854 3.11184C10.1371 3.15111 9.99158 3.21681 9.8922 3.28755C9.78992 3.36036 9.6749 3.48287 9.52232 3.80681C9.42669 4.00985 9.29866 4.35488 9.15977 4.75176ZM17.6498 12.4513C17.7765 12.3617 17.9788 12.25 18.2499 12.25C18.5211 12.25 18.7234 12.3617 18.8501 12.4513L19.8063 13.3109L21.0824 13.2762C21.2358 13.2899 21.46 13.3352 21.6655 13.5079C21.871 13.6806 21.9542 13.8936 21.9942 14.0424L22.1841 15.3371L23.1931 16.1507C23.2999 16.2594 23.4394 16.4366 23.4853 16.6973C23.5312 16.9581 23.4606 17.1723 23.3974 17.3109L22.721 18.4296L22.9797 19.716C22.9922 19.8685 22.986 20.0952 22.853 20.3258C22.7201 20.5565 22.527 20.6755 22.3888 20.741L21.1727 21.1532L20.5609 22.2982C20.4725 22.4254 20.3209 22.5989 20.0669 22.6915C19.8128 22.784 19.5851 22.7488 19.4356 22.7083L18.2499 22.2336L17.0642 22.7083C16.9147 22.7488 16.6871 22.784 16.433 22.6915C16.179 22.5989 16.0274 22.4254 15.939 22.2982L15.3272 21.1532L14.1111 20.741C13.9728 20.6755 13.7798 20.5565 13.6468 20.3258C13.5139 20.0952 13.5076 19.8685 13.5202 19.716L13.7788 18.4296L13.1025 17.3109C13.0393 17.1723 12.9687 16.9581 13.0146 16.6973C13.0605 16.4366 13.2 16.2594 13.3068 16.1507L14.3158 15.3371L14.5057 14.0424C14.5456 13.8936 14.6288 13.6806 14.8344 13.5079C15.0399 13.3352 15.264 13.2899 15.4174 13.2762L16.6935 13.3109L17.6498 12.4513Z" fill="#FFCC33"/>
</svg>
