<svg width="24" height="24" viewBox="0 0 24 24" fill="none" xmlns="http://www.w3.org/2000/svg">
<path fill-rule="evenodd" clip-rule="evenodd" d="M8.5 3.25C6.15279 3.25 4.25 5.15279 4.25 7.5C4.25 9.84721 6.15279 11.75 8.5 11.75C10.8472 11.75 12.75 9.84721 12.75 7.5C12.75 5.15279 10.8472 3.25 8.5 3.25ZM6.64286 13.25C3.72212 13.25 1.25 15.4492 1.25 18.2857C1.25 19.7021 2.47491 20.75 3.85714 20.75H10.1431C11.5573 20.75 12.2645 20.75 12.7038 20.3107C13.1431 19.8713 13.1431 19.1642 13.1431 17.75V15.7277C13.1431 14.8356 13.1431 14.3895 12.8049 13.9754C12.4667 13.5613 12.1467 13.496 11.5067 13.3656C11.135 13.2898 10.7503 13.25 10.3574 13.25H6.64286ZM18.75 12.75C19.3023 12.75 19.75 13.1977 19.75 13.75V15.75H21.75C22.3023 15.75 22.75 16.1977 22.75 16.75C22.75 17.3023 22.3023 17.75 21.75 17.75H19.75V19.75C19.75 20.3023 19.3023 20.75 18.75 20.75C18.1977 20.75 17.75 20.3023 17.75 19.75V17.75H15.75C15.1977 17.75 14.75 17.3023 14.75 16.75C14.75 16.1977 15.1977 15.75 15.75 15.75H17.75V13.75C17.75 13.1977 18.1977 12.75 18.75 12.75ZM13.5008 11.75C13.1561 11.75 12.8209 11.709 12.5 11.6315C13.5797 10.5862 14.2508 9.12147 14.2508 7.5C14.2508 5.87853 13.5797 4.41382 12.5 3.36851C12.8209 3.29104 13.1561 3.25 13.5008 3.25C15.848 3.25 17.7508 5.15279 17.7508 7.5C17.7508 9.84721 15.848 11.75 13.5008 11.75Z" fill="#FFCC33"/>
</svg>
