<svg width="25" height="24" viewBox="0 0 25 24" fill="none" xmlns="http://www.w3.org/2000/svg">
<path fill-rule="evenodd" clip-rule="evenodd" d="M14.1726 3.25H14.1725H11.0775H11.0774C9.23844 3.24999 7.79417 3.24998 6.65558 3.3786C5.49342 3.50988 4.551 3.78362 3.76763 4.40229C3.53311 4.58749 3.31568 4.79205 3.11798 5.0138C2.45181 5.76101 2.15432 6.66669 2.01263 7.77785C1.87498 8.85727 1.87499 10.2232 1.875 11.9472V11.9472V11.9473V12.0527V12.0528V12.0528C1.87499 13.7768 1.87498 15.1427 2.01263 16.2222C2.15432 17.3333 2.45181 18.239 3.11798 18.9862C3.31568 19.2079 3.53311 19.4125 3.76763 19.5977C4.551 20.2164 5.49342 20.4901 6.65558 20.6214C7.79417 20.75 9.23845 20.75 11.0775 20.75L11.926 20.75C12.7051 20.75 13.0947 20.75 13.1837 20.654C13.2727 20.558 13.2259 19.9355 13.1321 18.6904V18.6903V18.6903V18.6903C13.1274 18.6275 13.125 18.564 13.125 18.5C13.125 17.1193 14.2443 16 15.625 16H22.625C22.936 16 23.0915 16 23.1707 15.9419C23.1924 15.9259 23.205 15.9141 23.2224 15.8935C23.2858 15.8184 23.2943 15.6944 23.3111 15.4463C23.375 14.5076 23.375 13.3875 23.375 12.0528V11.9473C23.375 10.2232 23.375 8.85727 23.2374 7.77785C23.0957 6.66669 22.7982 5.76101 22.132 5.0138C21.9343 4.79205 21.7169 4.58749 21.4824 4.40229C20.699 3.78362 19.7566 3.50988 18.5944 3.3786C17.4558 3.24998 16.0116 3.24999 14.1726 3.25ZM15.625 12C15.625 13.6569 14.2819 15 12.625 15C10.9681 15 9.625 13.6569 9.625 12C9.625 10.3431 10.9681 9 12.625 9C14.2819 9 15.625 10.3431 15.625 12ZM6.12617 11C6.67846 11 7.12617 11.4477 7.12617 12C7.12617 12.5523 6.67846 13 6.12617 13H6.11719C5.5649 13 5.11719 12.5523 5.11719 12C5.11719 11.4477 5.5649 11 6.11719 11H6.12617ZM15.625 17.5C15.0727 17.5 14.625 17.9477 14.625 18.5C14.625 19.0523 15.0727 19.5 15.625 19.5H22.625C23.1773 19.5 23.625 19.0523 23.625 18.5C23.625 17.9477 23.1773 17.5 22.625 17.5H15.625Z" fill="#FFCC33"/>
</svg>
