<svg width="36" height="36" viewBox="0 0 36 36" fill="none" xmlns="http://www.w3.org/2000/svg">
<rect x="0.424419" y="0.424419" width="35.1512" height="35.1512" rx="7.57558" stroke="#002244" stroke-width="0.848837"/>
<path d="M26.25 8.25H9.75C9.35218 8.25 8.97064 8.40804 8.68934 8.68934C8.40804 8.97064 8.25 9.35218 8.25 9.75V26.25C8.25 26.6478 8.40804 27.0294 8.68934 27.3107C8.97064 27.592 9.35218 27.75 9.75 27.75H26.25C26.6478 27.75 27.0294 27.592 27.3107 27.3107C27.592 27.0294 27.75 26.6478 27.75 26.25V9.75C27.75 9.35218 27.592 8.97064 27.3107 8.68934C27.0294 8.40804 26.6478 8.25 26.25 8.25ZM15 22.5C15 22.6989 14.921 22.8897 14.7803 23.0303C14.6397 23.171 14.4489 23.25 14.25 23.25C14.0511 23.25 13.8603 23.171 13.7197 23.0303C13.579 22.8897 13.5 22.6989 13.5 22.5V16.5C13.5 16.3011 13.579 16.1103 13.7197 15.9697C13.8603 15.829 14.0511 15.75 14.25 15.75C14.4489 15.75 14.6397 15.829 14.7803 15.9697C14.921 16.1103 15 16.3011 15 16.5V22.5ZM14.25 15C14.0275 15 13.81 14.934 13.625 14.8104C13.44 14.6868 13.2958 14.5111 13.2106 14.3055C13.1255 14.1 13.1032 13.8738 13.1466 13.6555C13.19 13.4373 13.2972 13.2368 13.4545 13.0795C13.6118 12.9222 13.8123 12.815 14.0305 12.7716C14.2488 12.7282 14.475 12.7505 14.6805 12.8356C14.8861 12.9208 15.0618 13.065 15.1854 13.25C15.309 13.435 15.375 13.6525 15.375 13.875C15.375 14.1734 15.2565 14.4595 15.0455 14.6705C14.8345 14.8815 14.5484 15 14.25 15ZM23.25 22.5C23.25 22.6989 23.171 22.8897 23.0303 23.0303C22.8897 23.171 22.6989 23.25 22.5 23.25C22.3011 23.25 22.1103 23.171 21.9697 23.0303C21.829 22.8897 21.75 22.6989 21.75 22.5V19.125C21.75 18.6277 21.5525 18.1508 21.2008 17.7992C20.8492 17.4475 20.3723 17.25 19.875 17.25C19.3777 17.25 18.9008 17.4475 18.5492 17.7992C18.1975 18.1508 18 18.6277 18 19.125V22.5C18 22.6989 17.921 22.8897 17.7803 23.0303C17.6397 23.171 17.4489 23.25 17.25 23.25C17.0511 23.25 16.8603 23.171 16.7197 23.0303C16.579 22.8897 16.5 22.6989 16.5 22.5V16.5C16.5009 16.3163 16.5693 16.1393 16.692 16.0026C16.8148 15.866 16.9834 15.7791 17.166 15.7585C17.3485 15.7379 17.5323 15.7851 17.6824 15.891C17.8325 15.9969 17.9385 16.1542 17.9803 16.3331C18.4877 15.9889 19.0792 15.7895 19.6914 15.7561C20.3036 15.7228 20.9133 15.8568 21.455 16.1438C21.9968 16.4308 22.4501 16.86 22.7664 17.3852C23.0826 17.9105 23.2498 18.5119 23.25 19.125V22.5Z" fill="#002244"/>
</svg>
