<svg width="20" height="20" viewBox="0 0 20 20" fill="none" xmlns="http://www.w3.org/2000/svg">
<path fill-rule="evenodd" clip-rule="evenodd" d="M4.5 2.25C4.5 3.49264 3.49264 4.5 2.25 4.5C1.00736 4.5 0 3.49264 0 2.25C0 1.00736 1.00736 0 2.25 0C3.49264 0 4.5 1.00736 4.5 2.25ZM0 7.5L0 20H4.5L4.5 7.5L0 7.5ZM7.5 7.5L12.0001 7.5V9.17395C12.7767 8.15309 13.9649 7.50024 15.2968 7.50024C17.6364 7.50024 20.0001 9.51496 20.0001 12.0002L19.9987 20H15.5L15.5 13.7502C15.5 12.7837 14.7165 12.0002 13.75 12.0002C12.7835 12.0002 12.0001 12.7837 12.0001 13.7502L12.0001 20H7.5L7.5 7.5Z" fill="white"/>
</svg>
