<svg width="36" height="40" viewBox="0 0 36 40" fill="none" xmlns="http://www.w3.org/2000/svg">
<path d="M30 0C31.5913 0 33.1174 0.632141 34.2426 1.75736C35.3679 2.88258 36 4.4087 36 6V34C36 35.5913 35.3679 37.1174 34.2426 38.2426C33.1174 39.3679 31.5913 40 30 40H6C4.4087 40 2.88258 39.3679 1.75736 38.2426C0.632141 37.1174 0 35.5913 0 34V6C0 4.4087 0.632141 2.88258 1.75736 1.75736C2.88258 0.632141 4.4087 0 6 0H30ZM10 30C9.46957 30 8.96086 30.2107 8.58579 30.5858C8.21071 30.9609 8 31.4696 8 32L8.014 32.254C8.07421 32.7602 8.32543 33.2243 8.71634 33.5515C9.10724 33.8787 9.60833 34.0442 10.1172 34.0143C10.6261 33.9845 11.1044 33.7614 11.4543 33.3907C11.8042 33.0201 11.9994 32.5298 12 32.02L11.986 31.766C11.9287 31.2795 11.6948 30.8309 11.3287 30.5054C10.9627 30.1799 10.4899 30.0001 10 30ZM18 30C17.4696 30 16.9609 30.2107 16.5858 30.5858C16.2107 30.9609 16 31.4696 16 32L16.014 32.254C16.0742 32.7602 16.3254 33.2243 16.7163 33.5515C17.1072 33.8787 17.6083 34.0442 18.1172 34.0143C18.6261 33.9845 19.1044 33.7614 19.4543 33.3907C19.8042 33.0201 19.9994 32.5298 20 32.02L19.986 31.766C19.9287 31.2795 19.6948 30.8309 19.3287 30.5054C18.9627 30.1799 18.4899 30.0001 18 30ZM26 30C25.4696 30 24.9609 30.2107 24.5858 30.5858C24.2107 30.9609 24 31.4696 24 32L24.014 32.254C24.0742 32.7602 24.3254 33.2243 24.7163 33.5515C25.1072 33.8787 25.6083 34.0442 26.1172 34.0143C26.6261 33.9845 27.1044 33.7614 27.4543 33.3907C27.8042 33.0201 27.9994 32.5298 28 32.02L27.986 31.766C27.9287 31.2795 27.6948 30.8309 27.3287 30.5054C26.9627 30.1799 26.4899 30.0001 26 30ZM10 22C9.46957 22 8.96086 22.2107 8.58579 22.5858C8.21071 22.9609 8 23.4696 8 24L8.014 24.254C8.07421 24.7602 8.32543 25.2243 8.71634 25.5515C9.10724 25.8787 9.60833 26.0442 10.1172 26.0143C10.6261 25.9845 11.1044 25.7614 11.4543 25.3907C11.8042 25.0201 11.9994 24.5298 12 24.02L11.986 23.766C11.9287 23.2795 11.6948 22.8309 11.3287 22.5054C10.9627 22.1799 10.4899 22.0001 10 22ZM18 22C17.4696 22 16.9609 22.2107 16.5858 22.5858C16.2107 22.9609 16 23.4696 16 24L16.014 24.254C16.0742 24.7602 16.3254 25.2243 16.7163 25.5515C17.1072 25.8787 17.6083 26.0442 18.1172 26.0143C18.6261 25.9845 19.1044 25.7614 19.4543 25.3907C19.8042 25.0201 19.9994 24.5298 20 24.02L19.986 23.766C19.9287 23.2795 19.6948 22.8309 19.3287 22.5054C18.9627 22.1799 18.4899 22.0001 18 22ZM26 22C25.4696 22 24.9609 22.2107 24.5858 22.5858C24.2107 22.9609 24 23.4696 24 24L24.014 24.254C24.0742 24.7602 24.3254 25.2243 24.7163 25.5515C25.1072 25.8787 25.6083 26.0442 26.1172 26.0143C26.6261 25.9845 27.1044 25.7614 27.4543 25.3907C27.8042 25.0201 27.9994 24.5298 28 24.02L27.986 23.766C27.9287 23.2795 27.6948 22.8309 27.3287 22.5054C26.9627 22.1799 26.4899 22.0001 26 22ZM24 8H12C10.9391 8 9.92172 8.42143 9.17157 9.17157C8.42143 9.92172 8 10.9391 8 12V14C8 15.0609 8.42143 16.0783 9.17157 16.8284C9.92172 17.5786 10.9391 18 12 18H24C25.0609 18 26.0783 17.5786 26.8284 16.8284C27.5786 16.0783 28 15.0609 28 14V12C28 10.9391 27.5786 9.92172 26.8284 9.17157C26.0783 8.42143 25.0609 8 24 8Z" fill="#F04438"/>
</svg>
