<svg width="44" height="42" viewBox="0 0 44 42" fill="none" xmlns="http://www.w3.org/2000/svg">
<path fill-rule="evenodd" clip-rule="evenodd" d="M26.3 0.5H17.7C9.59184 0.5 5.53776 0.5 3.01888 3.02813C0.5 5.55626 0.5 9.62523 0.5 17.7632V18.8421C0.5 26.98 0.5 31.049 3.01888 33.5771C4.18076 34.7433 5.81471 35.5214 7.92731 35.9117C8.57616 36.0315 8.90058 36.0914 9.04149 36.2949C9.18239 36.4984 9.12453 36.8223 9.00879 37.4703C8.72861 39.0388 8.77287 40.457 9.77874 41.2089C10.8329 41.9786 12.5127 41.1565 15.8722 39.5123C16.2443 39.3302 16.6178 39.1435 16.9919 38.9565L16.9976 38.9537C18.9922 37.9567 21.0248 36.9407 23.1924 36.4398C24.1352 36.2242 25.095 36.1322 26.3 36.1053C34.4082 36.1053 38.4622 36.1053 40.9811 33.5771C43.5 31.049 43.5 26.98 43.5 18.8421V17.7632C43.5 9.62523 43.5 5.55626 40.9811 3.02813C38.4622 0.5 34.4082 0.5 26.3 0.5ZM31.5 24C31.5 24.8284 30.8284 25.5 30 25.5H14C13.1716 25.5 12.5 24.8284 12.5 24C12.5 23.1716 13.1716 22.5 14 22.5H30C30.8284 22.5 31.5 23.1716 31.5 24ZM23.5 14C23.5 14.8284 22.8284 15.5 22 15.5H14C13.1716 15.5 12.5 14.8284 12.5 14C12.5 13.1716 13.1716 12.5 14 12.5H22C22.8284 12.5 23.5 13.1716 23.5 14Z" fill="#F79009"/>
</svg>
