<svg width="81" height="81" viewBox="0 0 81 81" fill="none" xmlns="http://www.w3.org/2000/svg">
<rect x="0.5" y="0.5" width="80" height="80" rx="40" fill="#FFCC33"/>
<path fill-rule="evenodd" clip-rule="evenodd" d="M40.5031 19C32.8508 19 25.5501 23.5261 22.4943 30.6694C19.6504 37.3173 21.1899 42.9746 24.3954 47.8191C27.0235 51.7909 30.8567 55.3356 34.3148 58.5336L34.3152 58.5339L34.3165 58.5351C34.9754 59.1444 35.6206 59.7411 36.2413 60.3258L36.2446 60.3289C37.3947 61.4057 38.9223 62 40.5031 62C42.0838 62 43.6116 61.4056 44.7616 60.3288C45.3487 59.7791 45.9571 59.2185 46.5779 58.6465L46.5781 58.6463L46.5781 58.6463C50.074 55.4253 53.9608 51.8441 56.6165 47.8217C59.8181 42.9723 61.3523 37.3091 58.5119 30.6694C55.4561 23.5261 48.1554 19 40.5031 19ZM40.5 30.5C36.0817 30.5 32.5 34.0817 32.5 38.5C32.5 42.9183 36.0817 46.5 40.5 46.5C44.9183 46.5 48.5 42.9183 48.5 38.5C48.5 34.0817 44.9183 30.5 40.5 30.5Z" fill="#002244"/>
</svg>
