<svg width="110" height="46" viewBox="0 0 110 46" fill="none" xmlns="http://www.w3.org/2000/svg">
<g clip-path="url(#clip0_448_13872)">
<path fill-rule="evenodd" clip-rule="evenodd" d="M51.9407 8.21826H63.8488V9.86236H59.5231V25.504H56.262V9.86236H51.9407V8.21826ZM68.3814 12.6339H64.765V14.2538H66.6902L66.8557 14.278C66.9921 14.3191 67.1249 14.3703 67.2539 14.4306C67.4205 14.5078 67.5781 14.6034 67.7234 14.7161C67.8936 14.8515 68.0304 15.0245 68.1228 15.2213C68.2342 15.4476 68.2902 15.697 68.287 15.9492C68.287 16.9196 68.2795 17.413 68.2641 17.4291L67.7234 17.4762C67.261 17.5295 66.805 17.6279 66.3618 17.7703C65.7905 17.9437 65.2328 18.1593 64.6935 18.4154C64.0924 18.7124 63.5606 19.1325 63.1323 19.6484C62.6551 20.2027 62.3279 20.8699 62.1817 21.5864C62.0244 22.1911 62.0244 22.8257 62.1817 23.4304C62.3103 23.9336 62.5753 24.3914 62.9482 24.7533C63.315 25.0909 63.7415 25.3572 64.2054 25.5396C64.675 25.7322 65.1776 25.832 65.6853 25.8337C66.1767 25.8352 66.6644 25.7557 67.1296 25.5982C67.5624 25.4605 67.9544 25.2183 68.2714 24.8931V25.504H71.5353V16.1331C71.5331 15.9567 71.5218 15.7804 71.501 15.6052C71.4718 15.365 71.4283 15.1266 71.3712 14.8916C71.3028 14.6102 71.1921 14.3406 71.0431 14.0923C70.8896 13.8323 70.704 13.5924 70.4908 13.3787C70.2444 13.1457 69.9532 12.9659 69.6343 12.8508C69.2365 12.703 68.8145 12.6314 68.3901 12.6395L68.3817 12.6338L68.3814 12.6339ZM68.264 23.623C68.2216 23.8504 68.0956 24.0538 67.9117 24.1938C67.7013 24.3807 67.4446 24.5076 67.1684 24.5614C66.8923 24.6152 66.6066 24.5936 66.3418 24.4993C65.4853 24.2481 65.0863 23.4103 65.1445 21.9861C65.1636 21.4087 65.2995 20.8412 65.5439 20.3178C65.7236 19.9101 65.9829 19.5428 66.3076 19.2374C66.7991 18.8415 67.3663 18.5501 67.9743 18.3811L68.2914 18.3211L68.2685 23.6302L68.2641 23.623H68.264ZM79.3731 24.1938L79.9367 24.592C79.9104 24.6388 79.8788 24.6823 79.8424 24.7219C79.7525 24.8219 79.6571 24.9172 79.5572 25.0072C79.4084 25.1407 79.247 25.2587 79.0747 25.3598C78.8595 25.4808 78.6312 25.5766 78.3941 25.6451C78.1047 25.7318 77.8041 25.775 77.5021 25.7736C77.0854 25.7769 76.6705 25.7217 76.2691 25.6094C75.8776 25.496 75.508 25.3175 75.1758 25.0814C74.8079 24.8067 74.5271 24.4316 74.3665 24.001C74.1587 23.458 74.0586 22.8797 74.0728 22.2985V13.6442H72.0918V12.6095H74.1126C74.6511 12.0657 75.0603 11.4077 75.3101 10.6843C75.439 10.2153 75.7409 9.8124 76.1549 9.55687C76.5009 9.31563 76.908 9.17718 77.3293 9.15717V12.6338H79.7557V13.644H77.3293V21.6519C77.3293 21.7303 77.3293 21.8245 77.3181 21.9372C77.3065 22.0499 77.3181 22.254 77.3293 22.5595C77.342 22.8397 77.3775 23.1184 77.435 23.3929C77.4925 23.6499 77.5919 23.8958 77.7287 24.1208C77.8439 24.3347 78.0378 24.4952 78.2698 24.5675C78.4853 24.6447 78.7193 24.6526 78.9391 24.5903C79.0794 24.5471 79.1995 24.4555 79.2788 24.3319L79.3731 24.1893V24.1935V24.1938ZM90.8117 12.6339V25.504H87.5462V23.249C87.5306 23.3119 87.5079 23.3918 87.4763 23.5074C87.4036 23.7055 87.3134 23.8964 87.2064 24.0782C87.0638 24.3435 86.8854 24.5884 86.6772 24.8061C86.4215 25.0531 86.1234 25.2519 85.7965 25.3926C85.3938 25.5768 84.9551 25.669 84.5122 25.6624C82.0234 25.6624 80.7787 24.3551 80.7787 21.7407V12.6341H84.0427V19.627C84.0427 21.5527 84.1679 22.8486 84.4179 23.5146C84.6683 24.1807 85.1231 24.4508 85.7823 24.3252C86.0793 24.2781 86.3774 24.0597 86.6745 23.6687C86.9483 23.3188 87.17 22.9309 87.3324 22.517L87.5434 21.9775V12.6341H90.8117V12.6339ZM105.701 12.6339C106.168 12.6284 106.632 12.6997 107.075 12.8451C107.443 12.9605 107.786 13.1435 108.086 13.3846C108.337 13.5968 108.558 13.8421 108.744 14.1138C108.913 14.3579 109.047 14.6245 109.142 14.9059C109.222 15.1489 109.289 15.396 109.342 15.6466C109.382 15.8199 109.406 15.9966 109.413 16.1746L109.436 16.3858V25.4982H106.17V18.5294C106.17 16.5865 106.045 15.2825 105.795 14.6175C105.545 13.9525 105.09 13.6828 104.433 13.8084C104.187 13.8702 103.963 14.0002 103.787 14.1837C103.564 14.4034 103.378 14.6573 103.235 14.9358C103.079 15.2326 102.961 15.4681 102.884 15.6395C102.813 15.7927 102.75 15.9494 102.695 16.1089V25.504H99.4298V18.5294C99.4298 16.5865 99.3084 15.2825 99.0659 14.6175C98.8235 13.9525 98.3657 13.6828 97.693 13.8084C97.3949 13.8555 97.0978 14.0782 96.7997 14.4777C96.5308 14.8276 96.3097 15.2115 96.1418 15.6195L95.9303 16.159V25.5068H92.6664V12.6339H95.9303V14.8887C95.946 14.8416 95.9705 14.7673 96.0017 14.6646C96.076 14.4737 96.1661 14.2893 96.2716 14.1137C96.5707 13.5412 97.073 13.1013 97.6801 12.8807C98.0867 12.7108 98.5239 12.6269 98.9645 12.6338C100.749 12.6338 101.908 13.4244 102.441 15.0056C102.551 14.7555 102.685 14.5166 102.841 14.2922C103.031 14.0242 103.242 13.7725 103.474 13.54C103.752 13.2582 104.083 13.0348 104.449 12.8836C104.845 12.7155 105.271 12.6306 105.701 12.6339H105.701Z" fill="#002244"/>
<path fill-rule="evenodd" clip-rule="evenodd" d="M86.1178 31.9132C86.1435 31.9132 86.1846 31.9132 86.2404 31.9132C86.3458 31.9284 86.4499 31.9523 86.5515 31.9845C86.6984 32.0274 86.8415 32.0819 86.9795 32.1472C87.145 32.2291 87.2994 32.3313 87.4394 32.4512C87.607 32.5919 87.7513 32.7579 87.8675 32.9435C88.0046 33.173 88.1072 33.4219 88.1714 33.6813C88.2559 34.0074 88.2972 34.3433 88.294 34.6803C88.2997 35.0222 88.238 35.3615 88.1128 35.6795C88.0115 35.9456 87.8624 36.1913 87.6734 36.4044C87.4913 36.597 87.2789 36.759 87.0452 36.8839C86.6458 37.1131 86.2069 37.2648 85.751 37.3305C85.53 37.3648 85.3799 37.3849 85.2971 37.3891C85.2144 37.3934 85.1545 37.3891 85.1102 37.3891H81.5737V27.8744C83.4898 27.8572 84.7458 27.8486 85.3415 27.8486C85.6696 27.8504 85.9926 27.9276 86.286 28.0742C86.6117 28.2375 86.8884 28.4836 87.0881 28.7878C87.3169 29.1278 87.4344 29.5301 87.4251 29.9395C87.4257 30.2029 87.3772 30.4643 87.2823 30.7102C87.2093 30.9182 87.0996 31.1116 86.9583 31.281C86.8434 31.4139 86.7158 31.5352 86.5774 31.6434C86.4752 31.7262 86.362 31.7939 86.2406 31.8446L86.1107 31.9088L86.1179 31.9131L86.1178 31.9132ZM83.3804 31.4464C83.9751 31.4378 84.4508 31.4336 84.8078 31.4336C84.9698 31.4265 85.1287 31.3874 85.2758 31.3186C85.4227 31.2499 85.5548 31.1525 85.6639 31.0325C85.7966 30.9085 85.9024 30.7582 85.9733 30.591C86.0448 30.4238 86.0803 30.2437 86.0777 30.062C86.0893 29.8774 86.0607 29.6923 85.9935 29.5198C85.9264 29.3474 85.8227 29.1915 85.6896 29.0631C85.4622 28.8455 85.1722 28.7051 84.8603 28.662C84.7561 28.6534 84.5749 28.6492 84.3296 28.6492H83.6661L83.3805 28.662V31.4464H83.3804ZM84.7662 36.7027C84.8174 36.6941 84.8847 36.6854 84.9659 36.677C85.114 36.647 85.2577 36.5992 85.3941 36.5344C85.5956 36.4515 85.7834 36.3385 85.9507 36.1989C86.1441 36.0186 86.2949 35.7972 86.3917 35.551C86.5273 35.2229 86.5933 34.8699 86.5858 34.5149C86.5917 34.1632 86.5367 33.8131 86.4231 33.4801C86.3438 33.2267 86.2114 32.9925 86.035 32.7939C85.8586 32.6038 85.6454 32.452 85.4085 32.3472C85.1713 32.2425 84.9154 32.1871 84.6564 32.1845H83.3719V36.703H84.7662V36.7027ZM92.5655 30.3076C92.7997 30.303 93.0328 30.3427 93.2519 30.4247C93.4274 30.4861 93.5885 30.5835 93.7243 30.7102C93.8421 30.8282 93.9444 30.9611 94.0283 31.1054C94.111 31.2416 94.1723 31.3898 94.2094 31.545C94.2409 31.6751 94.2648 31.8073 94.2809 31.9401C94.2927 32.035 94.2991 32.1302 94.3008 32.2256V37.3904H92.494V37.0535C92.3198 37.2326 92.1039 37.3659 91.8662 37.4416C91.6094 37.5287 91.3407 37.5725 91.0698 37.5716C90.7899 37.5706 90.5127 37.5159 90.2532 37.4103C89.9984 37.3111 89.7638 37.1662 89.5613 36.9823C89.3559 36.7819 89.2102 36.5284 89.1402 36.2503C89.0544 35.9168 89.0544 35.5675 89.1402 35.2341C89.221 34.8419 89.3997 34.4767 89.6598 34.1722C89.8936 33.8873 90.1854 33.6557 90.516 33.4927C90.8133 33.3511 91.1202 33.2321 91.435 33.1361C91.6794 33.058 91.931 33.004 92.1858 32.9746L92.4839 32.9492C92.4925 32.9403 92.4969 32.6636 92.4969 32.1328C92.4988 31.9937 92.4677 31.8562 92.4057 31.7317C92.3566 31.6201 92.2812 31.5221 92.1858 31.4462C92.1056 31.3851 92.0192 31.3329 91.9276 31.2908C91.8558 31.2577 91.7819 31.2295 91.7061 31.2065L91.6164 31.1937H90.5545V30.3003L92.5652 30.3075L92.5655 30.3076ZM92.5014 36.3674L92.5142 33.4401L92.3384 33.473C92.2006 33.5073 92.0665 33.5552 91.9374 33.6158C91.7501 33.698 91.5756 33.8071 91.4192 33.94C91.2406 34.108 91.0975 34.3104 90.9985 34.535C90.8645 34.824 90.7896 35.137 90.7786 35.4553C90.7443 36.2404 90.9644 36.7018 91.4394 36.8398C91.5857 36.8934 91.744 36.9059 91.8967 36.8759C92.0496 36.8464 92.1915 36.7755 92.3073 36.6712C92.4076 36.5951 92.4766 36.4851 92.5014 36.3614V36.3673V36.3674ZM99.2388 30.3076C99.5002 30.3037 99.7607 30.3433 100.009 30.4247C100.21 30.4872 100.397 30.588 100.56 30.7215C100.696 30.8413 100.818 30.9763 100.923 31.1239C101.02 31.2581 101.096 31.4064 101.148 31.5635C101.193 31.6973 101.229 31.8334 101.258 31.9716C101.281 32.0652 101.294 32.1608 101.298 32.2569V37.3948H99.4912V33.557C99.4912 32.4866 99.4241 31.7684 99.2898 31.4021C99.1558 31.0354 98.9046 30.8855 98.5323 30.9553C98.3271 31.0106 98.1515 31.1424 98.0412 31.3236C97.8928 31.5156 97.7708 31.7269 97.6787 31.9514L97.5618 32.2497V37.4016H95.7624V30.3073H97.5618V31.5504C97.5705 31.5246 97.583 31.4834 97.6004 31.4276C97.6408 31.3219 97.691 31.2201 97.75 31.1236C97.915 30.8077 98.192 30.5648 98.5267 30.4429C98.7494 30.348 98.9893 30.2994 99.2315 30.3001L99.2387 30.3073L99.2388 30.3076ZM109.24 37.4019H107.285L105.615 33.57C105.397 33.6822 105.192 33.8213 105.007 33.9838C104.876 34.0943 104.759 34.2204 104.658 34.3593L104.566 34.5018V37.4017H102.76V27.8742H104.559V33.6014C104.562 33.587 104.569 33.5737 104.579 33.563L104.669 33.4461C104.723 33.3794 104.781 33.3168 104.845 33.2589C104.942 33.1714 105.049 33.0938 105.161 33.0265C105.316 32.9287 105.479 32.8419 105.647 32.7668C105.828 32.6852 105.994 32.5737 106.139 32.4371C106.275 32.312 106.394 32.1678 106.489 32.0088C106.574 31.8581 106.649 31.7022 106.715 31.5423C106.778 31.3966 106.826 31.245 106.858 31.0897C106.884 30.9469 106.904 30.8172 106.917 30.7016C106.927 30.6092 106.934 30.5164 106.935 30.4234V30.3191H108.14C108.155 30.8682 108.058 31.4146 107.854 31.9246C107.643 32.3913 107.286 32.7772 106.838 33.025L109.24 37.402L109.24 37.4019Z" fill="#002244"/>
<path fill-rule="evenodd" clip-rule="evenodd" d="M0.690628 21.4363C-0.560995 15.1567 -0.0643859 9.32131 2.40304 3.45432C7.89622 0.90412 14.6254 0.423003 20.5223 1.57154C22.0137 8.40949 20.8076 15.0029 18.7083 19.624C13.2868 22.3125 6.57207 22.6548 0.690628 21.438V21.4365V21.4363Z" fill="#FFCC33"/>
<path fill-rule="evenodd" clip-rule="evenodd" d="M0.662183 24.6101C-0.589439 30.8897 -0.0928229 36.7255 2.37461 42.5925C7.87079 45.1454 14.5984 45.6266 20.4996 44.4774C21.9909 37.6401 20.7849 31.0465 18.6856 26.4254C13.2624 23.7369 6.55506 23.3941 0.667753 24.6114L0.662029 24.6099L0.662183 24.6101Z" fill="#FFCC33"/>
<path fill-rule="evenodd" clip-rule="evenodd" d="M43.6861 24.6233C44.9378 30.9029 44.4412 36.7399 41.9737 42.6053C36.478 45.1586 29.7505 45.6397 23.8487 44.4906C22.3574 37.6533 23.5634 31.0614 25.6627 26.4403C31.0859 23.7497 37.7939 23.4073 43.681 24.6248L43.6863 24.6231L43.6861 24.6233Z" fill="#FFCC33"/>
<path fill-rule="evenodd" clip-rule="evenodd" d="M43.6251 21.375C44.8767 15.0958 44.3801 9.25996 41.9126 3.39297C36.4196 0.841112 29.6848 0.3606 23.7934 1.50914C22.302 8.34649 23.5081 14.939 25.6074 19.561C31.0306 22.2501 37.7379 22.5923 43.6251 21.375Z" fill="#002244"/>
</g>
<defs>
<clipPath id="clip0_448_13872">
<rect width="109.436" height="44.16" fill="white" transform="translate(0 0.919922)"/>
</clipPath>
</defs>
</svg>
