<svg width="40" height="40" viewBox="0 0 40 40" fill="none" xmlns="http://www.w3.org/2000/svg">
<path opacity="0.4" fill-rule="evenodd" clip-rule="evenodd" d="M33.3327 36.667V28.3337C33.3327 25.191 33.3327 23.6196 32.3564 22.6433C31.3801 21.667 29.8087 21.667 26.666 21.667L19.9993 36.667H33.3327ZM6.66602 36.667H19.9993L13.3327 21.667C10.19 21.667 8.61864 21.667 7.64233 22.6433C6.66602 23.6196 6.66602 25.191 6.66602 28.3337L6.66602 36.667ZM25.8327 9.16699V10.8337C25.8327 14.0553 23.221 16.667 19.9993 16.667C16.7777 16.667 14.166 14.0553 14.166 10.8337V9.16699C14.166 5.94533 16.7777 3.33366 19.9993 3.33366C23.221 3.33366 25.8327 5.94533 25.8327 9.16699Z" fill="#FFCC33"/>
<path fill-rule="evenodd" clip-rule="evenodd" d="M13.246 20.417L13.3327 20.417C13.8267 20.417 14.2743 20.7079 14.475 21.1593L18.1782 29.4916L18.7121 25.2208L17.2147 22.226C17.0209 21.8385 17.0416 21.3783 17.2694 21.0098C17.4971 20.6413 17.8995 20.417 18.3327 20.417L21.666 20.417C22.0992 20.417 22.5016 20.6413 22.7293 21.0098C22.9571 21.3783 22.9778 21.8385 22.7841 22.226L21.2866 25.2208L21.8205 29.4917L25.5238 21.1593C25.7244 20.7079 26.172 20.417 26.666 20.417L26.7527 20.417C28.2502 20.4169 29.4988 20.4169 30.4902 20.5502C31.5365 20.6908 32.4811 21.0003 33.2403 21.7594C33.9994 22.5185 34.3088 23.4632 34.4495 24.5095C34.5828 25.5008 34.5827 26.7495 34.5827 28.247V36.667C34.5827 37.3573 34.023 37.917 33.3327 37.917C32.6423 37.917 32.0827 37.3573 32.0827 36.667V28.3337C32.0827 26.727 32.08 25.6477 31.9718 24.8426C31.8684 24.0735 31.6897 23.7444 31.4725 23.5272C31.2553 23.31 30.9261 23.1313 30.157 23.0279C29.4958 22.939 28.6495 22.9213 27.478 22.9178L21.1416 37.1747C20.941 37.6261 20.4933 37.917 19.9994 37.917C19.5054 37.917 19.0577 37.6261 18.8571 37.1747L12.5207 22.9178C11.3492 22.9213 10.5029 22.939 9.84167 23.0279C9.07257 23.1313 8.74341 23.31 8.52621 23.5272C8.30902 23.7444 8.13031 24.0735 8.02691 24.8426C7.91867 25.6477 7.91602 26.727 7.91602 28.3337L7.91602 36.667C7.91602 37.3573 7.35638 37.917 6.66602 37.917C5.97566 37.917 5.41602 37.3573 5.41602 36.667L5.41602 28.247C5.41597 26.7495 5.41593 25.5008 5.5492 24.5095C5.68988 23.4632 5.99933 22.5185 6.75845 21.7594C7.51756 21.0003 8.46223 20.6908 9.50855 20.5502C10.4999 20.4169 11.7486 20.4169 13.246 20.417ZM19.9993 2.08366C16.0873 2.08366 12.916 5.25497 12.916 9.16699V10.8337C12.916 14.7457 16.0873 17.917 19.9993 17.917C23.9114 17.917 27.0827 14.7457 27.0827 10.8337V9.16699C27.0827 5.25497 23.9114 2.08366 19.9993 2.08366ZM15.416 9.16699C15.416 6.63568 17.468 4.58366 19.9993 4.58366C22.5307 4.58366 24.5827 6.63568 24.5827 9.16699V10.8337C24.5827 13.365 22.5307 15.417 19.9993 15.417C17.468 15.417 15.416 13.365 15.416 10.8337V9.16699Z" fill="white"/>
</svg>
