<svg width="40" height="40" viewBox="0 0 40 40" fill="none" xmlns="http://www.w3.org/2000/svg">
<path fill-rule="evenodd" clip-rule="evenodd" d="M19.964 6.50219L19.998 6.53162L20.0319 6.50219C20.644 5.97434 21.5408 5.30793 22.6777 4.76296C24.9861 3.65651 28.2722 3.06778 32.0194 5.08163C36.5641 7.52402 38.8403 13.3044 37.5588 19.3116C36.2627 25.3871 31.3788 31.7041 21.6465 35.6959C20.5965 36.1265 19.3996 36.1265 18.3496 35.6959C8.61729 31.7041 3.7333 25.3871 2.43718 19.3116C1.1556 13.3044 3.43175 7.52401 7.97641 5.08162C11.7237 3.06777 15.0098 3.6565 17.3182 4.76295C18.4551 5.30792 19.3519 5.97433 19.964 6.50219ZM21.6663 15C21.6663 14.0795 20.9201 13.3333 19.9997 13.3333C19.0792 13.3333 18.333 14.0795 18.333 15V18.3333H14.9997C14.0792 18.3333 13.333 19.0795 13.333 20C13.333 20.9205 14.0792 21.6667 14.9997 21.6667H18.333V25C18.333 25.9205 19.0792 26.6667 19.9997 26.6667C20.9201 26.6667 21.6663 25.9205 21.6663 25V21.6667L24.9997 21.6667C25.9201 21.6667 26.6663 20.9205 26.6663 20C26.6663 19.0795 25.9201 18.3333 24.9997 18.3333H21.6663V15Z" fill="#17B26A"/>
</svg>
