<svg width="20" height="20" viewBox="0 0 20 20" fill="none" xmlns="http://www.w3.org/2000/svg">
<path fill-rule="evenodd" clip-rule="evenodd" d="M8 0C7.66565 0 7.35342 0.167101 7.16795 0.4453L6.16795 1.9453C6.15578 1.96356 6.14426 1.98213 6.13341 2.00097C5.13117 2.00486 4.27913 2.02408 3.57494 2.11875C2.64711 2.2435 1.82769 2.51546 1.17158 3.17157C0.515468 3.82768 0.243499 4.64711 0.118756 5.57494C-6.12259e-05 6.45869 -3.30343e-05 7.57529 1.15463e-06 8.92939V8.92943L3.56352e-06 9C3.56352e-06 9.55229 0.447719 10 1 10C1.55229 10 2 9.55229 2 9C2 7.55752 2.00213 6.57625 2.10092 5.84143C2.19585 5.13538 2.36322 4.80836 2.58579 4.58579C2.80836 4.36322 3.13538 4.19584 3.84144 4.10092C4.57626 4.00212 5.55752 4 7 4H13C14.4425 4 15.4238 4.00212 16.1586 4.10092C16.8646 4.19584 17.1916 4.36322 17.4142 4.58579C17.6368 4.80836 17.8042 5.13538 17.8991 5.84143C17.9979 6.57625 18 7.55752 18 9V12C18 12.5523 18.4477 13 19 13C19.5523 13 20 12.5523 20 12V8.92945V8.92943V8.92941V8.92939C20 7.57529 20.0001 6.45869 19.8813 5.57494C19.7565 4.64711 19.4845 3.82768 18.8284 3.17157C18.1723 2.51546 17.3529 2.2435 16.4251 2.11875C15.7209 2.02408 14.8688 2.00486 13.8666 2.00097C13.8557 1.98213 13.8442 1.96356 13.8321 1.9453L12.8321 0.4453C12.6466 0.167101 12.3344 0 12 0H8ZM2 13C2 12.4477 1.55229 12 1 12C0.447719 12 3.56352e-06 12.4477 3.56352e-06 13L1.15463e-06 13.0706V13.0706C-3.30343e-05 14.4247 -6.12291e-05 15.5413 0.118756 16.4251C0.243499 17.3529 0.515468 18.1723 1.17158 18.8284C1.82769 19.4845 2.64711 19.7565 3.57494 19.8812C4.45869 20.0001 5.57529 20 6.92939 20H6.92942H6.92944H6.92946H11C11.5523 20 12 19.5523 12 19C12 18.4477 11.5523 18 11 18H7C5.55752 18 4.57626 17.9979 3.84144 17.8991C3.13538 17.8042 2.80836 17.6368 2.58579 17.4142C2.36322 17.1916 2.19585 16.8646 2.10092 16.1586C2.00213 15.4237 2 14.4425 2 13ZM6.25 11C6.25 8.92893 7.92893 7.25 10 7.25C12.0711 7.25 13.75 8.92893 13.75 11C13.75 13.0711 12.0711 14.75 10 14.75C7.92893 14.75 6.25 13.0711 6.25 11ZM17 19C18.1046 19 19 18.1046 19 17C19 15.8954 18.1046 15 17 15C15.8954 15 15 15.8954 15 17C15 18.1046 15.8954 19 17 19Z" fill="#FFCC33"/>
</svg>
