<svg width="24" height="25" viewBox="0 0 24 25" fill="none" xmlns="http://www.w3.org/2000/svg">
<path fill-rule="evenodd" clip-rule="evenodd" d="M3.25 5.08008C3.25 4.66586 3.58579 4.33008 4 4.33008H20C20.4142 4.33008 20.75 4.66587 20.75 5.08008C20.75 5.49429 20.4142 5.83008 20 5.83008L4 5.83008C3.58579 5.83008 3.25 5.49429 3.25 5.08008ZM3.25 12.0801C3.25 11.6659 3.58579 11.3301 4 11.3301L20 11.3301C20.4142 11.3301 20.75 11.6659 20.75 12.0801C20.75 12.4943 20.4142 12.8301 20 12.8301L4 12.8301C3.58579 12.8301 3.25 12.4943 3.25 12.0801ZM4 18.3301C3.58579 18.3301 3.25 18.6659 3.25 19.0801C3.25 19.4943 3.58579 19.8301 4 19.8301L20 19.8301C20.4142 19.8301 20.75 19.4943 20.75 19.0801C20.75 18.6659 20.4142 18.3301 20 18.3301L4 18.3301Z" fill="#002244"/>
</svg>
