<svg width="67" height="66" viewBox="0 0 67 66" fill="none" xmlns="http://www.w3.org/2000/svg">
<circle cx="33.5" cy="33" r="33" fill="#FFCC33"/>
<path fill-rule="evenodd" clip-rule="evenodd" d="M34.0002 18.6667C29.766 18.6667 26.3335 22.0992 26.3335 26.3334V31.6667C26.3335 35.9009 29.766 39.3334 34.0002 39.3334C38.2343 39.3334 41.6668 35.9009 41.6668 31.6667V26.3334C41.6668 22.0992 38.2343 18.6667 34.0002 18.6667ZM24.9261 31.9488C24.9261 31.2407 24.3457 30.6667 23.6298 30.6667C22.9139 30.6667 22.3335 31.2407 22.3335 31.9488C22.3335 37.888 26.8706 42.7791 32.7039 43.4168V44.7693H30.1113C29.3953 44.7693 28.815 45.3433 28.815 46.0514C28.815 46.7594 29.3953 47.3334 30.1113 47.3334H37.889C38.605 47.3334 39.1853 46.7594 39.1853 46.0514C39.1853 45.3433 38.605 44.7693 37.889 44.7693H35.2965V43.4168C41.1297 42.7791 45.6668 37.888 45.6668 31.9488C45.6668 31.2407 45.0865 30.6667 44.3705 30.6667C43.6546 30.6667 43.0742 31.2407 43.0742 31.9488C43.0742 36.9052 39.0116 40.9232 34.0002 40.9232C28.9887 40.9232 24.9261 36.9052 24.9261 31.9488Z" fill="#002244"/>
</svg>
