<svg width="40" height="40" viewBox="0 0 40 40" fill="none" xmlns="http://www.w3.org/2000/svg">
<g clip-path="url(#clip0_1504_300951)">
<path d="M22.0979 1.34688L26.5803 11.1679C26.9105 11.8794 27.5408 12.3736 28.2678 12.4834L38.3361 14.0821C38.9241 14.1722 39.4577 14.5104 39.8182 15.0265C40.1746 15.5359 40.3276 16.1816 40.241 16.8163C40.1705 17.3433 39.943 17.8309 39.5946 18.2042L32.2991 25.9148C31.7655 26.4528 31.5239 27.25 31.6527 28.0296L33.4489 38.8696C33.6402 40.1785 32.8448 41.4127 31.6527 41.6609C31.1614 41.7465 30.658 41.6565 30.215 41.4105L21.234 36.309C20.5675 35.9422 19.7801 35.9422 19.1136 36.309L10.1327 41.4105C9.02918 42.0496 7.6619 41.6148 7.04773 40.4289C6.82018 39.9567 6.73964 39.4187 6.81414 38.8938L8.61033 28.0516C8.73921 27.2742 8.49555 26.4726 7.96395 25.9345L0.668428 18.2284C-0.199463 17.3148 -0.225641 15.8105 0.610031 14.8639C0.628155 14.8442 0.648291 14.8222 0.668428 14.8003C1.01478 14.4159 1.46987 14.1722 1.9612 14.1085L12.0295 12.5075C12.7545 12.3955 13.3847 11.9058 13.717 11.1898L18.0383 1.34688C18.4229 0.503573 19.2204 -0.0212978 20.0862 0.00066334H20.3561C21.1072 0.0994883 21.7616 0.60679 22.0979 1.34688Z" fill="#002244"/>
<path d="M20.1163 36.0355C19.7263 36.0487 19.3464 36.1629 19.0047 36.3672L10.0676 41.4572C8.97412 42.0261 7.66552 41.5846 7.05243 40.4444C6.82529 39.9787 6.74287 39.4449 6.81926 38.9221L8.60425 28.1028C8.72486 27.3164 8.48365 26.5168 7.959 25.9632L0.660215 18.259C-0.206152 17.3342 -0.222233 15.8162 0.626043 14.8694C0.638103 14.8562 0.648154 14.8452 0.660215 14.8342C1.00596 14.4607 1.45221 14.2147 1.93263 14.1378L12.0094 12.521C12.7391 12.4199 13.3723 11.9234 13.6939 11.2029L18.074 1.23604C18.4901 0.432014 19.2881 -0.0468873 20.1324 0.00363902C20.1163 0.656087 20.1163 35.5917 20.1163 36.0355Z" fill="#FFCC33"/>
</g>
<defs>
<clipPath id="clip0_1504_300951">
<rect width="40" height="40" fill="white"/>
</clipPath>
</defs>
</svg>
