<svg width="27" height="36" viewBox="0 0 27 36" fill="none" xmlns="http://www.w3.org/2000/svg">
<path fill-rule="evenodd" clip-rule="evenodd" d="M16.9034 0.104286C17.037 0.1071 17.1373 0.227034 17.1171 0.359195C16.952 1.34947 16.8441 1.98277 16.7077 2.44778C16.5801 2.88252 16.4667 3.02304 16.3782 3.10155C16.2808 3.18793 16.1292 3.28201 15.6888 3.34289C15.2065 3.40954 14.5482 3.41652 13.4998 3.41652C12.4513 3.41652 11.793 3.40954 11.3107 3.34289C10.8703 3.28201 10.7187 3.18793 10.6213 3.10155C10.5328 3.02304 10.4194 2.88252 10.2918 2.44778C10.1556 1.98354 10.0479 1.35158 9.88326 0.364127C9.86367 0.228961 9.96646 0.107011 10.103 0.10415C11.0986 0.0832911 12.1974 0.0833018 13.4068 0.0833135H13.4069H13.407H13.5929H13.593H13.5931C14.8051 0.0833017 15.906 0.083291 16.9034 0.104286ZM6.93334 0.308403C7.16127 0.27776 7.36867 0.439106 7.40166 0.6667L7.41173 0.736199L7.41581 0.762414L7.42752 0.83267C7.57818 1.73696 7.70924 2.52358 7.89372 3.15218C8.09223 3.82855 8.38991 4.46365 8.96286 4.97199C9.55549 5.49778 10.238 5.71867 10.9692 5.81972C11.6585 5.91499 12.5091 5.91689 13.5005 5.91689C14.4918 5.91689 15.3425 5.91499 16.0318 5.81972C16.7629 5.71867 17.4454 5.49779 18.0381 4.97199C18.611 4.46365 18.9087 3.82855 19.1072 3.15217C19.2917 2.52357 19.4228 1.73696 19.5734 0.832671L19.5852 0.762431L19.6004 0.663118C19.635 0.437245 19.8415 0.277955 20.068 0.308403C21.7951 0.540607 23.2174 1.03312 24.3427 2.15835C25.4679 3.28358 25.9604 4.70594 26.1926 6.43304C26.4174 8.10486 26.4174 10.2365 26.4173 12.9075V23.0933C26.4174 25.7642 26.4174 27.8959 26.1926 29.5677C25.9604 31.2948 25.4679 32.7171 24.3427 33.8424C23.2174 34.9676 21.7951 35.4601 20.068 35.6923C18.3962 35.9171 16.2646 35.9171 13.5936 35.917H13.4078C10.7368 35.9171 8.60516 35.9171 6.93334 35.6923C5.20624 35.4601 3.78388 34.9676 2.65865 33.8424C1.53342 32.7171 1.04091 31.2948 0.808703 29.5677C0.583937 27.8959 0.583958 25.7643 0.583985 23.0933V23.0933V23.0933V12.9074V12.9074V12.9074C0.583958 10.2364 0.583937 8.10484 0.808703 6.43304C1.04091 4.70594 1.53342 3.28358 2.65865 2.15835C3.78388 1.03312 5.20624 0.540607 6.93334 0.308403ZM10.584 31.3333C10.584 30.643 11.1436 30.0833 11.834 30.0833H15.1673C15.8577 30.0833 16.4173 30.643 16.4173 31.3333C16.4173 32.0237 15.8577 32.5833 15.1673 32.5833H11.834C11.1436 32.5833 10.584 32.0237 10.584 31.3333Z" fill="#002244"/>
</svg>
