<svg width="25" height="24" viewBox="0 0 25 24" fill="none" xmlns="http://www.w3.org/2000/svg">
<path fill-rule="evenodd" clip-rule="evenodd" d="M12.3074 3.82046C13.7546 3.14454 15.6163 2.75 17.6248 2.75C18.7446 2.75 19.8153 2.87257 20.7922 3.09633C21.7093 3.30637 22.4073 3.71217 22.8466 4.38745C23.2675 5.03453 23.3748 5.81712 23.3748 6.61397V15.3528C23.3748 15.6548 23.3748 15.8058 23.3083 15.8882C23.2923 15.9082 23.2829 15.9175 23.263 15.9336C23.1806 16 22.9953 16 22.6248 16H15.6248C14.244 16 13.1248 17.1193 13.1248 18.5C13.1248 18.7866 13.173 19.0618 13.2617 19.3182C13.3627 19.6098 13.4131 19.7556 13.395 19.8382C13.3851 19.883 13.3775 19.901 13.3522 19.9392C13.3056 20.0098 13.1844 20.0664 12.9421 20.1795C11.4949 20.8555 9.63325 21.25 7.62476 21.25C6.50492 21.25 5.43424 21.1274 4.45731 20.9037C3.58164 20.7031 2.89 20.3111 2.44119 19.6488C2.00718 19.0082 1.87476 18.2216 1.87476 17.386V6.61397C1.87476 5.04678 3.46576 4.13772 4.7922 4.44153C5.65464 4.63907 6.61275 4.75 7.62476 4.75C9.4504 4.75 11.0895 4.38927 12.3074 3.82046ZM9.37476 12C9.37476 10.2051 10.8298 8.75 12.6248 8.75C14.4197 8.75 15.8748 10.2051 15.8748 12C15.8748 13.7949 14.4197 15.25 12.6248 15.25C10.8298 15.25 9.37476 13.7949 9.37476 12ZM6.12476 12C6.67704 12 7.12476 12.4477 7.12476 13V13.009C7.12476 13.5613 6.67704 14.009 6.12476 14.009C5.57247 14.009 5.12476 13.5613 5.12476 13.009V13C5.12476 12.4477 5.57247 12 6.12476 12ZM15.6248 17.5C15.0725 17.5 14.6248 17.9477 14.6248 18.5C14.6248 19.0523 15.0725 19.5 15.6248 19.5H22.6248C23.177 19.5 23.6248 19.0523 23.6248 18.5C23.6248 17.9477 23.177 17.5 22.6248 17.5H15.6248Z" fill="#FFCC33"/>
</svg>
