<svg width="44" height="48" viewBox="0 0 44 48" fill="none" xmlns="http://www.w3.org/2000/svg">
<path d="M0 30.1101C0 39.5098 6.98884 47.1294 15.61 47.1294C24.2313 47.1294 31.22 39.5098 31.22 30.1101C31.22 20.7105 24.2313 13.0908 15.61 13.0908C6.98884 13.0908 0 20.7105 0 30.1101Z" fill="#FFCC33"/>
<path d="M15.1055 6.84145C14.813 7.26829 15.1214 7.85506 15.6101 7.85506C26.8839 7.85506 36.0232 17.8194 36.0232 30.1111C36.0232 30.6439 36.5614 30.9801 36.9528 30.6612C40.7619 27.5579 43.2278 22.6024 43.2278 17.0193C43.2278 7.61981 36.2391 0 27.6178 0C22.497 0 17.9519 2.68847 15.1055 6.84145Z" fill="#002244"/>
</svg>
