<svg width="23" height="18" viewBox="0 0 23 18" fill="none" xmlns="http://www.w3.org/2000/svg">
<path fill-rule="evenodd" clip-rule="evenodd" d="M11.5377 0.25H11.4619H11.4619C10.7249 0.249987 10.1156 0.249976 9.614 0.301336C9.08636 0.355363 8.61763 0.470659 8.17571 0.737302C8.11075 0.776497 8.04708 0.81785 7.98478 0.861287C7.56263 1.15564 7.25926 1.54101 6.98092 2.00733C6.71381 2.45484 6.44099 3.02817 6.1073 3.72943L6.06682 3.81448L6.06682 3.81449C5.57106 4.85623 5.16497 5.70955 4.94557 6.40223C4.90891 6.51798 4.87585 6.63399 4.84778 6.75001L18.1518 6.75001C18.1237 6.63399 18.0907 6.51798 18.054 6.40223C17.8346 5.70956 17.4285 4.85624 16.9328 3.81452L16.8923 3.72944C16.5586 3.02817 16.2858 2.45484 16.0187 2.00733C15.7403 1.54101 15.437 1.15564 15.0148 0.861287C14.9525 0.817851 14.8888 0.776498 14.8239 0.737302C14.382 0.470659 13.9132 0.355363 13.3856 0.301336C12.884 0.249976 12.2747 0.249987 11.5377 0.25H11.5377ZM7.53793 8.25C8.27495 8.24999 8.88422 8.24997 9.38582 8.30134C9.91345 8.35536 10.3822 8.47066 10.8241 8.7373C10.8891 8.7765 10.9527 8.81785 11.015 8.86129C11.4372 9.15563 11.7406 9.541 12.0189 10.0073C12.286 10.4548 12.5588 11.0282 12.8925 11.7294L12.933 11.8145L12.933 11.8145L12.933 11.8145C13.4288 12.8562 13.8348 13.7096 14.0542 14.4022C14.2793 15.1128 14.3686 15.8335 14.0007 16.5035C13.9772 16.5463 13.9524 16.5885 13.9264 16.6298C13.5133 17.2869 12.8407 17.5361 12.121 17.6453C11.4309 17.7501 10.5243 17.75 9.43165 17.75H5.5684C4.47571 17.75 3.56913 17.7501 2.87908 17.6453C2.15938 17.5361 1.48677 17.2869 1.07368 16.6298C1.04767 16.5885 1.02289 16.5463 0.999368 16.5035C0.631425 15.8335 0.720721 15.1128 0.945799 14.4022C1.1652 13.7095 1.5713 12.8562 2.06706 11.8145L2.10753 11.7294L2.10753 11.7294L2.10754 11.7294C2.44123 11.0282 2.71404 10.4548 2.98115 10.0073C3.25949 9.541 3.56286 9.15563 3.98501 8.86129C4.04731 8.81785 4.11098 8.77649 4.17594 8.7373C4.61786 8.47066 5.08659 8.35536 5.61423 8.30134C6.11583 8.24997 6.7251 8.24999 7.46211 8.25H7.46213H7.53792H7.53793ZM17.6338 17.75H14.9679C15.0476 17.65 15.1239 17.5428 15.196 17.428C15.2378 17.3616 15.2776 17.294 15.3153 17.2253C15.9811 16.0129 15.7512 14.7927 15.484 13.9491C15.2331 13.1568 14.7896 12.2251 14.3257 11.2505L14.2229 11.0345C13.9089 10.3746 13.6104 9.74709 13.3067 9.23835C13.164 8.99934 13.0039 8.75745 12.8166 8.52294C13.1295 8.40246 13.4594 8.33788 13.8163 8.30134C14.3179 8.24998 14.9272 8.24999 15.6642 8.25H15.6642H15.7401H15.7401C16.4771 8.24999 17.0864 8.24998 17.5879 8.30134C18.1156 8.35536 18.5843 8.47066 19.0262 8.7373C19.0912 8.7765 19.1549 8.81785 19.2172 8.86129C19.6393 9.15563 19.9427 9.54101 20.221 10.0073C20.4881 10.4548 20.7609 11.0282 21.0946 11.7294L21.0946 11.7294L21.1351 11.8145C21.6309 12.8562 22.037 13.7096 22.2564 14.4022C22.4814 15.1128 22.5707 15.8335 22.2028 16.5035C22.1793 16.5463 22.1545 16.5885 22.1285 16.6298C21.7154 17.2869 21.0428 17.5361 20.3231 17.6453C19.633 17.7501 18.7265 17.75 17.6338 17.75Z" fill="#FFCC33"/>
</svg>
