<svg width="40" height="40" viewBox="0 0 40 40" fill="none" xmlns="http://www.w3.org/2000/svg">
<rect width="40" height="40" rx="6" fill="#FFFAEB"/>
<path fill-rule="evenodd" clip-rule="evenodd" d="M19.5377 11.25H19.4619H19.4619C18.7249 11.25 18.1156 11.25 17.614 11.3013C17.0864 11.3554 16.6176 11.4707 16.1757 11.7373C16.1108 11.7765 16.0471 11.8178 15.9848 11.8613C15.5626 12.1556 15.2593 12.541 14.9809 13.0073C14.7138 13.4548 14.441 14.0282 14.1073 14.7294L14.0668 14.8145L14.0668 14.8145C13.5711 15.8562 13.165 16.7096 12.9456 17.4022C12.9089 17.518 12.8758 17.634 12.8478 17.75L26.1518 17.75C26.1237 17.634 26.0907 17.518 26.054 17.4022C25.8346 16.7096 25.4285 15.8562 24.9328 14.8145L24.8923 14.7294C24.5586 14.0282 24.2858 13.4548 24.0187 13.0073C23.7403 12.541 23.437 12.1556 23.0148 11.8613C22.9525 11.8179 22.8888 11.7765 22.8239 11.7373C22.382 11.4707 21.9132 11.3554 21.3856 11.3013C20.884 11.25 20.2747 11.25 19.5377 11.25H19.5377ZM15.5379 19.25C16.275 19.25 16.8842 19.25 17.3858 19.3013C17.9135 19.3554 18.3822 19.4707 18.8241 19.7373C18.8891 19.7765 18.9527 19.8178 19.015 19.8613C19.4372 20.1556 19.7406 20.541 20.0189 21.0073C20.286 21.4548 20.5588 22.0282 20.8925 22.7294L20.933 22.8145L20.933 22.8145L20.933 22.8145C21.4288 23.8562 21.8348 24.7096 22.0542 25.4022C22.2793 26.1128 22.3686 26.8335 22.0007 27.5035C21.9772 27.5463 21.9524 27.5885 21.9264 27.6298C21.5133 28.2869 20.8407 28.5361 20.121 28.6453C19.4309 28.7501 18.5243 28.75 17.4317 28.75H13.5684C12.4757 28.75 11.5691 28.7501 10.8791 28.6453C10.1594 28.5361 9.48677 28.2869 9.07368 27.6298C9.04767 27.5885 9.02289 27.5463 8.99937 27.5035C8.63143 26.8335 8.72072 26.1128 8.9458 25.4022C9.1652 24.7095 9.5713 23.8562 10.0671 22.8145L10.1075 22.7294L10.1075 22.7294L10.1075 22.7294C10.4412 22.0282 10.714 21.4548 10.9812 21.0073C11.2595 20.541 11.5629 20.1556 11.985 19.8613C12.0473 19.8178 12.111 19.7765 12.1759 19.7373C12.6179 19.4707 13.0866 19.3554 13.6142 19.3013C14.1158 19.25 14.7251 19.25 15.4621 19.25H15.4621H15.5379H15.5379ZM25.6338 28.75H22.9679C23.0476 28.65 23.1239 28.5428 23.196 28.428C23.2378 28.3616 23.2776 28.294 23.3153 28.2253C23.9811 27.0129 23.7512 25.7927 23.484 24.9491C23.2331 24.1568 22.7896 23.2251 22.3257 22.2505L22.2229 22.0345C21.9089 21.3746 21.6104 20.7471 21.3067 20.2383C21.164 19.9993 21.0039 19.7575 20.8166 19.5229C21.1295 19.4025 21.4594 19.3379 21.8163 19.3013C22.3179 19.25 22.9272 19.25 23.6642 19.25H23.6642H23.7401H23.7401C24.4771 19.25 25.0864 19.25 25.5879 19.3013C26.1156 19.3554 26.5843 19.4707 27.0262 19.7373C27.0912 19.7765 27.1549 19.8179 27.2172 19.8613C27.6393 20.1556 27.9427 20.541 28.221 21.0073C28.4881 21.4548 28.7609 22.0282 29.0946 22.7294L29.0946 22.7294L29.1351 22.8145C29.6309 23.8562 30.037 24.7096 30.2564 25.4022C30.4814 26.1128 30.5707 26.8335 30.2028 27.5035C30.1793 27.5463 30.1545 27.5885 30.1285 27.6298C29.7154 28.2869 29.0428 28.5361 28.3231 28.6453C27.633 28.7501 26.7265 28.75 25.6338 28.75Z" fill="#FFCC33"/>
</svg>
