<svg width="40" height="44" viewBox="0 0 40 44" fill="none" xmlns="http://www.w3.org/2000/svg">
<path fill-rule="evenodd" clip-rule="evenodd" d="M16.0985 0.500001H15.9261H15.926C12.7115 0.499968 10.1471 0.499942 8.13619 0.769569C6.05954 1.048 4.34977 1.63838 2.99674 2.98772C1.64298 4.33778 1.04999 6.04503 0.770448 8.11853C0.499941 10.125 0.499968 12.6832 0.500001 15.8881V15.8881V28.1118V28.1119C0.499968 31.3167 0.499941 33.875 0.770448 35.8815C1.04999 37.955 1.64298 39.6622 2.99674 41.0123C4.34977 42.3616 6.05954 42.952 8.13619 43.2304C10.1471 43.5001 12.7114 43.5 15.926 43.5H16.0985C19.313 43.5 21.8774 43.5001 23.8884 43.2304C25.965 42.952 27.6748 42.3616 29.0278 41.0123C30.3816 39.6622 30.9746 37.955 31.2541 35.8815C31.3945 34.84 31.462 33.6498 31.4945 32.2978V32.2977C31.5043 31.8883 31.5092 31.6836 31.4345 31.5441C31.4209 31.5187 31.4161 31.5108 31.3998 31.4871C31.31 31.3568 31.0457 31.2285 30.5171 30.9718C28.9259 30.1993 28.1885 28.9279 27.8448 27.9663C27.664 27.4603 27.5736 27.2074 27.4181 27.0978C27.2626 26.9883 27.0332 26.9883 26.5744 26.9883H17.9858C15.2266 26.9883 12.9898 24.7497 12.9898 21.9883C12.9898 19.2269 15.2266 16.9883 17.9858 16.9883H26.5829C27.0399 16.9883 27.2683 16.9883 27.4236 16.8793C27.5788 16.7703 27.6697 16.5187 27.8514 16.0155C28.1978 15.0561 28.9359 13.7958 30.5171 13.0282C31.0457 12.7715 31.31 12.6432 31.3998 12.5129C31.4161 12.4892 31.4209 12.4813 31.4345 12.4559C31.5092 12.3164 31.5043 12.1117 31.4945 11.7023V11.7022C31.462 10.3502 31.3945 9.16002 31.2541 8.11853C30.9746 6.04503 30.3816 4.33778 29.0278 2.98772C27.6748 1.63838 25.965 1.048 23.8884 0.769569C21.8774 0.499942 19.3131 0.499968 16.0986 0.500001H16.0985ZM15.9911 34C14.8914 34 14 34.8954 14 36C14 37.1046 14.8914 38 15.9911 38H16.0089C17.1086 38 18 37.1046 18 36C18 34.8954 17.1086 34 16.0089 34H15.9911ZM16 21.9883C16 20.8837 16.8954 19.9883 18 19.9883L30.5001 19.9883L30.5 18.8232C30.4998 18.4719 30.4995 18.0406 30.5436 17.6877L30.5445 17.6811C30.576 17.4282 30.7197 16.2761 31.8509 15.7274C32.9845 15.1774 33.9848 15.7813 34.2012 15.9119L34.2093 15.9168C34.5153 16.1012 34.8571 16.3695 35.1382 16.5902L35.1987 16.6377C35.9503 17.227 36.9187 17.9909 37.7008 18.7518C38.091 19.1314 38.4935 19.5659 38.8111 20.0278C39.0936 20.4383 39.5001 21.1387 39.5001 22C39.5001 22.8613 39.0936 23.5617 38.8111 23.9722C38.4935 24.4341 38.091 24.8686 37.7008 25.2482C36.9187 26.0091 35.9503 26.773 35.1987 27.3623L35.1382 27.4098C34.8571 27.6305 34.5153 27.8988 34.2093 28.0832L34.2012 28.088C33.9848 28.2187 32.9845 28.8226 31.8509 28.2726C30.7197 27.7239 30.576 26.5718 30.5445 26.3189L30.5436 26.3123C30.4995 25.9594 30.4998 25.5281 30.5 25.1768L30.5001 23.9883L18 23.9883C16.8954 23.9883 16 23.0928 16 21.9883Z" fill="#000E1D"/>
</svg>
