<svg width="48" height="48" viewBox="0 0 48 48" fill="none" xmlns="http://www.w3.org/2000/svg">
<path fill-rule="evenodd" clip-rule="evenodd" d="M20.0985 2.5H19.9261H19.926C16.7115 2.49997 14.1471 2.49994 12.1362 2.76957C10.0595 3.048 8.34977 3.63838 6.99674 4.98772C5.64298 6.33778 5.04999 8.04503 4.77045 10.1185C4.49994 12.125 4.49997 14.6832 4.5 17.8881V17.8881V30.1118V30.1119C4.49997 33.3167 4.49994 35.875 4.77045 37.8815C5.04999 39.955 5.64298 41.6622 6.99674 43.0123C8.34977 44.3616 10.0595 44.952 12.1362 45.2304C14.1471 45.5001 16.7114 45.5 19.926 45.5H20.0985C23.313 45.5 25.8774 45.5001 27.8884 45.2304C29.965 44.952 31.6748 44.3616 33.0278 43.0123C34.3816 41.6622 34.9746 39.955 35.2541 37.8815C35.3945 36.84 35.462 35.6498 35.4945 34.2978V34.2977C35.5043 33.8883 35.5092 33.6836 35.4345 33.5441C35.4209 33.5187 35.4161 33.5108 35.3998 33.4871C35.31 33.3568 35.0457 33.2285 34.5171 32.9718C32.9259 32.1993 32.1885 30.9279 31.8448 29.9663C31.664 29.4603 31.5736 29.2074 31.4181 29.0978C31.2626 28.9883 31.0332 28.9883 30.5744 28.9883H21.9858C19.2266 28.9883 16.9898 26.7497 16.9898 23.9883C16.9898 21.2269 19.2266 18.9883 21.9858 18.9883H30.5829C31.0399 18.9883 31.2683 18.9883 31.4236 18.8793C31.5788 18.7703 31.6697 18.5187 31.8514 18.0155C32.1978 17.0561 32.9359 15.7958 34.5171 15.0282C35.0457 14.7715 35.31 14.6432 35.3998 14.5129C35.4161 14.4892 35.4209 14.4813 35.4345 14.4559C35.5092 14.3164 35.5043 14.1117 35.4945 13.7023V13.7022C35.462 12.3502 35.3945 11.16 35.2541 10.1185C34.9746 8.04503 34.3816 6.33778 33.0278 4.98772C31.6748 3.63838 29.965 3.048 27.8884 2.76957C25.8774 2.49994 23.3131 2.49997 20.0986 2.5H20.0985ZM19.9911 36C18.8914 36 18 36.8954 18 38C18 39.1046 18.8914 40 19.9911 40H20.0089C21.1086 40 22 39.1046 22 38C22 36.8954 21.1086 36 20.0089 36H19.9911ZM20 23.9883C20 22.8837 20.8954 21.9883 22 21.9883L34.5001 21.9883L34.5 20.8232C34.4998 20.4719 34.4995 20.0406 34.5436 19.6877L34.5445 19.6811C34.576 19.4282 34.7197 18.2761 35.8509 17.7274C36.9845 17.1774 37.9848 17.7813 38.2012 17.9119L38.2093 17.9168C38.5153 18.1012 38.8571 18.3695 39.1382 18.5902L39.1987 18.6377C39.9503 19.227 40.9187 19.9909 41.7008 20.7518C42.091 21.1314 42.4935 21.5659 42.8111 22.0278C43.0936 22.4383 43.5001 23.1387 43.5001 24C43.5001 24.8613 43.0936 25.5617 42.8111 25.9722C42.4935 26.4341 42.091 26.8686 41.7008 27.2482C40.9187 28.0091 39.9503 28.773 39.1987 29.3623L39.1382 29.4098C38.8571 29.6305 38.5153 29.8988 38.2093 30.0832L38.2012 30.088C37.9848 30.2187 36.9845 30.8226 35.8509 30.2726C34.7197 29.7239 34.576 28.5718 34.5445 28.3189L34.5436 28.3123C34.4995 27.9594 34.4998 27.5281 34.5 27.1768L34.5001 25.9883L22 25.9883C20.8954 25.9883 20 25.0928 20 23.9883Z" fill="#000E1D"/>
</svg>
