<svg width="40" height="40" viewBox="0 0 40 40" fill="none" xmlns="http://www.w3.org/2000/svg">
<path fill-rule="evenodd" clip-rule="evenodd" d="M18.8344 8.33333C18.8344 7.18274 19.7672 6.25 20.9177 6.25C22.0683 6.25 23.0011 7.18274 23.0011 8.33333C23.0011 9.48393 22.0683 10.4167 20.9177 10.4167C19.7672 10.4167 18.8344 9.48393 18.8344 8.33333ZM20.9177 3.75C18.3864 3.75 16.3344 5.80203 16.3344 8.33333C16.3344 10.8646 18.3864 12.9167 20.9177 12.9167C23.449 12.9167 25.5011 10.8646 25.5011 8.33333C25.5011 5.80203 23.449 3.75 20.9177 3.75ZM15.2711 19.0559C17.8642 15.3952 23.9418 15.2404 26.5543 19.0414C26.9453 19.6103 27.7235 19.7545 28.2925 19.3635C28.8614 18.9724 29.0056 18.1942 28.6145 17.6253C24.9562 12.3028 16.7661 12.6203 13.2311 17.6108C12.832 18.1741 12.9652 18.9543 13.5285 19.3533C14.0919 19.7524 14.872 19.6192 15.2711 19.0559ZM15.356 20.4167H26.4794H26.4795C27.7335 20.4166 28.7663 20.4166 29.5904 20.4976C30.4407 20.5812 31.2314 20.7624 31.9193 21.2383C32.659 21.75 33.2328 22.4667 33.5678 23.3008C33.8802 24.0785 33.8774 24.8887 33.7651 25.7313C33.6564 26.5469 33.4204 27.5451 33.1344 28.7545L33.1074 28.8691C32.8234 30.0701 32.5928 31.0458 32.3378 31.8293C32.1583 32.3806 31.9543 32.8785 31.6841 33.3333H35.9176C36.8381 33.3333 37.5843 34.0795 37.5843 35C37.5843 35.9205 36.8381 36.6667 35.9176 36.6667H5.91764C4.99717 36.6667 4.25098 35.9205 4.25098 35C4.25098 34.0795 4.99717 33.3333 5.91764 33.3333H10.1513C9.88111 32.8785 9.67711 32.3806 9.49763 31.8293C9.24258 31.0458 9.01195 30.0702 8.72804 28.8691L8.70093 28.7545C8.41501 27.5451 8.17902 26.5469 8.07029 25.7313C7.95794 24.8887 7.95522 24.0785 8.2676 23.3008C8.60263 22.4667 9.17633 21.75 9.91606 21.2383C10.604 20.7624 11.3947 20.5812 12.245 20.4976C13.0691 20.4166 14.1019 20.4166 15.3559 20.4167H15.356ZM19.251 25.4167C18.5606 25.4167 18.001 25.9763 18.001 26.6667C18.001 27.357 18.5606 27.9167 19.251 27.9167H22.5843C23.2747 27.9167 23.8343 27.357 23.8343 26.6667C23.8343 25.9763 23.2747 25.4167 22.5843 25.4167H19.251Z" fill="#17B26A"/>
</svg>
