<svg width="16" height="18" viewBox="0 0 16 18" fill="none" xmlns="http://www.w3.org/2000/svg">
<path fill-rule="evenodd" clip-rule="evenodd" d="M4.87498 4.4165C4.87498 2.69061 6.27409 1.2915 7.99998 1.2915C9.72587 1.2915 11.125 2.69061 11.125 4.4165V5.93265C10.1277 5.89455 9.10569 5.87484 7.99998 5.87484C6.89427 5.87484 5.87228 5.89455 4.87498 5.93265V4.4165ZM3.62498 6.04908V4.4165C3.62498 2.00026 5.58373 0.0415039 7.99998 0.0415039C10.4162 0.0415039 12.375 2.00026 12.375 4.4165V6.04908C13.784 6.38554 14.8658 7.58187 15.0629 9.04582C15.1863 9.96281 15.2916 10.9264 15.2916 11.9165C15.2916 12.9066 15.1863 13.8702 15.0629 14.7872C14.8366 16.468 13.444 17.7961 11.729 17.8749C10.5386 17.9297 9.32984 17.9582 7.99998 17.9582C6.67012 17.9582 5.46135 17.9297 4.27099 17.8749C2.55595 17.7961 1.16339 16.468 0.937078 14.7872C0.813615 13.8702 0.708313 12.9066 0.708313 11.9165C0.708313 10.9264 0.813615 9.96281 0.937078 9.04582C1.13418 7.58187 2.21597 6.38554 3.62498 6.04908ZM7.99998 7.12484C6.68868 7.12484 5.49907 7.15294 4.3284 7.20676C3.23756 7.2569 2.32439 8.10973 2.1759 9.21262C2.05475 10.1124 1.95831 11.0106 1.95831 11.9165C1.95831 12.8224 2.05475 13.7206 2.1759 14.6204C2.32439 15.7233 3.23756 16.5761 4.3284 16.6263C5.49907 16.6801 6.68868 16.7082 7.99998 16.7082C9.31128 16.7082 10.5009 16.6801 11.6716 16.6263C12.7624 16.5761 13.6756 15.7233 13.8241 14.6204C13.9452 13.7206 14.0416 12.8224 14.0416 11.9165C14.0416 11.0106 13.9452 10.1124 13.8241 9.21262C13.6756 8.10973 12.7624 7.2569 11.6716 7.20676C10.5009 7.15294 9.31128 7.12484 7.99998 7.12484ZM7.99998 10.4582C8.34516 10.4582 8.62498 10.738 8.62498 11.0832V12.7498C8.62498 13.095 8.34516 13.3748 7.99998 13.3748C7.6548 13.3748 7.37498 13.095 7.37498 12.7498V11.0832C7.37498 10.738 7.6548 10.4582 7.99998 10.4582Z" fill="#002244"/>
</svg>
