<svg width="18" height="22" viewBox="0 0 18 22" fill="none" xmlns="http://www.w3.org/2000/svg">
<path fill-rule="evenodd" clip-rule="evenodd" d="M15.2945 4.32991C15.9223 4.41431 16.4891 4.59999 16.9445 5.05545C17.4 5.51092 17.5857 6.07773 17.6701 6.70552C17.7501 7.3003 17.75 8.04952 17.75 8.94801V17.052C17.75 17.9505 17.7501 18.6997 17.6701 19.2945C17.5857 19.9223 17.4 20.4891 16.9445 20.9445C16.4891 21.4 15.9223 21.5857 15.2945 21.6701C14.6997 21.7501 13.9505 21.75 13.052 21.75H13.052H4.94801H4.948C4.04952 21.75 3.3003 21.7501 2.70552 21.6701C2.07773 21.5857 1.51093 21.4 1.05546 20.9445C0.599991 20.4891 0.41432 19.9223 0.329916 19.2945C0.249951 18.6997 0.249974 17.9505 0.250001 17.0521V17.052V17.052L0.250004 5C0.250004 4.58578 0.585791 4.25 1 4.25L13.052 4.25H13.052C13.9505 4.24997 14.6997 4.24994 15.2945 4.32991ZM4.25 17C4.25 16.5858 4.58579 16.25 5 16.25H13C13.4142 16.25 13.75 16.5858 13.75 17C13.75 17.4142 13.4142 17.75 13 17.75H5C4.58579 17.75 4.25 17.4142 4.25 17ZM9 8.25C9.41421 8.25 9.75 8.58578 9.75 9V9.32501C11.2193 9.62327 12.3767 10.7806 12.675 12.25H13C13.4142 12.25 13.75 12.5858 13.75 13C13.75 13.4142 13.4142 13.75 13 13.75L5 13.75C4.58579 13.75 4.25 13.4142 4.25 13C4.25 12.5858 4.58579 12.25 5 12.25H5.32502C5.62328 10.7806 6.78065 9.62327 8.25 9.32501V9C8.25 8.58578 8.58579 8.25 9 8.25ZM13.7086 3L3.83203 3.00001L8.13217 1.19826C8.92454 0.866241 9.57192 0.59498 10.1027 0.433132C10.6445 0.267929 11.1778 0.178722 11.7086 0.320957C12.295 0.478081 12.8126 0.825378 13.1814 1.30796C13.5146 1.74402 13.6374 2.27096 13.6941 2.83648C13.6994 2.8896 13.7042 2.94411 13.7086 3Z" fill="#FFCC33"/>
</svg>
