<svg width="384" height="384" viewBox="0 0 384 384" fill="none" xmlns="http://www.w3.org/2000/svg">
<rect width="384" height="384" rx="192" fill="#FFCC33"/>
<path d="M88.1261 178.84H96.2741C100.334 178.84 102.686 181.528 102.686 185.224C102.686 187.128 102.098 188.668 100.95 189.872C99.8021 191.048 98.2621 191.636 96.2741 191.636H91.4861V199H88.1261V178.84ZM91.4861 188.752H95.8541C98.0941 188.752 99.3261 187.38 99.3261 185.224C99.3261 183.096 98.0661 181.696 95.8541 181.724H91.4861V188.752ZM110.673 185.224C112.745 185.224 114.341 185.924 115.433 187.296C116.553 188.668 116.945 190.656 116.609 193.26H107.201C107.397 195.416 108.881 196.62 111.485 196.62C113.053 196.62 114.509 196.228 115.825 195.444V198.3C114.621 199 113.081 199.336 111.233 199.336C106.837 199.336 103.925 196.844 103.925 192.336C103.925 190.208 104.541 188.5 105.773 187.184C107.033 185.868 108.657 185.224 110.673 185.224ZM110.673 187.66C108.685 187.66 107.341 189.06 107.201 191.076H113.865C113.781 188.836 112.549 187.66 110.673 187.66ZM123.052 199H119.832V185.56H121.848L122.492 187.716H122.548C123.64 186.064 124.956 185.224 126.524 185.224C127.196 185.224 127.784 185.336 128.316 185.56V188.752C127.728 188.388 127.056 188.192 126.356 188.192C125.432 188.192 124.648 188.584 124.004 189.368C123.36 190.124 123.052 191.132 123.052 192.336V199ZM142.805 199H139.277L134.881 193.456H134.209V199H130.961V178.56H134.209V190.824H134.769L138.997 185.56H142.525L137.289 192.056L142.805 199ZM148.375 199.336C147.059 199.336 145.771 199.084 144.511 198.58V195.276C145.743 196.2 147.367 196.704 148.627 196.704C149.943 196.704 150.867 196.172 150.867 195.192C150.867 194.716 150.671 194.324 150.111 194.072C149.579 193.764 149.299 193.652 148.487 193.4L148.319 193.316L147.507 193.064C147.143 192.924 146.387 192.588 145.967 192.336C145.071 191.72 144.371 190.908 144.371 189.424C144.371 186.736 146.415 185.224 149.523 185.224C150.867 185.224 152.071 185.448 153.163 185.896V188.78C152.071 188.136 150.923 187.8 149.775 187.8C148.571 187.8 147.815 188.276 147.815 189.144C147.815 189.508 148.011 189.844 148.207 190.04C148.319 190.124 148.515 190.236 148.767 190.348C149.299 190.572 149.439 190.628 150.195 190.852L151.203 191.188C151.679 191.328 152.575 191.72 152.995 192.084C153.751 192.644 154.311 193.428 154.311 194.772C154.311 197.824 151.959 199.336 148.375 199.336ZM177.678 193.904L182.102 199H178.322L175.746 195.976L175.606 196.116C175.046 196.704 174.598 197.152 174.234 197.488C173.898 197.796 173.478 198.132 172.946 198.496C171.91 199.196 170.818 199.504 169.39 199.504C166.31 199.504 164.574 197.432 164.574 194.968C164.574 193.372 165.246 191.832 166.618 190.32L168.802 187.912L168.354 187.38C166.898 185.756 166.17 184.188 166.17 182.676C166.17 181.444 166.59 180.408 167.458 179.596C168.326 178.756 169.39 178.336 170.65 178.336C171.938 178.336 173.002 178.756 173.87 179.596C174.738 180.408 175.158 181.444 175.158 182.676C175.158 184.216 174.346 185.588 172.806 187.268L172.358 187.772L175.998 191.972L180.394 187.296V191.02L177.678 193.904ZM170.23 185.364L170.65 185.84L171.07 185.364C171.966 184.384 172.414 183.46 172.414 182.648C172.414 181.668 171.77 180.828 170.65 180.828C169.558 180.828 168.886 181.668 168.886 182.648C168.886 183.432 169.334 184.328 170.23 185.364ZM173.842 194.24L174.038 194.016L170.482 189.872L168.774 191.804C167.906 192.812 167.458 193.764 167.458 194.688C167.458 196.06 168.438 196.956 169.726 196.956C170.398 196.956 171.014 196.76 171.546 196.368C172.106 195.948 172.862 195.248 173.842 194.24ZM203.171 188.5V188.556C205.999 188.976 207.679 190.684 207.679 193.372C207.679 195.164 207.091 196.564 205.915 197.544C204.739 198.524 203.199 199 201.323 199H192.251V178.84H200.399C204.151 178.84 206.783 180.352 206.783 183.796C206.783 186.344 205.271 187.912 203.171 188.5ZM200.371 181.724H195.611V187.324H200.343C202.387 187.324 203.507 185.84 203.507 184.384C203.507 182.956 202.639 181.724 200.371 181.724ZM195.611 196.116H201.183C203.311 196.116 204.319 194.884 204.319 193.092C204.319 191.384 202.975 189.956 200.875 189.956H195.611V196.116ZM216.766 185.224C218.838 185.224 220.434 185.924 221.526 187.296C222.646 188.668 223.038 190.656 222.702 193.26H213.294C213.49 195.416 214.974 196.62 217.578 196.62C219.146 196.62 220.602 196.228 221.918 195.444V198.3C220.714 199 219.174 199.336 217.326 199.336C212.93 199.336 210.018 196.844 210.018 192.336C210.018 190.208 210.634 188.5 211.866 187.184C213.126 185.868 214.75 185.224 216.766 185.224ZM216.766 187.66C214.778 187.66 213.434 189.06 213.294 191.076H219.958C219.874 188.836 218.642 187.66 216.766 187.66ZM233.57 185.224C237.854 185.224 238.694 188.668 238.694 191.104V199H235.446V191.244C235.446 189.116 234.578 188.052 232.842 188.052C230.798 188.052 229.146 189.9 229.146 192.336V199H225.926V185.56H227.942L228.586 187.716H228.642C229.79 186.232 231.638 185.224 233.57 185.224ZM248.376 185.224C250.448 185.224 252.044 185.924 253.136 187.296C254.256 188.668 254.648 190.656 254.312 193.26H244.904C245.1 195.416 246.584 196.62 249.188 196.62C250.756 196.62 252.212 196.228 253.528 195.444V198.3C252.324 199 250.784 199.336 248.936 199.336C244.54 199.336 241.628 196.844 241.628 192.336C241.628 190.208 242.244 188.5 243.476 187.184C244.736 185.868 246.36 185.224 248.376 185.224ZM248.376 187.66C246.388 187.66 245.044 189.06 244.904 191.076H251.568C251.484 188.836 250.252 187.66 248.376 187.66ZM262.046 185.56H272.63L272.602 199H269.41L269.382 188.192H262.046L262.074 199H258.798V188.192H256.222V185.56H258.798V182.648C258.798 179.708 260.198 177.832 263.082 177.832C264.174 177.832 265.182 178.056 266.162 178.504V181.388C265.35 180.912 264.594 180.66 263.894 180.66C262.662 180.66 262.046 181.22 262.046 182.956V185.56ZM271.006 183.012C269.746 183.012 268.962 182.144 268.962 180.996C268.962 179.792 269.802 178.98 271.006 178.98C272.21 178.98 273.05 179.848 273.05 180.996C273.05 182.228 272.238 183.012 271.006 183.012ZM285.023 185.56V188.192H280.935L280.907 194.212C280.907 195.92 281.411 196.564 282.643 196.564C283.427 196.564 284.211 196.228 285.023 195.556V198.44C284.099 199.028 282.979 199.336 281.607 199.336C278.695 199.336 277.687 197.656 277.687 194.548V188.192H275.083V185.56H277.687L278.919 181.164H280.935V185.56H285.023ZM291.438 199.336C290.122 199.336 288.834 199.084 287.574 198.58V195.276C288.806 196.2 290.43 196.704 291.69 196.704C293.006 196.704 293.93 196.172 293.93 195.192C293.93 194.716 293.734 194.324 293.174 194.072C292.642 193.764 292.362 193.652 291.55 193.4L291.382 193.316L290.57 193.064C290.206 192.924 289.45 192.588 289.03 192.336C288.134 191.72 287.434 190.908 287.434 189.424C287.434 186.736 289.478 185.224 292.586 185.224C293.93 185.224 295.134 185.448 296.226 185.896V188.78C295.134 188.136 293.986 187.8 292.838 187.8C291.634 187.8 290.878 188.276 290.878 189.144C290.878 189.508 291.074 189.844 291.27 190.04C291.382 190.124 291.578 190.236 291.83 190.348C292.362 190.572 292.502 190.628 293.258 190.852L294.266 191.188C294.742 191.328 295.638 191.72 296.058 192.084C296.814 192.644 297.374 193.428 297.374 194.772C297.374 197.824 295.022 199.336 291.438 199.336Z" fill="#002244"/>
</svg>
