<svg width="40" height="40" viewBox="0 0 40 40" fill="none" xmlns="http://www.w3.org/2000/svg">
<path fill-rule="evenodd" clip-rule="evenodd" d="M20 2.0835C16.5482 2.0835 13.75 4.88172 13.75 8.3335C13.75 11.7853 16.5482 14.5835 20 14.5835C23.4518 14.5835 26.25 11.7853 26.25 8.3335C26.25 4.88172 23.4518 2.0835 20 2.0835ZM12.4618 14.1053L12.9984 13.5835C14.5947 15.7095 17.1367 17.0848 20 17.0848C22.8645 17.0848 25.4074 15.7084 27.0036 13.5809L27.5507 14.1176C29.3799 15.9468 31.2455 19.2197 31.2551 22.4931C31.2645 23.3739 31.2186 25.5446 30.2694 27.2705C30.0498 27.67 29.63 27.9181 29.1741 27.9181H26.8149L24.5487 36.9717C24.4094 37.528 23.9095 37.9182 23.3361 37.9182H16.6699C16.0964 37.9182 15.5965 37.528 15.4573 36.9717L13.1911 27.9181H10.8318C10.3759 27.9181 9.95622 27.67 9.73654 27.2705C8.78738 25.5446 8.74148 23.3739 8.75092 22.4931C8.76043 19.2247 10.6188 15.9483 12.4495 14.1176L12.4618 14.1053Z" fill="#002244"/>
</svg>
