<svg width="32" height="32" viewBox="0 0 32 32" fill="none" xmlns="http://www.w3.org/2000/svg">
<path fill-rule="evenodd" clip-rule="evenodd" d="M21.9823 1.87087C20.4634 1.66665 18.5226 1.66667 16.0722 1.66669H14.5886C12.1382 1.66667 10.1974 1.66665 8.67847 1.87087C7.11525 2.08103 5.84999 2.52385 4.85218 3.52166C3.85436 4.51947 3.41153 5.78472 3.20135 7.34794C2.99712 8.86688 2.99712 10.8077 2.99712 13.258L2.99707 18.7418C2.99703 21.1922 2.997 23.133 3.2012 24.652C3.41136 26.2152 3.85418 27.4805 4.852 28.4783C5.84982 29.4762 7.11509 29.919 8.67833 30.1292C10.1973 30.3334 12.1381 30.3334 14.5885 30.3334H16.0722H16.0731H16.0732C16.8249 30.3334 17.5287 30.3334 18.187 30.3275C17.9828 29.8192 17.936 29.251 18.0708 28.6997L19.6531 22.6409C18.8266 21.6562 18.3289 20.3862 18.3289 19C18.3289 15.8704 20.8659 13.3334 23.9956 13.3334C25.3946 13.3334 26.6752 13.8403 27.6636 14.6806V13.2581C27.6637 10.8078 27.6637 8.86693 27.4595 7.34799C27.2493 5.78476 26.8065 4.5195 25.8087 3.52168C24.8108 2.52386 23.5456 2.08104 21.9823 1.87087ZM8.99967 8.00002C8.99967 7.44774 9.44739 7.00002 9.99967 7.00002H20.6663C21.2186 7.00002 21.6663 7.44774 21.6663 8.00002C21.6663 8.55231 21.2186 9.00002 20.6663 9.00002H9.99967C9.44739 9.00002 8.99967 8.55231 8.99967 8.00002ZM8.99967 13.3334C8.99967 12.7811 9.44739 12.3334 9.99967 12.3334H15.9997C16.552 12.3334 16.9997 12.7811 16.9997 13.3334C16.9997 13.8856 16.552 14.3334 15.9997 14.3334H9.99967C9.44739 14.3334 8.99967 13.8856 8.99967 13.3334ZM23.9955 23C26.2046 23 27.9955 21.2092 27.9955 19C27.9955 16.7909 26.2046 15 23.9955 15C21.7864 15 19.9955 16.7909 19.9955 19C19.9955 21.2092 21.7864 23 23.9955 23ZM19.6924 29.0848L20.8999 23.7469C21.7896 24.328 22.8526 24.6657 23.9945 24.6657C25.1801 24.6657 26.2807 24.3016 27.1906 23.679L28.303 29.1112C28.3853 29.4736 28.2599 29.8518 27.9773 30.0931C27.6947 30.3345 27.3015 30.3992 26.9564 30.2612L23.9945 29.0764L21.0326 30.2612C20.683 30.401 20.2845 30.3326 20.0015 30.0843C19.7185 29.8359 19.599 29.4496 19.6924 29.0848Z" fill="#F79009"/>
</svg>
