<svg width="24" height="24" viewBox="0 0 24 24" fill="none" xmlns="http://www.w3.org/2000/svg">
<path fill-rule="evenodd" clip-rule="evenodd" d="M7.06551 7.96421C7.0655 7.05997 7.0655 6.33069 7.11859 5.7424C7.17332 5.13605 7.28913 4.60625 7.56581 4.125C7.89357 3.55493 8.36498 3.08154 8.93266 2.75241C9.4119 2.47456 9.93948 2.35826 10.5433 2.30331C11.1291 2.24999 11.8553 2.24999 12.7557 2.25H12.7557H12.7558H12.7558H16.0829H16.0829H16.083H16.083C17.4448 2.24998 18.5425 2.24997 19.4058 2.36653C20.3022 2.48754 21.0569 2.74644 21.6563 3.34835C22.2556 3.95027 22.5135 4.70814 22.634 5.60825C22.75 6.47522 22.75 7.57754 22.75 8.94513V15.0549C22.75 16.4225 22.75 17.5248 22.634 18.3918C22.5135 19.2919 22.2556 20.0497 21.6563 20.6517C21.0569 21.2536 20.3022 21.5125 19.4058 21.6335C18.5425 21.75 17.4448 21.75 16.0829 21.75H6.25C6.75896 21.1416 7.06551 20.3568 7.06551 19.5V7.96421ZM19.5 8.75L10.5 8.75037C10.0858 8.75038 9.75002 8.41461 9.75 8.0004C9.74998 7.58618 10.0858 7.25038 10.5 7.25037L19.5 7.25C19.9142 7.24998 20.25 7.58576 20.25 7.99997C20.25 8.41418 19.9142 8.74998 19.5 8.75ZM9.75 12C9.75 11.5858 10.0858 11.25 10.5 11.25H13C13.4142 11.25 13.75 11.5858 13.75 12C13.75 12.4142 13.4142 12.75 13 12.75H10.5C10.0858 12.75 9.75 12.4142 9.75 12ZM16.25 12C16.25 11.5858 16.5858 11.25 17 11.25H19.5C19.9142 11.25 20.25 11.5858 20.25 12C20.25 12.4142 19.9142 12.75 19.5 12.75H17C16.5858 12.75 16.25 12.4142 16.25 12ZM9.75 16C9.75 15.5858 10.0858 15.25 10.5 15.25H13C13.4142 15.25 13.75 15.5858 13.75 16C13.75 16.4142 13.4142 16.75 13 16.75H10.5C10.0858 16.75 9.75 16.4142 9.75 16ZM16.25 16C16.25 15.5858 16.5858 15.25 17 15.25H19.5C19.9142 15.25 20.25 15.5858 20.25 16C20.25 16.4142 19.9142 16.75 19.5 16.75H17C16.5858 16.75 16.25 16.4142 16.25 16ZM5.75 19.5V7.25H4.97475H4.97474C4.53028 7.24999 4.15925 7.24999 3.85464 7.27077C3.53754 7.29241 3.23801 7.33905 2.94762 7.45933C2.27379 7.73844 1.73844 8.27379 1.45933 8.94762C1.33905 9.23801 1.29241 9.53754 1.27077 9.85464C1.24999 10.1592 1.24999 10.5303 1.25 10.9747V10.9747V10.9747V19.5C1.25 20.7426 2.25736 21.75 3.5 21.75C4.74264 21.75 5.75 20.7426 5.75 19.5Z" fill="#FFCC33"/>
</svg>
