<svg width="40" height="40" viewBox="0 0 40 40" fill="none" xmlns="http://www.w3.org/2000/svg">
<path opacity="0.4" fill-rule="evenodd" clip-rule="evenodd" d="M34.5398 8.95926C35 9.73111 35 10.6457 35 12.4749V36.6667L23.3333 36.6667L23.3333 8.27917C23.3333 5.40772 23.3333 3.972 24.3603 3.47861C25.3872 2.98523 26.7179 3.78162 29.3794 5.37441L29.3794 5.37442L31.5366 6.66542C33.232 7.68008 34.0797 8.18741 34.5398 8.95926ZM5.46015 8.95926C5 9.73111 5 10.6457 5 12.4749L5 36.6667H16.6667L16.6667 8.27917C16.6667 5.40772 16.6667 3.972 15.6397 3.47861C14.6128 2.98523 13.2821 3.78163 10.6206 5.37442L10.6206 5.37442L8.46344 6.66542C6.76802 7.68008 5.92031 8.18741 5.46015 8.95926Z" fill="#002244"/>
<path fill-rule="evenodd" clip-rule="evenodd" d="M2.08398 36.6667C2.08398 35.9764 2.64363 35.4167 3.33398 35.4167H3.75064L3.75064 12.415C3.7506 11.5515 3.75058 10.8103 3.81485 10.1914C3.88386 9.52703 4.03374 8.91193 4.38712 8.31917C4.73651 7.73311 5.20934 7.29593 5.76392 6.89253C6.2909 6.50921 6.96728 6.10444 7.7749 5.62112L7.77516 5.62096L7.77523 5.62093L9.97934 4.30184L10.0609 4.253L10.061 4.25294L10.0612 4.25287C11.3221 3.49815 12.3817 2.86399 13.2558 2.49337C14.1513 2.11369 15.1731 1.86737 16.1817 2.35191C17.2384 2.8596 17.6174 3.84346 17.7723 4.78402C17.9175 5.66563 17.9174 6.82794 17.9173 8.17058V8.1706L17.9173 8.27917V13.7501H22.084V8.27917L22.084 8.1706C22.0839 6.82795 22.0838 5.66564 22.229 4.78402C22.3839 3.84346 22.7629 2.8596 23.8196 2.35191C24.8282 1.86737 25.85 2.11369 26.7455 2.49337C27.6197 2.864 28.6792 3.49819 29.9403 4.25295L29.9404 4.253L32.2261 5.62095C33.0339 6.10434 33.7103 6.50917 34.2374 6.89253C34.792 7.29593 35.2648 7.73311 35.6142 8.31917C35.9676 8.91193 36.1174 9.52703 36.1865 10.1914C36.2507 10.8103 36.2507 11.5515 36.2507 12.415V35.4167H36.6673C37.3577 35.4167 37.9173 35.9764 37.9173 36.6667C37.9173 37.3571 37.3577 37.9167 36.6673 37.9167H35.0007L23.334 37.9167H16.6673H5.00064H3.33398C2.64363 37.9167 2.08398 37.3571 2.08398 36.6667ZM15.4173 35.4167H6.25064L6.25064 12.4749C6.25064 11.5349 6.25219 10.9242 6.30147 10.4497C6.3475 10.0066 6.4277 9.77846 6.53447 9.59936C6.64523 9.41357 6.82633 9.21116 7.2345 8.91426C7.66002 8.60475 8.2391 8.25683 9.106 7.73802L11.2632 6.44702C12.6276 5.63046 13.5372 5.08949 14.2317 4.79504C14.9068 4.50881 15.0727 4.59211 15.0975 4.60454L15.0991 4.60533L15.1009 4.60621C15.1204 4.61555 15.1294 4.61985 15.1529 4.66047C15.192 4.72783 15.2543 4.87892 15.3055 5.19023C15.4132 5.844 15.4173 6.79631 15.4173 8.27917L15.4173 35.4167ZM17.9173 35.4167H22.084V26.2501H17.9173V35.4167ZM17.9173 16.2501H22.084L22.084 23.7501H17.9173V16.2501ZM24.584 8.27917L24.584 35.4167L33.7507 35.4167V12.4749C33.7507 11.5349 33.7491 10.9242 33.6998 10.4497C33.6538 10.0066 33.5736 9.77846 33.4668 9.59936C33.3561 9.41357 33.175 9.21116 32.7668 8.91426C32.3413 8.60475 31.7622 8.25683 30.8953 7.73802L28.7381 6.44702C27.3737 5.63046 26.4641 5.08949 25.7696 4.79504C25.0945 4.50882 24.9286 4.59211 24.9038 4.60454L24.9023 4.60533L24.9004 4.60621C24.8809 4.61555 24.8719 4.61985 24.8484 4.66047C24.8093 4.72783 24.747 4.87892 24.6958 5.19023C24.5881 5.844 24.584 6.79631 24.584 8.27917ZM9.1543 13.3334C9.1543 12.4129 9.90049 11.6667 10.821 11.6667H10.8359C11.7564 11.6667 12.5026 12.4129 12.5026 13.3334C12.5026 14.2539 11.7564 15.0001 10.8359 15.0001H10.821C9.90049 15.0001 9.1543 14.2539 9.1543 13.3334ZM9.1543 20.0001C9.1543 19.0796 9.90049 18.3334 10.821 18.3334H10.8359C11.7564 18.3334 12.5026 19.0796 12.5026 20.0001C12.5026 20.9206 11.7564 21.6667 10.8359 21.6667H10.821C9.90049 21.6667 9.1543 20.9206 9.1543 20.0001ZM9.1543 26.6667C9.1543 25.7463 9.90049 25.0001 10.821 25.0001H10.8359C11.7564 25.0001 12.5026 25.7463 12.5026 26.6667C12.5026 27.5872 11.7564 28.3334 10.8359 28.3334H10.821C9.90049 28.3334 9.1543 27.5872 9.1543 26.6667ZM29.1543 11.6667C28.2338 11.6667 27.4876 12.4129 27.4876 13.3334C27.4876 14.2539 28.2338 15.0001 29.1543 15.0001H29.1693C30.0897 15.0001 30.8359 14.2539 30.8359 13.3334C30.8359 12.4129 30.0897 11.6667 29.1693 11.6667H29.1543ZM29.1543 18.3334C28.2338 18.3334 27.4876 19.0796 27.4876 20.0001C27.4876 20.9206 28.2338 21.6667 29.1543 21.6667H29.1693C30.0897 21.6667 30.8359 20.9206 30.8359 20.0001C30.8359 19.0796 30.0897 18.3334 29.1693 18.3334H29.1543ZM29.1543 25.0001C28.2338 25.0001 27.4876 25.7463 27.4876 26.6667C27.4876 27.5872 28.2338 28.3334 29.1543 28.3334H29.1693C30.0897 28.3334 30.8359 27.5872 30.8359 26.6667C30.8359 25.7463 30.0897 25.0001 29.1693 25.0001H29.1543Z" fill="#002244"/>
</svg>
