<svg width="32" height="32" viewBox="0 0 32 32" fill="none" xmlns="http://www.w3.org/2000/svg">
<path fill-rule="evenodd" clip-rule="evenodd" d="M4.66699 2.66669H12.667C13.4034 2.66669 14.0003 3.26364 14.0003 4.00002V12C14.0003 12.7364 13.4034 13.3334 12.667 13.3334H4.66699C3.93061 13.3334 3.33366 12.7364 3.33366 12V4.00002C3.33366 3.26364 3.93061 2.66669 4.66699 2.66669ZM20.0003 18H28.0003C28.7367 18 29.3337 18.597 29.3337 19.3334V27.3334C29.3337 28.0697 28.7367 28.6667 28.0003 28.6667H20.0003C19.2639 28.6667 18.667 28.0697 18.667 27.3334V19.3334C18.667 18.597 19.2639 18 20.0003 18ZM14.2369 24.3717C14.8104 23.7983 14.8104 22.8685 14.2369 22.295L9.70538 17.7635C9.1319 17.19 8.20209 17.19 7.6286 17.7635L3.09711 22.295C2.52362 22.8685 2.52362 23.7983 3.09711 24.3717L7.6286 28.9032C8.20209 29.4767 9.1319 29.4767 9.70538 28.9032L14.2369 24.3717ZM24.667 4.00002C24.667 3.26364 24.07 2.66669 23.3337 2.66669C22.5973 2.66669 22.0003 3.26364 22.0003 4.00002V7.33335H18.667C17.9306 7.33335 17.3337 7.93031 17.3337 8.66669C17.3337 9.40307 17.9306 10 18.667 10H22.0003V13.3334C22.0003 14.0697 22.5973 14.6667 23.3337 14.6667C24.07 14.6667 24.667 14.0697 24.667 13.3334V10H28.0003C28.7367 10 29.3337 9.40307 29.3337 8.66669C29.3337 7.93031 28.7367 7.33335 28.0003 7.33335H24.667V4.00002Z" fill="#17B26A"/>
</svg>
