<svg width="25" height="24" viewBox="0 0 25 24" fill="none" xmlns="http://www.w3.org/2000/svg">
<path fill-rule="evenodd" clip-rule="evenodd" d="M12.5 3C7.52944 3 3.5 7.02944 3.5 12C3.5 16.9706 7.52944 21 12.5 21C17.4706 21 21.5 16.9706 21.5 12C21.5 11.3823 21.4379 10.78 21.32 10.1989C21.2101 9.65769 21.5598 9.12985 22.101 9.01999C22.6423 8.91012 23.1701 9.25982 23.28 9.80107C23.4244 10.5124 23.5 11.2479 23.5 12C23.5 18.0751 18.5751 23 12.5 23C6.42487 23 1.5 18.0751 1.5 12C1.5 5.92487 6.42487 1 12.5 1C13.2521 1 13.9876 1.07563 14.6989 1.22002C15.2402 1.32989 15.5899 1.85772 15.48 2.39897C15.3701 2.94022 14.8423 3.28992 14.3011 3.18005C13.72 3.06209 13.1177 3 12.5 3ZM12.5 8C10.2909 8 8.5 9.79086 8.5 12C8.5 14.2091 10.2909 16 12.5 16C14.7091 16 16.5 14.2091 16.5 12C16.5 11.4477 16.9477 11 17.5 11C18.0523 11 18.5 11.4477 18.5 12C18.5 15.3137 15.8137 18 12.5 18C9.18629 18 6.5 15.3137 6.5 12C6.5 8.68629 9.18629 6 12.5 6C13.0523 6 13.5 6.44772 13.5 7C13.5 7.55228 13.0523 8 12.5 8ZM19.4726 1.01905C19.9963 1.10271 20.4845 1.47361 20.6421 2.07773L21.0105 3.48962L22.4224 3.858C23.0265 4.01562 23.3974 4.50383 23.4811 5.02757C23.5617 5.53232 23.3825 6.04375 23.017 6.40919L21.8677 7.55858C20.5983 8.82798 19.0339 8.93425 17.4051 8.50926L13.2071 12.7072C12.8166 13.0978 12.1834 13.0978 11.7929 12.7072C11.4024 12.3167 11.4024 11.6835 11.7929 11.293L15.9909 7.09504C15.5659 5.46618 15.6721 3.90187 16.9415 2.63246L18.0909 1.48308C18.4564 1.11764 18.9678 0.938419 19.4726 1.01905Z" fill="#FFCC33"/>
</svg>
