<svg width="25" height="24" viewBox="0 0 25 24" fill="none" xmlns="http://www.w3.org/2000/svg">
<path fill-rule="evenodd" clip-rule="evenodd" d="M8.75 7C8.75 3.82435 11.3244 1.25 14.5 1.25C17.6756 1.25 20.25 3.82435 20.25 7C20.25 10.1755 17.6757 12.75 14.5 12.75C11.3243 12.75 8.75 10.1755 8.75 7ZM1.75 12.75L6.25 12.75L6.25 22.75H1.75L1.75 12.75ZM16.7669 21.7498L7.5 21.7498L7.5 13.75H12.25C13.3546 13.75 14.25 14.6454 14.25 15.75C14.25 15.9226 14.2281 16.0901 14.187 16.2498H16.2547L19.7329 13.7019C20.6019 13.0351 21.8326 13.1138 22.6092 13.8881C23.5144 14.7907 23.4523 16.2726 22.4755 17.0968L22.4657 17.105L16.7669 21.7498Z" fill="#FFCC33"/>
</svg>
