<svg width="40" height="40" viewBox="0 0 40 40" fill="none" xmlns="http://www.w3.org/2000/svg">
<rect width="40" height="40" rx="6" fill="#FFFAEB"/>
<path fill-rule="evenodd" clip-rule="evenodd" d="M15.75 15C15.75 11.8244 18.3244 9.25 21.5 9.25C24.6756 9.25 27.25 11.8244 27.25 15C27.25 18.1755 24.6757 20.75 21.5 20.75C18.3243 20.75 15.75 18.1755 15.75 15ZM8.75 20.75H13.25L13.25 30.75H8.75L8.75 20.75ZM23.7669 29.7498L14.5 29.7498L14.5 21.75H19.25C20.3546 21.75 21.25 22.6454 21.25 23.75C21.25 23.9226 21.2281 24.0901 21.187 24.2498H23.2547L26.7329 21.7019C27.6019 21.0351 28.8326 21.1138 29.6092 21.8881C30.5144 22.7907 30.4523 24.2726 29.4755 25.0968L29.4657 25.105L23.7669 29.7498Z" fill="#FFCC33"/>
</svg>
