<svg width="22" height="20" viewBox="0 0 22 20" fill="none" xmlns="http://www.w3.org/2000/svg">
<path fill-rule="evenodd" clip-rule="evenodd" d="M8.97395 0.25H13.026H13.0261C14.8081 0.249974 16.2444 0.249953 17.3741 0.399817C18.547 0.555409 19.5345 0.888272 20.3188 1.66217C21.1031 2.43606 21.4405 3.41047 21.5982 4.56775C21.75 5.68243 21.75 7.0997 21.75 8.85805V12.7857C21.75 13.3183 21.3125 13.75 20.7727 13.75C20.233 13.75 19.7955 13.3183 19.7955 12.7857V8.92857C19.7955 7.08304 19.7934 5.79589 19.6611 4.82473C19.5325 3.8813 19.2974 3.38171 18.9367 3.02587C18.5761 2.67003 18.0698 2.43803 17.1137 2.31119C16.1294 2.18062 14.8249 2.17857 12.9545 2.17857H9.04545C7.17506 2.17857 5.87058 2.18062 4.88634 2.31119C3.93021 2.43803 3.42389 2.67003 3.06326 3.02587C2.70263 3.38171 2.4675 3.8813 2.33895 4.82473C2.20662 5.79589 2.20455 7.08304 2.20455 8.92857V12.7857C2.20455 13.3183 1.76701 13.75 1.22727 13.75C0.687541 13.75 0.25 13.3183 0.25 12.7857V8.85802V8.858C0.249974 7.09968 0.249953 5.68242 0.401834 4.56775C0.559522 3.41047 0.896869 2.43606 1.68118 1.66217C2.4655 0.888272 3.45303 0.555409 4.6259 0.399817C5.75558 0.249953 7.19193 0.249974 8.97393 0.25H8.97395ZM8.5 4.5C8.5 3.94772 8.94771 3.5 9.5 3.5H12.5C13.0523 3.5 13.5 3.94772 13.5 4.5C13.5 5.05228 13.0523 5.5 12.5 5.5H9.5C8.94771 5.5 8.5 5.05228 8.5 4.5ZM5.99138 8.82805C9.11313 8.05732 12.8872 8.05732 16.009 8.82805C16.8102 9.02586 17.4181 9.61416 17.6939 10.3657C18.1104 11.5007 18.5829 13.3987 18.743 15.9595C18.8659 17.9257 17.4266 18.9614 16.2032 19.5903C15.47 19.9673 14.5928 19.6526 14.24 18.9272L13.418 17.2369C13.3782 17.1551 13.2916 17.0984 13.1915 17.0984H8.80884C8.70876 17.0984 8.62216 17.1551 8.58237 17.2369L7.76035 18.9272C7.40759 19.6526 6.5304 19.9673 5.79721 19.5903C4.57378 18.9614 3.13443 17.9257 3.25737 15.9595C3.41748 13.3987 3.88997 11.5007 4.30646 10.3657C4.58227 9.61416 5.19017 9.02586 5.99138 8.82805ZM8.00781 14.25C8.69817 14.25 9.25781 13.6904 9.25781 13C9.25781 12.3096 8.69817 11.75 8.00781 11.75H7.99883C7.30848 11.75 6.74883 12.3096 6.74883 13C6.74883 13.6904 7.30847 14.25 7.99883 14.25H8.00781ZM14.0078 14.25C14.6982 14.25 15.2578 13.6904 15.2578 13C15.2578 12.3096 14.6982 11.75 14.0078 11.75H13.9988C13.3085 11.75 12.7488 12.3096 12.7488 13C12.7488 13.6904 13.3085 14.25 13.9988 14.25H14.0078Z" fill="#FFCC33"/>
</svg>
