<svg width="49" height="55" viewBox="0 0 49 55" fill="none" xmlns="http://www.w3.org/2000/svg">
<path fill-rule="evenodd" clip-rule="evenodd" d="M24.3781 0L26.8905 20.6818C27.0101 21.6818 27.4089 22.5909 28.047 23.3182C28.685 24.0455 29.4826 24.5 30.36 24.6364L48.5051 27.5L30.36 30.3636C29.4826 30.5 28.685 30.9546 28.047 31.6818C27.4089 32.4091 27.0101 33.3182 26.8905 34.3182L24.3781 55L21.8656 34.3182C21.746 33.3182 21.3472 32.4091 20.7092 31.6818C20.0711 30.9546 19.2735 30.5 18.3961 30.3636L0.250977 27.5L18.3961 24.6364C19.2735 24.5 20.0711 24.0455 20.7092 23.3182C21.3472 22.5909 21.746 21.6818 21.8656 20.6818L24.3781 0Z" fill="#002244"/>
</svg>
