<svg width="40" height="40" viewBox="0 0 40 40" fill="none" xmlns="http://www.w3.org/2000/svg">
<path opacity="0.4" fill-rule="evenodd" clip-rule="evenodd" d="M5.80165 10.1404C4.13798 11.0663 3.33398 12.2881 3.33398 14.2817C3.33398 14.8223 3.33398 15.0926 3.39298 15.3148C3.70315 16.4823 4.76115 16.6666 5.78282 16.6666H6.66732V30.8333H8.33398C5.57248 30.8333 3.33398 33.0718 3.33398 35.8333C3.33398 36.2934 3.70715 36.6666 4.16732 36.6666H35.834C36.294 36.6666 36.6673 36.2934 36.6673 35.8333C36.6673 33.0718 34.429 30.8333 31.6673 30.8333H33.334V16.6666H34.219C35.2407 16.6666 36.2973 16.4823 36.609 15.3148C36.6673 15.0926 36.6673 14.8223 36.6673 14.2817C36.6673 12.2881 35.864 11.0663 34.199 10.1404L27.3507 6.32899C23.7623 4.33184 21.9673 3.33325 20.0007 3.33325C18.0335 3.33325 16.2392 4.33184 12.6505 6.32899L5.80165 10.1404ZM26.6673 30.8333V16.6666H13.334V30.8333H26.6673Z" fill="#141B34"/>
<path fill-rule="evenodd" clip-rule="evenodd" d="M17.4343 5.22769C16.359 5.69737 15.0736 6.41117 13.2585 7.42124L6.4098 11.2326C5.7068 11.6239 5.27697 12.0263 5.0113 12.4616C4.74847 12.8925 4.5843 13.4577 4.5843 14.2817C4.5843 14.5633 4.5843 14.733 4.5903 14.8611C4.59447 14.9537 4.60063 14.9891 4.6018 14.9955C4.63463 15.1183 4.67397 15.1719 4.69463 15.1955C4.71663 15.2207 4.7538 15.2528 4.82997 15.2867C5.01297 15.3682 5.31513 15.4166 5.78297 15.4166H34.219C34.6873 15.4166 34.989 15.3682 35.1723 15.2867C35.2473 15.2528 35.2856 15.2207 35.3073 15.1955C35.3273 15.1719 35.3673 15.1183 35.4006 14.9955C35.4006 14.9891 35.4073 14.9537 35.4123 14.8611C35.4173 14.733 35.4173 14.5633 35.4173 14.2817C35.4173 13.4577 35.254 12.8925 34.9906 12.4616C34.7256 12.0263 34.2956 11.6239 33.5923 11.2326L26.744 7.42124C24.929 6.41117 23.6423 5.69737 22.5673 5.22769C21.5171 4.76884 20.7531 4.58325 20.001 4.58325C19.2488 4.58325 18.4848 4.76884 17.4343 5.22769ZM20.001 2.08325C21.216 2.08325 22.3323 2.39697 23.569 2.93669C24.7673 3.46012 26.1556 4.23349 27.904 5.20624L34.8073 9.04814C35.769 9.58277 36.5723 10.2543 37.124 11.1597C37.6806 12.0696 37.9177 13.1121 37.9177 14.2817V14.3918C37.919 14.8176 37.919 15.2495 37.8173 15.6358C37.559 16.6079 36.9423 17.2345 36.189 17.5703C35.6506 17.8102 35.0756 17.8874 34.584 17.9091V30.3041C36.5673 31.3521 37.9177 33.4349 37.9177 35.8333C37.9177 36.9839 36.9856 37.9166 35.834 37.9166H4.16763C3.01697 37.9166 2.08398 36.9839 2.08398 35.8333C2.08398 33.4349 3.43513 31.3521 5.41763 30.3041V17.9091C4.9263 17.8874 4.35113 17.8102 3.81263 17.5703C3.0588 17.2345 2.44347 16.6079 2.18513 15.6358C2.10813 15.346 2.08935 15.0307 2.08506 14.7115L2.08398 14.2817C2.08398 13.1121 2.32197 12.0696 2.87713 11.1597C3.42947 10.2543 4.23347 9.58277 5.19413 9.04814L12.0976 5.2062C13.8456 4.23349 15.2351 3.46012 16.4335 2.93669C17.6691 2.39697 18.786 2.08325 20.001 2.08325ZM31.6673 32.0833H8.3343C6.40397 32.0833 4.81447 33.5416 4.60713 35.4166H35.394C35.1873 33.5416 33.5973 32.0833 31.6673 32.0833ZM7.91763 29.5969C8.0553 29.5879 8.1943 29.5833 8.3343 29.5833H12.0843V17.9166H7.91763V29.5969ZM14.5843 29.5833H25.4173V17.9166H14.5843V29.5833ZM27.9173 29.5833H31.6673C31.8073 29.5833 31.9473 29.5879 32.084 29.5969V17.9166H27.9173V29.5833ZM18.3273 11.6666C18.3273 10.7461 19.0735 9.99992 19.994 9.99992H20.009C20.9295 9.99992 21.6756 10.7461 21.6756 11.6666C21.6756 12.5871 20.9295 13.3333 20.009 13.3333H19.994C19.0735 13.3333 18.3273 12.5871 18.3273 11.6666Z" fill="white"/>
</svg>
