<svg width="40" height="40" viewBox="0 0 40 40" fill="none" xmlns="http://www.w3.org/2000/svg">
<path opacity="0.4" d="M34.9046 28.0588C33.8107 21.4775 30.4053 16.5767 27.4449 13.6982C26.5835 12.8605 26.1528 12.4417 25.2013 12.0541C24.2498 11.6665 23.432 11.6665 21.7963 11.6665H18.2037C16.568 11.6665 15.7502 11.6665 14.7987 12.0541C13.8472 12.4417 13.4165 12.8605 12.5551 13.6982C9.5947 16.5767 6.18934 21.4775 5.09545 28.0588C4.28155 32.9555 8.79879 36.6665 13.8472 36.6665H26.1528C31.2012 36.6665 35.7185 32.9555 34.9046 28.0588Z" fill="#141B34"/>
<path fill-rule="evenodd" clip-rule="evenodd" d="M18.4606 6.3758C18.6171 6.19448 18.7868 5.96378 18.9322 5.76621L18.9956 5.68017C19.171 5.44261 19.3372 5.22297 19.5078 5.02944C19.7904 4.70891 19.9505 4.6183 19.9994 4.59291C20.0484 4.6183 20.2085 4.70891 20.4911 5.02944C20.6617 5.22297 20.8279 5.44261 21.0033 5.68017L21.0667 5.76622C21.2121 5.96378 21.3818 6.19448 21.5383 6.3758C21.8251 6.70802 22.1882 7.09566 22.6779 7.3885C23.1955 7.69799 23.7816 7.86065 24.4679 7.87015C25.1539 7.87964 25.8287 7.67982 26.2959 7.53945L25.3201 8.95982C24.6022 10.0047 24.4748 10.1216 24.1997 10.2297C24.0251 10.2983 23.7731 10.3544 23.294 10.3849C22.8064 10.416 22.1785 10.4166 21.2631 10.4166H18.7358C17.8204 10.4166 17.1925 10.416 16.7049 10.3849C16.2257 10.3544 15.9738 10.2983 15.7992 10.2297C15.5241 10.1216 15.3967 10.0047 14.6788 8.95982L13.703 7.53945C14.1702 7.67982 14.845 7.87964 15.531 7.87015C16.2173 7.86065 16.8034 7.69799 17.321 7.3885C17.8107 7.09566 18.1738 6.70802 18.4606 6.3758ZM19.9994 2.08325C18.8717 2.08325 18.0615 2.88957 17.6325 3.37624C17.3841 3.65805 17.1623 3.9543 16.9846 4.19491L16.9172 4.28628L16.9172 4.2863C16.7604 4.49892 16.6561 4.64026 16.568 4.7423C16.3229 5.02627 16.1723 5.16251 16.0379 5.24286C15.9314 5.30656 15.7831 5.36642 15.4964 5.37039C15.2034 5.37444 14.8864 5.28109 14.309 5.11106L14.2438 5.09185C13.7247 4.93909 12.9335 4.70776 12.0951 4.83391C11.7308 4.88873 11.2527 5.01973 10.8824 5.39254C10.4438 5.83404 10.373 6.38339 10.4371 6.79859C10.4925 7.15736 10.649 7.45606 10.7514 7.63294C10.8487 7.80109 10.9623 7.96569 11.0377 8.07505L11.0635 8.11253L12.6183 10.3755L12.7131 10.514C12.9213 10.8182 13.1247 11.1154 13.3497 11.3905C12.7497 11.7656 12.2982 12.2048 11.7286 12.7588L11.684 12.8021C8.57396 15.8262 5.00895 20.9576 3.86269 27.854C3.37808 30.7697 4.49807 33.3283 6.42282 35.1152C8.3283 36.8842 11.0299 37.9167 13.8475 37.9167H26.1531C28.9708 37.9167 31.6724 36.8842 33.5778 35.1152C35.5026 33.3283 36.6226 30.7697 36.138 27.854C34.9917 20.9576 31.4267 15.8262 28.3167 12.8021L28.2721 12.7588C27.7021 12.2044 27.2503 11.765 26.6498 11.3898C26.8746 11.1149 27.0778 10.8179 27.2857 10.514L27.3806 10.3755L28.9354 8.11253L28.9612 8.07504C29.0366 7.96568 29.1502 7.80109 29.2475 7.63293C29.3499 7.45606 29.5064 7.15736 29.5618 6.79859C29.6259 6.38339 29.5551 5.83405 29.1165 5.39254C28.7462 5.01973 28.2681 4.88873 27.9038 4.83391C27.0654 4.70776 26.2742 4.93909 25.7551 5.09185L25.6899 5.11106C25.1125 5.28109 24.7955 5.37444 24.5025 5.37039C24.2158 5.36642 24.0675 5.30656 23.961 5.24286C23.8266 5.16251 23.676 5.02627 23.4309 4.7423C23.3428 4.64027 23.2386 4.49896 23.0818 4.28639L23.0817 4.28628L23.0143 4.19491C22.8366 3.9543 22.6148 3.65805 22.3664 3.37624C21.9374 2.88957 21.1272 2.08325 19.9994 2.08325ZM15.2706 13.2119C15.954 12.9335 16.5123 12.9167 18.204 12.9167H21.7966C23.4884 12.9167 24.0467 12.9335 24.73 13.2119C25.4348 13.499 25.7139 13.7583 26.5739 14.5945C29.3846 17.3275 32.6303 21.9976 33.6718 28.2639C34.0011 30.245 33.2694 31.9902 31.8769 33.283C30.4651 34.5937 28.3839 35.4167 26.1531 35.4167H13.8475C11.6168 35.4167 9.53552 34.5937 8.12376 33.283C6.73126 31.9902 5.99958 30.245 6.32886 28.2639C7.3704 21.9976 10.6161 17.3275 13.4268 14.5945C14.2867 13.7583 14.5659 13.499 15.2706 13.2119Z" fill="white"/>
</svg>
