<svg width="429" height="524" viewBox="0 0 429 524" fill="none" xmlns="http://www.w3.org/2000/svg">
<g opacity="0.48">
<g opacity="0.02">
<path fill-rule="evenodd" clip-rule="evenodd" d="M11.8959 -3.13983C15.2666 10.9627 13.9292 24.0712 7.28431 37.2433C-7.51587 42.9775 -25.6332 44.0579 -41.5268 41.4773C-45.5431 26.1223 -42.2952 11.3185 -36.6417 0.940734C-22.0368 -5.10169 -3.97217 -5.87056 11.8821 -3.13644L11.8963 -3.14016L11.8959 -3.13983Z" fill="#002244"/>
<path fill-rule="evenodd" clip-rule="evenodd" d="M11.8959 104.174C15.2666 118.277 13.9292 131.385 7.28431 144.557C-7.51587 150.291 -25.6332 151.372 -41.5268 148.791C-45.5431 133.436 -42.2952 118.632 -36.6417 108.255C-22.0368 102.212 -3.97217 101.443 11.8821 104.178L11.8963 104.174L11.8959 104.174Z" fill="#002244"/>
<path fill-rule="evenodd" clip-rule="evenodd" d="M11.7321 96.8793C15.1027 82.7778 13.7653 69.672 7.12046 56.4962C-7.67242 50.7654 -25.8096 49.6863 -41.6753 52.2656C-45.6915 67.6206 -42.4437 82.4257 -36.7901 92.8055C-22.1853 98.8446 -4.12223 99.6131 11.7321 96.8793Z" fill="#002244"/>
<path fill-rule="evenodd" clip-rule="evenodd" d="M11.8959 211.488C15.2666 225.591 13.9292 238.699 7.28431 251.871C-7.51587 257.606 -25.6332 258.686 -41.5268 256.105C-45.5431 240.75 -42.2952 225.947 -36.6417 215.569C-22.0368 209.526 -3.97217 208.758 11.8821 211.492L11.8963 211.488L11.8959 211.488Z" fill="#002244"/>
<path fill-rule="evenodd" clip-rule="evenodd" d="M11.7321 204.194C15.1027 190.092 13.7653 176.986 7.12046 163.81C-7.67242 158.08 -25.8096 157 -41.6753 159.58C-45.6915 174.935 -42.4437 189.74 -36.7901 200.12C-22.1853 206.159 -4.12223 206.927 11.7321 204.194Z" fill="#002244"/>
<path fill-rule="evenodd" clip-rule="evenodd" d="M11.8959 318.803C15.2666 332.905 13.9292 346.014 7.28431 359.186C-7.51587 364.92 -25.6332 366 -41.5268 363.42C-45.5431 348.065 -42.2952 333.261 -36.6417 322.883C-22.0368 316.841 -3.97217 316.072 11.8821 318.806L11.8963 318.802L11.8959 318.803Z" fill="#002244"/>
<path fill-rule="evenodd" clip-rule="evenodd" d="M11.7321 311.508C15.1027 297.406 13.7653 284.3 7.12046 271.125C-7.67242 265.394 -25.8096 264.315 -41.6753 266.894C-45.6915 282.249 -42.4437 297.054 -36.7901 307.434C-22.1853 313.473 -4.12223 314.241 11.7321 311.508Z" fill="#002244"/>
<path fill-rule="evenodd" clip-rule="evenodd" d="M11.8959 426.117C15.2666 440.219 13.9292 453.328 7.28431 466.5C-7.51587 472.234 -25.6332 473.315 -41.5268 470.734C-45.5431 455.379 -42.2952 440.575 -36.6417 430.197C-22.0368 424.155 -3.97217 423.386 11.8821 426.12L11.8963 426.116L11.8959 426.117Z" fill="#002244"/>
<path fill-rule="evenodd" clip-rule="evenodd" d="M11.7321 418.822C15.1027 404.72 13.7653 391.615 7.12046 378.439C-7.67242 372.708 -25.8096 371.629 -41.6753 374.208C-45.6915 389.563 -42.4437 404.368 -36.7901 414.748C-22.1853 420.787 -4.12223 421.556 11.7321 418.822Z" fill="#002244"/>
<path fill-rule="evenodd" clip-rule="evenodd" d="M11.7321 526.136C15.1027 512.035 13.7653 498.929 7.12046 485.753C-7.67242 480.022 -25.8096 478.943 -41.6753 481.522C-45.6915 496.877 -42.4437 511.683 -36.7901 522.062C-22.1853 528.101 -4.12223 528.87 11.7321 526.136Z" fill="#002244"/>
<path fill-rule="evenodd" clip-rule="evenodd" d="M26.4473 -3.16935C23.0767 10.9331 24.4141 24.0389 31.0589 37.2147C45.8603 42.9479 63.9781 44.0284 79.8701 41.4477C83.8863 26.0927 80.6385 11.2853 74.9849 0.907481C60.3801 -5.13021 42.317 -5.90009 26.4623 -3.16631L26.4469 -3.1697L26.4473 -3.16935Z" fill="#002244"/>
<path fill-rule="evenodd" clip-rule="evenodd" d="M142.312 -3.13983C145.683 10.9627 144.345 24.0712 137.7 37.2433C122.9 42.9775 104.783 44.0579 88.8892 41.4773C84.8729 26.1223 88.1208 11.3185 93.7744 0.940734C108.379 -5.10169 126.444 -5.87056 142.298 -3.13644L142.312 -3.14016L142.312 -3.13983Z" fill="#002244"/>
<path fill-rule="evenodd" clip-rule="evenodd" d="M26.5235 97.0171C23.1529 82.9146 24.4902 69.8098 31.1351 56.634C45.9284 50.9069 64.0502 49.8264 79.9308 52.4058C83.9471 67.7621 80.6993 82.5692 75.0457 92.947C60.4453 98.9847 42.3624 99.7536 26.5235 97.0208V97.0174V97.0171Z" fill="#002244"/>
<path fill-rule="evenodd" clip-rule="evenodd" d="M26.4473 104.145C23.0767 118.247 24.4141 131.353 31.0589 144.529C45.8603 150.262 63.9781 151.342 79.8701 148.762C83.8863 133.407 80.6385 118.599 74.9849 108.221C60.3801 102.184 42.317 101.414 26.4623 104.148L26.4469 104.144L26.4473 104.145Z" fill="#002244"/>
<path fill-rule="evenodd" clip-rule="evenodd" d="M142.312 104.174C145.683 118.277 144.345 131.385 137.7 144.557C122.9 150.291 104.783 151.372 88.8892 148.791C84.8729 133.436 88.1208 118.632 93.7744 108.255C108.379 102.212 126.444 101.443 142.298 104.178L142.312 104.174L142.312 104.174Z" fill="#002244"/>
<path fill-rule="evenodd" clip-rule="evenodd" d="M142.148 96.8793C145.519 82.7778 144.181 69.672 137.536 56.4962C122.744 50.7654 104.606 49.6863 88.7407 52.2656C84.7245 67.6206 87.9723 82.4257 93.6259 92.8055C108.231 98.8446 126.294 99.6131 142.148 96.8793Z" fill="#002244"/>
<path fill-rule="evenodd" clip-rule="evenodd" d="M26.5235 204.331C23.1529 190.229 24.4902 177.124 31.1351 163.948C45.9284 158.221 64.0502 157.141 79.9308 159.72C83.9471 175.076 80.6993 189.883 75.0457 200.261C60.4453 206.299 42.3624 207.068 26.5235 204.335V204.332V204.331Z" fill="#002244"/>
<path fill-rule="evenodd" clip-rule="evenodd" d="M26.4473 211.459C23.0767 225.561 24.4141 238.667 31.0589 251.843C45.8603 257.576 63.9781 258.657 79.8701 256.076C83.8863 240.721 80.6385 225.913 74.9849 215.536C60.3801 209.498 42.317 208.728 26.4623 211.462L26.4469 211.458L26.4473 211.459Z" fill="#002244"/>
<path fill-rule="evenodd" clip-rule="evenodd" d="M142.312 211.488C145.683 225.591 144.345 238.699 137.7 251.871C122.9 257.606 104.783 258.686 88.8892 256.105C84.8729 240.75 88.1208 225.947 93.7744 215.569C108.379 209.526 126.444 208.758 142.298 211.492L142.312 211.488L142.312 211.488Z" fill="#002244"/>
<path fill-rule="evenodd" clip-rule="evenodd" d="M142.148 204.194C145.519 190.092 144.181 176.986 137.536 163.81C122.744 158.08 104.606 157 88.7407 159.58C84.7245 174.935 87.9723 189.74 93.6259 200.12C108.231 206.159 126.294 206.927 142.148 204.194Z" fill="#002244"/>
<path fill-rule="evenodd" clip-rule="evenodd" d="M26.5235 311.646C23.1529 297.543 24.4902 284.438 31.1351 271.262C45.9284 265.535 64.0502 264.455 79.9308 267.034C83.9471 282.391 80.6993 297.198 75.0457 307.575C60.4453 313.613 42.3624 314.382 26.5235 311.649V311.646V311.646Z" fill="#002244"/>
<path fill-rule="evenodd" clip-rule="evenodd" d="M26.4473 318.773C23.0767 332.876 24.4141 345.981 31.0589 359.157C45.8603 364.89 63.9781 365.971 79.8701 363.39C83.8863 348.035 80.6385 333.228 74.9849 322.85C60.3801 316.812 42.317 316.042 26.4623 318.776L26.4469 318.773L26.4473 318.773Z" fill="#002244"/>
<path fill-rule="evenodd" clip-rule="evenodd" d="M142.312 318.803C145.683 332.905 144.345 346.014 137.7 359.186C122.9 364.92 104.783 366 88.8892 363.42C84.8729 348.065 88.1208 333.261 93.7744 322.883C108.379 316.841 126.444 316.072 142.298 318.806L142.312 318.802L142.312 318.803Z" fill="#002244"/>
<path fill-rule="evenodd" clip-rule="evenodd" d="M142.148 311.508C145.519 297.406 144.181 284.3 137.536 271.125C122.744 265.394 104.606 264.315 88.7407 266.894C84.7245 282.249 87.9723 297.054 93.6259 307.434C108.231 313.473 126.294 314.241 142.148 311.508Z" fill="#002244"/>
<path fill-rule="evenodd" clip-rule="evenodd" d="M26.5235 418.96C23.1529 404.857 24.4902 391.752 31.1351 378.577C45.9284 372.85 64.0502 371.769 79.9308 374.348C83.9471 389.705 80.6993 404.512 75.0457 414.89C60.4453 420.927 42.3624 421.696 26.5235 418.963V418.96V418.96Z" fill="#002244"/>
<path fill-rule="evenodd" clip-rule="evenodd" d="M26.4473 426.087C23.0767 440.19 24.4141 453.296 31.0589 466.471C45.8603 472.205 63.9781 473.285 79.8701 470.704C83.8863 455.349 80.6385 440.542 74.9849 430.164C60.3801 424.126 42.317 423.357 26.4623 426.09L26.4469 426.087L26.4473 426.087Z" fill="#002244"/>
<path fill-rule="evenodd" clip-rule="evenodd" d="M142.312 426.117C145.683 440.219 144.345 453.328 137.7 466.5C122.9 472.234 104.783 473.315 88.8892 470.734C84.8729 455.379 88.1208 440.575 93.7744 430.197C108.379 424.155 126.444 423.386 142.298 426.12L142.312 426.116L142.312 426.117Z" fill="#002244"/>
<path fill-rule="evenodd" clip-rule="evenodd" d="M142.148 418.822C145.519 404.72 144.181 391.615 137.536 378.439C122.744 372.708 104.606 371.629 88.7407 374.208C84.7245 389.563 87.9723 404.368 93.6259 414.748C108.231 420.787 126.294 421.556 142.148 418.822Z" fill="#002244"/>
<path fill-rule="evenodd" clip-rule="evenodd" d="M26.5235 526.274C23.1529 512.171 24.4902 499.067 31.1351 485.891C45.9284 480.164 64.0502 479.083 79.9308 481.663C83.9471 497.019 80.6993 511.826 75.0457 522.204C60.4453 528.242 42.3624 529.01 26.5235 526.278V526.274V526.274Z" fill="#002244"/>
<path fill-rule="evenodd" clip-rule="evenodd" d="M142.148 526.136C145.519 512.035 144.181 498.929 137.536 485.753C122.744 480.022 104.606 478.943 88.7407 481.522C84.7245 496.877 87.9723 511.683 93.6259 522.062C108.231 528.101 126.294 528.87 142.148 526.136Z" fill="#002244"/>
<path fill-rule="evenodd" clip-rule="evenodd" d="M156.863 -3.16935C153.493 10.9331 154.83 24.0389 161.475 37.2147C176.276 42.9479 194.394 44.0284 210.286 41.4477C214.302 26.0927 211.054 11.2853 205.401 0.907481C190.796 -5.13021 172.733 -5.90009 156.878 -3.16631L156.863 -3.1697L156.863 -3.16935Z" fill="#002244"/>
<path fill-rule="evenodd" clip-rule="evenodd" d="M272.728 -3.13983C276.099 10.9627 274.761 24.0712 268.116 37.2433C253.316 42.9775 235.199 44.0579 219.305 41.4773C215.289 26.1223 218.537 11.3185 224.19 0.940734C238.795 -5.10169 256.86 -5.87056 272.714 -3.13644L272.728 -3.14016L272.728 -3.13983Z" fill="#002244"/>
<path fill-rule="evenodd" clip-rule="evenodd" d="M156.94 97.0171C153.569 82.9146 154.906 69.8098 161.551 56.634C176.344 50.9069 194.466 49.8264 210.347 52.4058C214.363 67.7621 211.115 82.5692 205.462 92.947C190.861 98.9847 172.778 99.7536 156.94 97.0208V97.0174V97.0171Z" fill="#002244"/>
<path fill-rule="evenodd" clip-rule="evenodd" d="M156.863 104.145C153.493 118.247 154.83 131.353 161.475 144.529C176.276 150.262 194.394 151.342 210.286 148.762C214.302 133.407 211.054 118.599 205.401 108.221C190.796 102.184 172.733 101.414 156.878 104.148L156.863 104.144L156.863 104.145Z" fill="#002244"/>
<path fill-rule="evenodd" clip-rule="evenodd" d="M272.728 104.174C276.099 118.277 274.761 131.385 268.116 144.557C253.316 150.291 235.199 151.372 219.305 148.791C215.289 133.436 218.537 118.632 224.19 108.255C238.795 102.212 256.86 101.443 272.714 104.178L272.728 104.174L272.728 104.174Z" fill="#002244"/>
<path fill-rule="evenodd" clip-rule="evenodd" d="M272.564 96.8793C275.935 82.7778 274.597 69.672 267.952 56.4962C253.16 50.7654 235.022 49.6863 219.157 52.2656C215.141 67.6206 218.388 82.4257 224.042 92.8055C238.647 98.8446 256.71 99.6131 272.564 96.8793Z" fill="#002244"/>
<path fill-rule="evenodd" clip-rule="evenodd" d="M156.94 204.331C153.569 190.229 154.906 177.124 161.551 163.948C176.344 158.221 194.466 157.141 210.347 159.72C214.363 175.076 211.115 189.883 205.462 200.261C190.861 206.299 172.778 207.068 156.94 204.335V204.332V204.331Z" fill="#002244"/>
<path fill-rule="evenodd" clip-rule="evenodd" d="M156.863 211.459C153.493 225.561 154.83 238.667 161.475 251.843C176.276 257.576 194.394 258.657 210.286 256.076C214.302 240.721 211.054 225.913 205.401 215.536C190.796 209.498 172.733 208.728 156.878 211.462L156.863 211.458L156.863 211.459Z" fill="#002244"/>
<path fill-rule="evenodd" clip-rule="evenodd" d="M272.728 211.488C276.099 225.591 274.761 238.699 268.116 251.871C253.316 257.606 235.199 258.686 219.305 256.105C215.289 240.75 218.537 225.947 224.19 215.569C238.795 209.526 256.86 208.758 272.714 211.492L272.728 211.488L272.728 211.488Z" fill="#002244"/>
<path fill-rule="evenodd" clip-rule="evenodd" d="M272.564 204.194C275.935 190.092 274.597 176.986 267.952 163.81C253.16 158.08 235.022 157 219.157 159.58C215.141 174.935 218.388 189.74 224.042 200.12C238.647 206.159 256.71 206.927 272.564 204.194Z" fill="#002244"/>
<path fill-rule="evenodd" clip-rule="evenodd" d="M156.94 311.646C153.569 297.543 154.906 284.438 161.551 271.262C176.344 265.535 194.466 264.455 210.347 267.034C214.363 282.391 211.115 297.198 205.462 307.575C190.861 313.613 172.778 314.382 156.94 311.649V311.646V311.646Z" fill="#002244"/>
<path fill-rule="evenodd" clip-rule="evenodd" d="M156.863 318.773C153.493 332.876 154.83 345.981 161.475 359.157C176.276 364.89 194.394 365.971 210.286 363.39C214.302 348.035 211.054 333.228 205.401 322.85C190.796 316.812 172.733 316.042 156.878 318.776L156.863 318.773L156.863 318.773Z" fill="#002244"/>
<path fill-rule="evenodd" clip-rule="evenodd" d="M272.728 318.803C276.099 332.905 274.761 346.014 268.116 359.186C253.316 364.92 235.199 366 219.305 363.42C215.289 348.065 218.537 333.261 224.19 322.883C238.795 316.841 256.86 316.072 272.714 318.806L272.728 318.802L272.728 318.803Z" fill="#002244"/>
<path fill-rule="evenodd" clip-rule="evenodd" d="M272.564 311.508C275.935 297.406 274.597 284.3 267.952 271.125C253.16 265.394 235.022 264.315 219.157 266.894C215.141 282.249 218.388 297.054 224.042 307.434C238.647 313.473 256.71 314.241 272.564 311.508Z" fill="#002244"/>
<path fill-rule="evenodd" clip-rule="evenodd" d="M156.94 418.96C153.569 404.857 154.906 391.752 161.551 378.577C176.344 372.85 194.466 371.769 210.347 374.348C214.363 389.705 211.115 404.512 205.462 414.89C190.861 420.927 172.778 421.696 156.94 418.963V418.96V418.96Z" fill="#002244"/>
<path fill-rule="evenodd" clip-rule="evenodd" d="M156.863 426.087C153.493 440.19 154.83 453.296 161.475 466.471C176.276 472.205 194.394 473.285 210.286 470.704C214.302 455.349 211.054 440.542 205.401 430.164C190.796 424.126 172.733 423.357 156.878 426.09L156.863 426.087L156.863 426.087Z" fill="#002244"/>
<path fill-rule="evenodd" clip-rule="evenodd" d="M272.728 426.117C276.099 440.219 274.761 453.328 268.116 466.5C253.316 472.234 235.199 473.315 219.305 470.734C215.289 455.379 218.537 440.575 224.19 430.197C238.795 424.155 256.86 423.386 272.714 426.12L272.728 426.116L272.728 426.117Z" fill="#002244"/>
<path fill-rule="evenodd" clip-rule="evenodd" d="M272.564 418.822C275.935 404.72 274.597 391.615 267.952 378.439C253.16 372.708 235.022 371.629 219.157 374.208C215.141 389.563 218.388 404.368 224.042 414.748C238.647 420.787 256.71 421.556 272.564 418.822Z" fill="#002244"/>
<path fill-rule="evenodd" clip-rule="evenodd" d="M156.94 526.274C153.569 512.171 154.906 499.067 161.551 485.891C176.344 480.164 194.466 479.083 210.347 481.663C214.363 497.019 211.115 511.826 205.462 522.204C190.861 528.242 172.778 529.01 156.94 526.278V526.274V526.274Z" fill="#002244"/>
<path fill-rule="evenodd" clip-rule="evenodd" d="M272.564 526.136C275.935 512.035 274.597 498.929 267.952 485.753C253.16 480.022 235.022 478.943 219.157 481.522C215.141 496.877 218.388 511.683 224.042 522.062C238.647 528.101 256.71 528.87 272.564 526.136Z" fill="#002244"/>
<path fill-rule="evenodd" clip-rule="evenodd" d="M287.279 -3.16935C283.909 10.9331 285.246 24.0389 291.891 37.2147C306.692 42.9479 324.81 44.0284 340.702 41.4477C344.718 26.0927 341.471 11.2853 335.817 0.907481C321.212 -5.13021 303.149 -5.90009 287.294 -3.16631L287.279 -3.1697L287.279 -3.16935Z" fill="#002244"/>
<path fill-rule="evenodd" clip-rule="evenodd" d="M403.144 -3.13983C406.515 10.9627 405.177 24.0712 398.532 37.2433C383.732 42.9775 365.615 44.0579 349.721 41.4773C345.705 26.1223 348.953 11.3185 354.606 0.940734C369.211 -5.10169 387.276 -5.87056 403.13 -3.13644L403.144 -3.14016L403.144 -3.13983Z" fill="#002244"/>
<path fill-rule="evenodd" clip-rule="evenodd" d="M287.356 97.0171C283.985 82.9146 285.322 69.8098 291.967 56.634C306.76 50.9069 324.882 49.8264 340.763 52.4058C344.779 67.7621 341.531 82.5692 335.878 92.947C321.277 98.9847 303.194 99.7536 287.356 97.0208V97.0174V97.0171Z" fill="#002244"/>
<path fill-rule="evenodd" clip-rule="evenodd" d="M287.279 104.145C283.909 118.247 285.246 131.353 291.891 144.529C306.692 150.262 324.81 151.342 340.702 148.762C344.718 133.407 341.471 118.599 335.817 108.221C321.212 102.184 303.149 101.414 287.294 104.148L287.279 104.144L287.279 104.145Z" fill="#002244"/>
<path fill-rule="evenodd" clip-rule="evenodd" d="M403.144 104.174C406.515 118.277 405.177 131.385 398.532 144.557C383.732 150.291 365.615 151.372 349.721 148.791C345.705 133.436 348.953 118.632 354.606 108.255C369.211 102.212 387.276 101.443 403.13 104.178L403.144 104.174L403.144 104.174Z" fill="#002244"/>
<path fill-rule="evenodd" clip-rule="evenodd" d="M402.98 96.8793C406.351 82.7778 405.013 69.672 398.369 56.4962C383.576 50.7654 365.438 49.6863 349.573 52.2656C345.557 67.6206 348.804 82.4257 354.458 92.8055C369.063 98.8446 387.126 99.6131 402.98 96.8793Z" fill="#002244"/>
<path fill-rule="evenodd" clip-rule="evenodd" d="M287.356 204.331C283.985 190.229 285.322 177.124 291.967 163.948C306.76 158.221 324.882 157.141 340.763 159.72C344.779 175.076 341.531 189.883 335.878 200.261C321.277 206.299 303.194 207.068 287.356 204.335V204.332V204.331Z" fill="#002244"/>
<path fill-rule="evenodd" clip-rule="evenodd" d="M287.279 211.459C283.909 225.561 285.246 238.667 291.891 251.843C306.692 257.576 324.81 258.657 340.702 256.076C344.718 240.721 341.471 225.913 335.817 215.536C321.212 209.498 303.149 208.728 287.294 211.462L287.279 211.458L287.279 211.459Z" fill="#002244"/>
<path fill-rule="evenodd" clip-rule="evenodd" d="M403.144 211.488C406.515 225.591 405.177 238.699 398.532 251.871C383.732 257.606 365.615 258.686 349.721 256.105C345.705 240.75 348.953 225.947 354.606 215.569C369.211 209.526 387.276 208.758 403.13 211.492L403.144 211.488L403.144 211.488Z" fill="#002244"/>
<path fill-rule="evenodd" clip-rule="evenodd" d="M402.98 204.194C406.351 190.092 405.013 176.986 398.369 163.81C383.576 158.08 365.438 157 349.573 159.58C345.557 174.935 348.804 189.74 354.458 200.12C369.063 206.159 387.126 206.927 402.98 204.194Z" fill="#002244"/>
<path fill-rule="evenodd" clip-rule="evenodd" d="M287.356 311.646C283.985 297.543 285.322 284.438 291.967 271.262C306.76 265.535 324.882 264.455 340.763 267.034C344.779 282.391 341.531 297.198 335.878 307.575C321.277 313.613 303.194 314.382 287.356 311.649V311.646V311.646Z" fill="#002244"/>
<path fill-rule="evenodd" clip-rule="evenodd" d="M287.279 318.773C283.909 332.876 285.246 345.981 291.891 359.157C306.692 364.89 324.81 365.971 340.702 363.39C344.718 348.035 341.471 333.228 335.817 322.85C321.212 316.812 303.149 316.042 287.294 318.776L287.279 318.773L287.279 318.773Z" fill="#002244"/>
<path fill-rule="evenodd" clip-rule="evenodd" d="M403.144 318.803C406.515 332.905 405.177 346.014 398.532 359.186C383.732 364.92 365.615 366 349.721 363.42C345.705 348.065 348.953 333.261 354.606 322.883C369.211 316.841 387.276 316.072 403.13 318.806L403.144 318.802L403.144 318.803Z" fill="#002244"/>
<path fill-rule="evenodd" clip-rule="evenodd" d="M402.98 311.508C406.351 297.406 405.013 284.3 398.369 271.125C383.576 265.394 365.438 264.315 349.573 266.894C345.557 282.249 348.804 297.054 354.458 307.434C369.063 313.473 387.126 314.241 402.98 311.508Z" fill="#002244"/>
<path fill-rule="evenodd" clip-rule="evenodd" d="M287.356 418.96C283.985 404.857 285.322 391.752 291.967 378.577C306.76 372.85 324.882 371.769 340.763 374.348C344.779 389.705 341.531 404.512 335.878 414.89C321.277 420.927 303.194 421.696 287.356 418.963V418.96V418.96Z" fill="#002244"/>
<path fill-rule="evenodd" clip-rule="evenodd" d="M287.279 426.087C283.909 440.19 285.246 453.296 291.891 466.471C306.692 472.205 324.81 473.285 340.702 470.704C344.718 455.349 341.471 440.542 335.817 430.164C321.212 424.126 303.149 423.357 287.294 426.09L287.279 426.087L287.279 426.087Z" fill="#002244"/>
<path fill-rule="evenodd" clip-rule="evenodd" d="M403.144 426.117C406.515 440.219 405.177 453.328 398.532 466.5C383.732 472.234 365.615 473.315 349.721 470.734C345.705 455.379 348.953 440.575 354.606 430.197C369.211 424.155 387.276 423.386 403.13 426.12L403.144 426.116L403.144 426.117Z" fill="#002244"/>
<path fill-rule="evenodd" clip-rule="evenodd" d="M402.98 418.822C406.351 404.72 405.013 391.615 398.369 378.439C383.576 372.708 365.438 371.629 349.573 374.208C345.557 389.563 348.804 404.368 354.458 414.748C369.063 420.787 387.126 421.556 402.98 418.822Z" fill="#002244"/>
<path fill-rule="evenodd" clip-rule="evenodd" d="M287.356 526.274C283.985 512.171 285.322 499.067 291.967 485.891C306.76 480.164 324.882 479.083 340.763 481.663C344.779 497.019 341.531 511.826 335.878 522.204C321.277 528.242 303.194 529.01 287.356 526.278V526.274V526.274Z" fill="#002244"/>
<path fill-rule="evenodd" clip-rule="evenodd" d="M402.98 526.136C406.351 512.035 405.013 498.929 398.369 485.753C383.576 480.022 365.438 478.943 349.573 481.522C345.557 496.877 348.804 511.683 354.458 522.062C369.063 528.101 387.126 528.87 402.98 526.136Z" fill="#002244"/>
<path fill-rule="evenodd" clip-rule="evenodd" d="M417.693 -3.16935C414.323 10.9331 415.66 24.0389 422.305 37.2147C437.106 42.9479 455.224 44.0284 471.116 41.4477C475.132 26.0927 471.885 11.2853 466.231 0.907481C451.626 -5.13021 433.563 -5.90009 417.708 -3.16631L417.693 -3.1697L417.693 -3.16935Z" fill="#002244"/>
<path fill-rule="evenodd" clip-rule="evenodd" d="M417.77 97.0171C414.399 82.9146 415.736 69.8098 422.381 56.634C437.174 50.9069 455.296 49.8264 471.177 52.4058C475.193 67.7621 471.945 82.5692 466.292 92.947C451.691 98.9847 433.609 99.7536 417.77 97.0208V97.0174V97.0171Z" fill="#002244"/>
<path fill-rule="evenodd" clip-rule="evenodd" d="M417.693 104.145C414.323 118.247 415.66 131.353 422.305 144.529C437.106 150.262 455.224 151.342 471.116 148.762C475.132 133.407 471.885 118.599 466.231 108.221C451.626 102.184 433.563 101.414 417.708 104.148L417.693 104.144L417.693 104.145Z" fill="#002244"/>
<path fill-rule="evenodd" clip-rule="evenodd" d="M417.77 204.331C414.399 190.229 415.736 177.124 422.381 163.948C437.174 158.221 455.296 157.141 471.177 159.72C475.193 175.076 471.945 189.883 466.292 200.261C451.691 206.299 433.609 207.068 417.77 204.335V204.332V204.331Z" fill="#002244"/>
<path fill-rule="evenodd" clip-rule="evenodd" d="M417.693 211.459C414.323 225.561 415.66 238.667 422.305 251.843C437.106 257.576 455.224 258.657 471.116 256.076C475.132 240.721 471.885 225.913 466.231 215.536C451.626 209.498 433.563 208.728 417.708 211.462L417.693 211.458L417.693 211.459Z" fill="#002244"/>
<path fill-rule="evenodd" clip-rule="evenodd" d="M417.77 311.646C414.399 297.543 415.736 284.438 422.381 271.262C437.174 265.535 455.296 264.455 471.177 267.034C475.193 282.391 471.945 297.198 466.292 307.575C451.691 313.613 433.609 314.382 417.77 311.649V311.646V311.646Z" fill="#002244"/>
<path fill-rule="evenodd" clip-rule="evenodd" d="M417.693 318.773C414.323 332.876 415.66 345.981 422.305 359.157C437.106 364.89 455.224 365.971 471.116 363.39C475.132 348.035 471.885 333.228 466.231 322.85C451.626 316.812 433.563 316.042 417.708 318.776L417.693 318.773L417.693 318.773Z" fill="#002244"/>
<path fill-rule="evenodd" clip-rule="evenodd" d="M417.77 418.96C414.399 404.857 415.736 391.752 422.381 378.577C437.174 372.85 455.296 371.769 471.177 374.348C475.193 389.705 471.945 404.512 466.292 414.89C451.691 420.927 433.609 421.696 417.77 418.963V418.96V418.96Z" fill="#002244"/>
<path fill-rule="evenodd" clip-rule="evenodd" d="M417.693 426.087C414.323 440.19 415.66 453.296 422.305 466.471C437.106 472.205 455.224 473.285 471.116 470.704C475.132 455.349 471.885 440.542 466.231 430.164C451.626 424.126 433.563 423.357 417.708 426.09L417.693 426.087L417.693 426.087Z" fill="#002244"/>
<path fill-rule="evenodd" clip-rule="evenodd" d="M417.77 526.274C414.399 512.171 415.736 499.067 422.381 485.891C437.174 480.164 455.296 479.083 471.177 481.663C475.193 497.019 471.945 511.826 466.292 522.204C451.691 528.242 433.609 529.01 417.77 526.278V526.274V526.274Z" fill="#002244"/>
</g>
</g>
</svg>
