<svg width="40" height="40" viewBox="0 0 40 40" fill="none" xmlns="http://www.w3.org/2000/svg">
<path opacity="0.4" d="M6.48475 6.48549C4.16602 8.80422 4.16602 12.5362 4.16602 20.0001C4.16602 27.464 4.16602 31.1959 6.48475 33.5147C8.80349 35.8334 12.5354 35.8334 19.9993 35.8334C27.4633 35.8334 31.1952 35.8334 33.5139 33.5147C35.8327 31.1959 35.8327 27.464 35.8327 20.0001C35.8327 16.0715 35.8327 13.1768 35.4946 10.9779C34.7691 12.844 32.9553 14.1667 30.8327 14.1667C28.0713 14.1667 25.8327 11.9282 25.8327 9.16675C25.8327 7.0441 27.1554 5.23038 29.0215 4.50486C26.8226 4.16675 23.9279 4.16675 19.9993 4.16675C12.5354 4.16675 8.80349 4.16675 6.48475 6.48549Z" fill="#141B34"/>
<path fill-rule="evenodd" clip-rule="evenodd" d="M19.9994 5.4168L21.6661 5.41675C22.3564 5.41673 22.916 4.85707 22.916 4.16671C22.916 3.47635 22.3563 2.91673 21.666 2.91675L19.9041 2.9168C16.2529 2.91678 13.3851 2.91676 11.1461 3.21779C8.85163 3.52627 7.0312 4.17132 5.60087 5.60165C4.17054 7.03198 3.52548 8.85241 3.21701 11.1468C2.91598 13.3859 2.91599 16.2537 2.91602 19.9048V20.0954C2.91599 23.7466 2.91598 26.6144 3.21701 28.8534C3.52548 31.1479 4.17054 32.9683 5.60087 34.3986C7.0312 35.8289 8.85163 36.474 11.1461 36.7825C13.3851 37.0835 16.2529 37.0835 19.904 37.0835H19.9041H20.0946H20.0947C23.7458 37.0835 26.6136 37.0835 28.8526 36.7825C31.1471 36.474 32.9675 35.8289 34.3978 34.3986C35.8282 32.9683 36.4732 31.1479 36.7817 28.8534C37.0827 26.6144 37.0827 23.7467 37.0827 20.0956V20.0954V20.0001C37.0827 19.4469 37.0808 19.0274 37.0789 18.7456C37.078 18.6047 37.0771 18.4982 37.0763 18.4266L37.0755 18.3455L37.0751 18.317C37.0661 17.6267 36.4991 17.0744 35.8088 17.0835C35.1185 17.0926 34.5663 17.6607 34.5754 18.351L34.5756 18.3743L34.5765 18.4514C34.5772 18.5203 34.5781 18.6241 34.579 18.7623C34.5808 19.0386 34.5827 19.4525 34.5827 20.0001C34.5827 23.7674 34.58 26.4671 34.304 28.5203C34.0328 30.5375 33.5185 31.7424 32.6301 32.6308C31.7417 33.5193 30.5367 34.0336 28.5195 34.3048C26.4664 34.5808 23.7666 34.5835 19.9993 34.5835C16.2321 34.5835 13.5323 34.5808 11.4792 34.3048C9.46197 34.0336 8.25705 33.5193 7.36864 32.6308C6.48023 31.7424 5.96592 30.5375 5.69471 28.5203C5.41867 26.4671 5.41602 23.7674 5.41602 20.0001C5.41602 16.2328 5.41867 13.5331 5.69471 11.48C5.96592 9.46275 6.48023 8.25783 7.36864 7.36942C8.25705 6.48101 9.46197 5.9667 11.4792 5.6955C13.5323 5.41945 16.2321 5.4168 19.9994 5.4168ZM30.8327 5.41675C28.7616 5.41675 27.0827 7.09568 27.0827 9.16675C27.0827 11.2378 28.7616 12.9167 30.8327 12.9167C32.9037 12.9167 34.5827 11.2378 34.5827 9.16675C34.5827 7.09568 32.9037 5.41675 30.8327 5.41675ZM24.5827 9.16675C24.5827 5.71497 27.3809 2.91675 30.8327 2.91675C34.2845 2.91675 37.0827 5.71497 37.0827 9.16675C37.0827 12.6185 34.2845 15.4167 30.8327 15.4167C27.3809 15.4167 24.5827 12.6185 24.5827 9.16675ZM19.166 12.9167C19.8564 12.9167 20.416 13.4764 20.416 14.1667V29.1667C20.416 29.8571 19.8564 30.4167 19.166 30.4167C18.4757 30.4167 17.916 29.8571 17.916 29.1667V14.1667C17.916 13.4764 18.4757 12.9167 19.166 12.9167ZM27.4994 21.2501C28.1897 21.2501 28.7494 21.8097 28.7494 22.5001V29.1667C28.7494 29.8571 28.1897 30.4167 27.4994 30.4167C26.809 30.4167 26.2494 29.8571 26.2494 29.1667V22.5001C26.2494 21.8097 26.809 21.2501 27.4994 21.2501ZM10.8327 22.9167C11.523 22.9167 12.0827 23.4764 12.0827 24.1667V29.1667C12.0827 29.8571 11.523 30.4167 10.8327 30.4167C10.1423 30.4167 9.58268 29.8571 9.58268 29.1667L9.58268 24.1667C9.58268 23.4764 10.1423 22.9167 10.8327 22.9167Z" fill="white"/>
</svg>
