<svg width="25" height="24" viewBox="0 0 25 24" fill="none" xmlns="http://www.w3.org/2000/svg">
<path fill-rule="evenodd" clip-rule="evenodd" d="M17.2292 6.75012C17.7766 6.76771 18.2713 6.79667 18.7188 6.84442C19.881 6.9684 20.8234 7.22695 21.6068 7.81122C21.8413 7.98613 22.0587 8.17931 22.2564 8.38873C22.9226 9.09441 23.2201 9.94971 23.3618 10.9991C23.4994 12.0185 23.4994 13.3086 23.4994 14.9367L23.4993 15.4364C23.4985 16.8776 23.4879 18.0395 23.3618 18.974C23.2201 20.0234 22.9226 20.8787 22.2564 21.5844C22.0587 21.7938 21.8413 21.987 21.6068 22.1619C20.8234 22.7462 19.881 23.0047 18.7188 23.1287C17.5802 23.2501 16.136 23.2501 14.2969 23.2501L10.7844 23.2501C9.14245 23.2494 7.83097 23.2408 6.77997 23.1287C5.61781 23.0047 4.6754 22.7462 3.89203 22.1619C3.65751 21.987 3.44007 21.7938 3.24237 21.5844C2.5762 20.8787 2.27872 20.0234 2.13702 18.974C2.02233 18.1245 2.00319 17.087 2 15.8226V14.1505C2.00319 12.8861 2.02233 11.8486 2.13702 10.9991C2.27872 9.94971 2.5762 9.09441 3.24237 8.38873C3.44007 8.17931 3.65751 7.98614 3.89203 7.81122C4.67541 7.22695 5.61781 6.9684 6.77997 6.84442C7.22749 6.79667 7.72221 6.76771 8.26959 6.75012C8.31786 6.75012 8.36206 6.7766 8.38647 6.81824C8.39843 6.83864 8.40822 6.85471 8.41516 6.86609C8.55656 7.1006 8.7882 7.39829 8.888 7.52521C9.17574 7.89224 9.60508 8.43902 10.05 8.8963C10.2719 9.12436 10.5669 9.40331 10.9129 9.6413C11.1958 9.83591 11.8574 10.2499 12.7492 10.2499C13.641 10.2499 14.3026 9.83591 14.5855 9.6413C14.9314 9.40331 15.2265 9.12436 15.4484 8.8963C15.8933 8.43902 16.3231 7.89169 16.6108 7.52466C16.7106 7.39778 16.9419 7.10047 17.0833 6.86603C17.0902 6.85471 17.0999 6.83883 17.1117 6.8186C17.1363 6.77675 17.1807 6.75012 17.2292 6.75012ZM12.7496 12.4845C11.0928 12.4845 9.74963 13.8299 9.74963 15.4894C9.74963 17.149 11.0928 18.4944 12.7496 18.4944C14.4065 18.4944 15.7496 17.149 15.7496 15.4894C15.7496 13.8299 14.4065 12.4845 12.7496 12.4845ZM19.2572 14.4845C18.6959 14.4845 18.2482 14.9329 18.2482 15.4861C18.2482 16.0393 18.6959 16.4878 19.2482 16.4878C19.8095 16.4878 20.2572 16.0393 20.2572 15.4861C20.2572 14.9329 19.8095 14.4845 19.2572 14.4845ZM6.24939 14.4845C5.68812 14.4845 5.24042 14.9329 5.24042 15.4861C5.24042 16.0393 5.68813 16.4878 6.24042 16.4878C6.80169 16.4878 7.24939 16.0393 7.24939 15.4861C7.24939 14.9329 6.80168 14.4845 6.24939 14.4845ZM12.7553 0.75C13.3075 0.75 13.7553 1.19772 13.7553 1.75V4.25006L14.3378 4.25C14.5134 4.24987 14.7291 4.24972 14.9055 4.27179C15.0353 4.28797 15.6114 4.35982 15.8857 4.92542C16.1607 5.49224 15.8587 5.99239 15.7934 6.10059C15.6988 6.25765 15.5646 6.42853 15.4543 6.56909L15.4306 6.5993C15.1359 6.97512 14.754 7.45939 14.3735 7.8504C14.1837 8.04551 13.9664 8.24673 13.7355 8.40558C13.5303 8.54678 13.1801 8.75006 12.7494 8.75006C12.3187 8.75006 11.9685 8.54678 11.7633 8.40558C11.5324 8.24673 11.3151 8.04551 11.1252 7.8504C10.7448 7.45939 10.3629 6.97512 10.0682 6.5993L10.0445 6.56909C9.93415 6.42854 9.80003 6.25763 9.70782 6.10461C9.64006 5.99237 9.33814 5.49224 9.6131 4.92542C9.88746 4.35982 10.4635 4.28799 10.5899 4.27222C10.7109 4.25708 10.846 4.25228 10.975 4.25073L11.7553 4.25006V1.75C11.7553 1.19772 12.203 0.75 12.7553 0.75Z" fill="#FFCC33"/>
</svg>
