<svg width="19" height="22" viewBox="0 0 19 22" fill="none" xmlns="http://www.w3.org/2000/svg">
<path fill-rule="evenodd" clip-rule="evenodd" d="M5.448 11.25L5.5 11.25C5.79639 11.25 6.06499 11.4246 6.18536 11.6954L8.40731 16.6948L8.72763 14.1323L7.82918 12.3354C7.71293 12.1029 7.72536 11.8268 7.86201 11.6057C7.99867 11.3846 8.24007 11.25 8.5 11.25H10.5C10.7599 11.25 11.0013 11.3846 11.138 11.6057C11.2746 11.8268 11.2871 12.1029 11.1708 12.3354L10.2724 14.1323L10.5927 16.6948L12.8146 11.6954C12.935 11.4246 13.2036 11.25 13.5 11.25L13.552 11.25C14.4505 11.25 15.1997 11.2499 15.7945 11.3299C16.4223 11.4143 16.9891 11.6 17.4445 12.0555C17.9 12.5109 18.0857 13.0777 18.1701 13.7055C18.2501 14.3003 18.25 15.0495 18.25 15.948V17.7505C18.25 19.6361 18.25 20.5789 17.6642 21.1647C17.0784 21.7505 16.1356 21.7505 14.25 21.7505H4.75C2.86438 21.7505 1.92158 21.7505 1.33579 21.1647C0.750001 20.5789 0.750001 19.6361 0.750001 17.7505L0.750001 15.948C0.749973 15.0495 0.749949 14.3003 0.829915 13.7055C0.914319 13.0777 1.09999 12.5109 1.55546 12.0555C2.01093 11.6 2.57773 11.4143 3.20552 11.3299C3.8003 11.2499 4.54954 11.25 5.448 11.25ZM9.5 0.249996C7.15279 0.249996 5.25 2.15279 5.25 4.5V5.5C5.25 7.84721 7.15279 9.75 9.5 9.75C11.8472 9.75 13.75 7.84721 13.75 5.5V4.5C13.75 2.15279 11.8472 0.249996 9.5 0.249996Z" fill="#FFCC33"/>
</svg>
