<svg width="23" height="20" viewBox="0 0 23 20" fill="none" xmlns="http://www.w3.org/2000/svg">
<path fill-rule="evenodd" clip-rule="evenodd" d="M11.3074 1.82046C12.7546 1.14454 14.6163 0.75 16.6248 0.75C17.7446 0.75 18.8153 0.872567 19.7922 1.09633C20.7093 1.30637 21.4073 1.71217 21.8466 2.38745C22.2675 3.03453 22.3748 3.81712 22.3748 4.61397V13.3528C22.3748 13.6548 22.3748 13.8058 22.3083 13.8882C22.2923 13.9082 22.2829 13.9175 22.263 13.9336C22.1806 14 21.9953 14 21.6248 14H14.6248C13.244 14 12.1248 15.1193 12.1248 16.5C12.1248 16.7866 12.173 17.0618 12.2617 17.3182C12.3627 17.6098 12.4131 17.7556 12.395 17.8382C12.3851 17.883 12.3775 17.901 12.3522 17.9392C12.3056 18.0098 12.1844 18.0664 11.9421 18.1795C10.4949 18.8555 8.63325 19.25 6.62476 19.25C5.50492 19.25 4.43424 19.1274 3.45731 18.9037C2.58164 18.7031 1.89 18.3111 1.44119 17.6488C1.00718 17.0082 0.874756 16.2216 0.874756 15.386V4.61397C0.874756 3.04678 2.46576 2.13772 3.7922 2.44153C4.65464 2.63907 5.61275 2.75 6.62476 2.75C8.4504 2.75 10.0895 2.38927 11.3074 1.82046ZM8.37476 10C8.37476 8.20507 9.82983 6.75 11.6248 6.75C13.4197 6.75 14.8748 8.20507 14.8748 10C14.8748 11.7949 13.4197 13.25 11.6248 13.25C9.82983 13.25 8.37476 11.7949 8.37476 10ZM5.12476 10C5.67704 10 6.12476 10.4477 6.12476 11V11.009C6.12476 11.5613 5.67704 12.009 5.12476 12.009C4.57247 12.009 4.12476 11.5613 4.12476 11.009V11C4.12476 10.4477 4.57247 10 5.12476 10ZM14.6248 15.5C14.0725 15.5 13.6248 15.9477 13.6248 16.5C13.6248 17.0523 14.0725 17.5 14.6248 17.5H21.6248C22.177 17.5 22.6248 17.0523 22.6248 16.5C22.6248 15.9477 22.177 15.5 21.6248 15.5H14.6248Z" fill="#FFCC33"/>
</svg>
