<svg width="67" height="66" viewBox="0 0 67 66" fill="none" xmlns="http://www.w3.org/2000/svg">
<circle cx="33.5" cy="33" r="33" fill="#FFCC33"/>
<circle cx="33.5" cy="33" r="33" fill="#FFCC33"/>
<path fill-rule="evenodd" clip-rule="evenodd" d="M43.7711 20.2588C42.8926 18.7365 40.9467 18.2146 39.4247 19.0938C37.9029 19.9728 37.3819 21.9191 38.2602 23.441L41.8962 29.7417C42.7747 31.264 44.7206 31.7859 46.2427 30.9067C47.7644 30.0278 48.2854 28.0814 47.4071 26.5595L43.7711 20.2588ZM33.5361 36.3236L29.8682 38.491C28.7317 39.1626 27.2649 38.7584 26.6327 37.5995L26.0784 36.5832L22.9601 38.3507L23.3319 39.0182C23.6902 39.6615 23.4592 40.4735 22.8159 40.8318C22.1726 41.1901 21.3606 40.9591 21.0023 40.3158L19.9779 38.4766L18.9937 36.6529C18.644 36.0049 18.8858 35.196 19.5338 34.8463C20.1819 34.4965 20.9907 34.7384 21.3404 35.3864L21.6781 36.0121L24.8013 34.2418L23.9104 32.6086C23.3083 31.5047 23.6892 30.1222 24.7718 29.4825L36.1827 22.7397C36.2817 23.2766 36.4724 23.8061 36.7608 24.3059L40.3969 30.6066C40.6454 31.0373 40.9492 31.4161 41.2943 31.7393L37.4976 33.9828L43.9993 45.6859C44.3569 46.3296 44.125 47.1413 43.4813 47.499C42.8375 47.8566 42.0258 47.6247 41.6682 46.9809L36.1671 37.0789L30.6659 46.9809C30.3083 47.6247 29.4966 47.8566 28.8529 47.499C28.2092 47.1413 27.9772 46.3296 28.3349 45.6859L33.5361 36.3236Z" fill="#002244"/>
</svg>
