<svg width="40" height="40" viewBox="0 0 40 40" fill="none" xmlns="http://www.w3.org/2000/svg">
<path fill-rule="evenodd" clip-rule="evenodd" d="M19.0632 2.27692C17.6238 2.08339 15.805 2.08344 13.5995 2.0835H13.5995H13.3696H13.3696C11.164 2.08344 9.34527 2.08339 7.90582 2.27692C6.39459 2.4801 5.05992 2.92308 3.99125 3.99174C2.92259 5.0604 2.47961 6.39507 2.27643 7.90631C2.0829 9.34576 2.08295 11.1645 2.08301 13.3701V13.3701L2.08301 18.3714C2.08301 19.2709 2.81224 20.0002 3.7118 20.0002C4.61135 20.0002 5.34059 19.2709 5.34059 18.3714V13.485C5.34059 11.1355 5.34405 9.53724 5.50496 8.34038C5.65957 7.19036 5.93219 6.65772 6.29471 6.2952C6.65723 5.93268 7.18988 5.66006 8.33989 5.50545C9.53675 5.34453 11.135 5.34107 13.4845 5.34107C15.834 5.34107 17.4323 5.34453 18.6292 5.50545C19.7792 5.66006 20.3118 5.93268 20.6743 6.2952C21.0369 6.65772 21.3095 7.19036 21.4641 8.34038C21.625 9.53724 21.6285 11.1355 21.6285 13.485V36.288C21.6285 37.1876 22.3577 37.9168 23.2572 37.9168L29.8796 37.9168C31.3235 37.9169 32.5676 37.917 33.5639 37.783C34.6316 37.6395 35.655 37.3158 36.4851 36.4856C37.3153 35.6555 37.639 34.6321 37.7825 33.5644C37.9165 32.5681 37.9164 31.324 37.9163 29.8801V19.893C37.9164 18.4491 37.9165 17.205 37.7825 16.2087C37.639 15.141 37.3153 14.1175 36.4851 13.2874C35.655 12.4573 34.6316 12.1336 33.5639 11.99C32.5676 11.8561 31.3235 11.8561 29.8796 11.8562H29.8796L24.8834 11.8562C24.8751 10.3176 24.8399 9.00206 24.6926 7.90631C24.4894 6.39507 24.0465 5.0604 22.9778 3.99174C21.9091 2.92308 20.5745 2.4801 19.0632 2.27692ZM29.1663 17.0835C28.476 17.0835 27.9163 17.6431 27.9163 18.3335C27.9163 19.0239 28.476 19.5835 29.1663 19.5835H30.833C31.5234 19.5835 32.083 19.0239 32.083 18.3335C32.083 17.6431 31.5234 17.0835 30.833 17.0835H29.1663ZM29.1663 23.7502C28.476 23.7502 27.9163 24.3098 27.9163 25.0002C27.9163 25.6905 28.476 26.2502 29.1663 26.2502H30.833C31.5234 26.2502 32.083 25.6905 32.083 25.0002C32.083 24.3098 31.5234 23.7502 30.833 23.7502H29.1663ZM7.49967 10.0002C7.49967 9.07969 8.24587 8.3335 9.16634 8.3335H10.833C11.7535 8.3335 12.4997 9.07969 12.4997 10.0002C12.4997 10.9206 11.7535 11.6668 10.833 11.6668H9.16634C8.24587 11.6668 7.49967 10.9206 7.49967 10.0002ZM14.1663 10.0002C14.1663 9.07969 14.9125 8.3335 15.833 8.3335H17.4997C18.4201 8.3335 19.1663 9.07969 19.1663 10.0002C19.1663 10.9206 18.4201 11.6668 17.4997 11.6668H15.833C14.9125 11.6668 14.1663 10.9206 14.1663 10.0002ZM7.49967 15.0002C7.49967 14.0797 8.24587 13.3335 9.16634 13.3335H10.833C11.7535 13.3335 12.4997 14.0797 12.4997 15.0002C12.4997 15.9206 11.7535 16.6668 10.833 16.6668H9.16634C8.24587 16.6668 7.49967 15.9206 7.49967 15.0002ZM14.1663 15.0002C14.1663 14.0797 14.9125 13.3335 15.833 13.3335H17.4997C18.4201 13.3335 19.1663 14.0797 19.1663 15.0002C19.1663 15.9206 18.4201 16.6668 17.4997 16.6668H15.833C14.9125 16.6668 14.1663 15.9206 14.1663 15.0002ZM9.99984 18.7502C7.46853 18.7502 5.41651 20.8022 5.41651 23.3335C5.41651 25.8648 7.46853 27.9168 9.99984 27.9168C12.5311 27.9168 14.5832 25.8648 14.5832 23.3335C14.5832 20.8022 12.5311 18.7502 9.99984 18.7502ZM17.0235 31.9497C16.4056 31.2692 15.2289 30.5229 14.7121 30.1963C11.8337 28.2681 8.16597 28.2681 5.28755 30.1963C4.77078 30.5229 3.59412 31.2692 2.9762 31.9497C2.58398 32.3816 2.17056 32.9946 2.09511 33.7712C2.01413 34.6047 2.3441 35.3704 2.9471 36.0167C3.85897 36.994 5.07832 37.9168 6.73382 37.9168H13.2659C14.9214 37.9168 16.1407 36.994 17.0526 36.0167C17.6556 35.3704 17.9856 34.6047 17.9046 33.7712C17.8291 32.9946 17.4157 32.3816 17.0235 31.9497Z" fill="#F04438"/>
</svg>
