<svg width="80" height="76" viewBox="0 0 80 76" fill="none" xmlns="http://www.w3.org/2000/svg">
<rect width="80" height="76" rx="16" fill="#D8EAF8"/>
<path fill-rule="evenodd" clip-rule="evenodd" d="M36 42.5L31.5 42.5V59.5H48.5V42.5L44 42.5C43.6022 42.5 43.2206 42.658 42.9393 42.9393L40 45.8787L37.0607 42.9393C36.7794 42.658 36.3978 42.5 36 42.5ZM51.5 42.5287V59.4713C51.8348 59.4577 52.1474 59.4376 52.438 59.408C53.3849 59.3117 54.2636 59.1023 55.0556 58.5731C55.6562 58.1718 56.1718 57.6562 56.5731 57.0556C57.1023 56.2636 57.3117 55.3849 57.408 54.438C57.5001 53.5333 57.5 52.4158 57.5 51.0766C57.5 49.7375 57.5001 48.4667 57.408 47.562C57.3117 46.6151 57.1023 45.7364 56.5731 44.9444C56.1718 44.3438 55.6562 43.8282 55.0556 43.4269C54.2636 42.8977 53.3849 42.6883 52.438 42.592C52.1474 42.5624 51.8348 42.5423 51.5 42.5287ZM28.5 59.4713V42.5287C28.1652 42.5423 27.8526 42.5624 27.562 42.592C26.6151 42.6883 25.7364 42.8977 24.9444 43.4269C24.3438 43.8282 23.8282 44.3438 23.4269 44.9444C22.8977 45.7364 22.6883 46.6151 22.592 47.562C22.4999 48.4667 22.5 49.7375 22.5 51.0767V51.0767C22.5 52.4159 22.4999 53.5333 22.592 54.438C22.6883 55.3849 22.8977 56.2636 23.4269 57.0556C23.8282 57.6562 24.3438 58.1718 24.9444 58.5731C25.7364 59.1023 26.6151 59.3117 27.562 59.408C27.8526 59.4376 28.1652 59.4577 28.5 59.4713ZM31.5 32V30.5H31C30.1716 30.5 29.5 29.8284 29.5 29C29.5 28.1716 30.1716 27.5 31 27.5H31.5145C31.744 23.5428 34.6807 20.312 38.5 19.6319L38.5 18C38.5 17.1716 39.1716 16.5 40 16.5L40.0097 16.5C40.8337 16.5052 41.5 17.1748 41.5 18L41.5 19.6319C45.3193 20.312 48.256 23.5428 48.4855 27.5H49C49.8284 27.5 50.5 28.1716 50.5 29C50.5 29.8284 49.8284 30.5 49 30.5H48.5V32C48.5 36.6944 44.6944 40.5 40 40.5C35.3056 40.5 31.5 36.6944 31.5 32ZM45.5 32V30.5L34.5 30.5V32C34.5 35.0376 36.9624 37.5 40 37.5C43.0376 37.5 45.5 35.0376 45.5 32Z" fill="#59B5F8"/>
</svg>
