<svg width="22" height="22" viewBox="0 0 22 22" fill="none" xmlns="http://www.w3.org/2000/svg">
<path fill-rule="evenodd" clip-rule="evenodd" d="M9.69305 0.25H11.8069H11.807C13.88 0.249987 15.5123 0.249976 16.7877 0.421442C18.0962 0.597375 19.1407 0.966104 19.9623 1.78769C20.7839 2.60928 21.1526 3.65376 21.3286 4.96234C21.5 6.23769 21.5 7.87002 21.5 9.94306V10.0569C21.5 12.13 21.5 13.7623 21.3286 15.0377C21.1526 16.3462 20.7839 17.3907 19.9623 18.2123C19.3531 18.8216 18.6212 19.1818 17.75 19.399V20.9994C17.75 21.5517 17.3023 21.9994 16.75 21.9994C16.1977 21.9994 15.75 21.5517 15.75 20.9994V19.6785C14.6583 19.75 13.3556 19.75 11.8069 19.75H9.69306C8.14439 19.75 6.84167 19.75 5.75 19.6785V20.9994C5.75 21.5517 5.30229 21.9994 4.75 21.9994C4.19772 21.9994 3.75 21.5517 3.75 20.9994V19.399C2.87879 19.1818 2.14695 18.8216 1.53769 18.2123C0.716104 17.3907 0.347375 16.3462 0.171442 15.0377C-2.41635e-05 13.7623 -1.33043e-05 12.13 2.40118e-07 10.057V10.0569V9.94305V9.94304C-1.33043e-05 7.87001 -2.41597e-05 6.23769 0.171442 4.96234C0.347375 3.65376 0.716104 2.60928 1.53769 1.78769C2.35928 0.966104 3.40376 0.597375 4.71234 0.421442C5.98769 0.249976 7.62001 0.249987 9.69304 0.25H9.69305ZM9.00007 6C9.00007 5.58579 8.66428 5.25 8.25007 5.25C7.83585 5.25 7.50007 5.58579 7.50007 6V7.35213C7.04876 7.47793 6.64321 7.71447 6.31596 8.0309L5.12234 7.34882C4.7627 7.14331 4.30456 7.26826 4.09905 7.62789C3.89354 7.98753 4.01849 8.44567 4.37812 8.65118L5.56252 9.32799C5.50823 9.54284 5.47937 9.76793 5.47937 10C5.47937 10.2321 5.50822 10.4571 5.56251 10.672L4.37802 11.3488C4.01838 11.5543 3.89344 12.0125 4.09895 12.3721C4.30446 12.7317 4.7626 12.8567 5.12224 12.6512L6.31592 11.9691C6.64318 12.2855 7.04874 12.5221 7.50007 12.6479V14C7.50007 14.4142 7.83585 14.75 8.25007 14.75C8.66428 14.75 9.00007 14.4142 9.00007 14V12.6479C9.45142 12.5221 9.85699 12.2855 10.1843 11.969L11.378 12.6512C11.7377 12.8567 12.1958 12.7317 12.4013 12.3721C12.6068 12.0125 12.4819 11.5543 12.1222 11.3488L10.9376 10.6719C10.9919 10.4571 11.0208 10.232 11.0208 10C11.0208 9.76795 10.9919 9.54289 10.9376 9.32805L12.1221 8.65118C12.4818 8.44567 12.6067 7.98753 12.4012 7.62789C12.1957 7.26826 11.7376 7.14331 11.3779 7.34882L10.1842 8.03094C9.85696 7.71449 9.4514 7.47794 9.00007 7.35213V6ZM7.15151 9.37211L7.14381 9.38527C7.03903 9.56749 6.97949 9.77759 6.97949 10C6.97949 10.6831 7.5411 11.25 8.25019 11.25C8.95927 11.25 9.52088 10.6831 9.52088 10C9.52088 9.3169 8.95927 8.75 8.25019 8.75C7.77796 8.75 7.37115 9.00143 7.15205 9.37116L7.15151 9.37211ZM15.0877 5.64851C14.8935 6.01437 15.0326 6.4684 15.3985 6.66261C15.7056 6.82563 15.8235 6.99478 15.8981 7.28952C15.9948 7.67109 16.0001 8.20104 16.0001 9.09398V10.9063C16.0001 11.7993 15.9948 12.3292 15.8981 12.7108C15.8235 13.0055 15.7056 13.1747 15.3985 13.3377C15.0326 13.5319 14.8935 13.9859 15.0877 14.3518C15.2819 14.7177 15.7359 14.8568 16.1018 14.6626C16.7947 14.2948 17.1768 13.7714 17.3522 13.0791C17.5005 12.4936 17.5003 11.7714 17.5002 10.9868V9.01353C17.5003 8.22886 17.5005 7.50674 17.3522 6.92122C17.1768 6.22892 16.7947 5.70549 16.1018 5.3377C15.7359 5.14349 15.2819 5.28264 15.0877 5.64851Z" fill="#FFCC33"/>
</svg>
