<svg width="36" height="36" viewBox="0 0 36 36" fill="none" xmlns="http://www.w3.org/2000/svg">
<rect x="0.424419" y="0.424419" width="35.1512" height="35.1512" rx="7.57558" stroke="#002244" stroke-width="0.848837"/>
<path d="M26.1566 26.6109C26.092 26.7286 25.9971 26.8267 25.8817 26.8951C25.7662 26.9636 25.6346 26.9998 25.5004 27H21.0004C20.8741 27 20.75 26.9681 20.6393 26.9073C20.5287 26.8465 20.4352 26.7587 20.3676 26.6522L16.5716 20.6869L11.0554 26.7544C10.9209 26.8988 10.7349 26.9845 10.5377 26.9927C10.3405 27.0009 10.1481 26.9311 10.002 26.7984C9.85595 26.6657 9.7681 26.4807 9.7575 26.2836C9.74689 26.0866 9.81439 25.8933 9.94536 25.7456L15.7363 19.3706L9.86755 10.1531C9.79527 10.0397 9.75481 9.90898 9.7504 9.77458C9.746 9.64018 9.7778 9.50707 9.8425 9.38918C9.90719 9.27129 10.0024 9.17296 10.1181 9.10449C10.2339 9.03603 10.3659 8.99993 10.5004 9H15.0004C15.1266 9.00004 15.2508 9.03194 15.3614 9.09274C15.472 9.15353 15.5655 9.24127 15.6332 9.34781L19.4291 15.3131L24.9454 9.24562C25.0798 9.10117 25.2658 9.01555 25.463 9.00731C25.6602 8.99907 25.8527 9.06888 25.9987 9.20161C26.1448 9.33435 26.2326 9.51929 26.2432 9.71636C26.2538 9.91343 26.1863 10.1067 26.0554 10.2544L20.2644 16.6247L26.1332 25.8478C26.2051 25.9613 26.2451 26.0919 26.2493 26.2262C26.2534 26.3604 26.2214 26.4933 26.1566 26.6109Z" fill="#002244"/>
</svg>
