<svg width="48" height="48" viewBox="0 0 48 48" fill="none" xmlns="http://www.w3.org/2000/svg">
<path fill-rule="evenodd" clip-rule="evenodd" d="M7.90996 2.5H8.09004H8.09008C8.95607 2.5 9.74805 2.5 10.394 2.586C11.106 2.682 11.856 2.906 12.474 3.524C13.092 4.142 13.318 4.89399 13.414 5.60399C13.5 6.24999 13.5 7.044 13.5 7.908V8.088C13.5 8.954 13.5 9.74799 13.414 10.392C13.318 11.102 13.092 11.854 12.474 12.472C11.856 13.09 11.106 13.314 10.394 13.41C9.74805 13.496 8.95606 13.496 8.09007 13.496H8.09004H7.90996H7.90993C7.04394 13.496 6.25195 13.496 5.60596 13.41C4.89396 13.314 4.14398 13.09 3.52598 12.472C2.90798 11.854 2.68204 11.102 2.58604 10.392C2.50004 9.74599 2.5 8.952 2.5 8.088V7.908C2.5 7.042 2.50004 6.24799 2.58604 5.60399C2.68204 4.89399 2.90798 4.142 3.52598 3.524C4.14398 2.906 4.89396 2.682 5.60596 2.586C6.25195 2.5 7.04393 2.5 7.90992 2.5H7.90996ZM23.91 2.5H24.09H24.0901C24.9561 2.5 25.7481 2.5 26.394 2.586C27.106 2.682 27.856 2.906 28.474 3.524C29.092 4.142 29.318 4.89399 29.414 5.60399C29.5 6.24999 29.5 7.044 29.5 7.908V8.088C29.5 8.954 29.5 9.74799 29.414 10.392C29.318 11.102 29.092 11.854 28.474 12.472C27.856 13.09 27.106 13.314 26.394 13.41C25.7481 13.496 24.9561 13.496 24.0901 13.496H24.09H23.91H23.9099C23.0439 13.496 22.2519 13.496 21.606 13.41C20.894 13.314 20.144 13.09 19.526 12.472C18.908 11.854 18.682 11.102 18.586 10.392C18.5 9.74599 18.5 8.952 18.5 8.088V7.908C18.5 7.042 18.5 6.24799 18.586 5.60399C18.682 4.89399 18.908 4.142 19.526 3.524C20.144 2.906 20.894 2.682 21.606 2.586C22.2519 2.5 23.0439 2.5 23.9099 2.5H23.91ZM40.09 2.5H39.91H39.9099C39.0439 2.5 38.2519 2.5 37.606 2.586C36.894 2.682 36.144 2.906 35.526 3.524C34.908 4.142 34.682 4.89399 34.586 5.60399C34.5 6.24799 34.5 7.042 34.5 7.908V8.088C34.5 8.952 34.5 9.74599 34.586 10.392C34.682 11.102 34.908 11.854 35.526 12.472C36.144 13.09 36.894 13.314 37.606 13.41C38.2519 13.496 39.0439 13.496 39.9099 13.496H39.91H40.09H40.0901C40.9561 13.496 41.7481 13.496 42.394 13.41C43.106 13.314 43.856 13.09 44.474 12.472C45.092 11.854 45.318 11.102 45.414 10.392C45.5 9.74799 45.5 8.954 45.5 8.088V7.908C45.5 7.044 45.5 6.24999 45.414 5.60399C45.318 4.89399 45.092 4.142 44.474 3.524C43.856 2.906 43.106 2.682 42.394 2.586C41.7481 2.5 40.9561 2.5 40.0901 2.5H40.09ZM7.90996 18.5H8.09004H8.0901C8.95607 18.5 9.74806 18.5 10.394 18.586C11.106 18.682 11.856 18.906 12.474 19.524C13.092 20.142 13.318 20.894 13.414 21.604C13.5 22.25 13.5 23.044 13.5 23.908V24.088C13.5 24.954 13.5 25.748 13.414 26.392C13.318 27.102 13.092 27.854 12.474 28.472C11.856 29.09 11.106 29.314 10.394 29.41C9.74814 29.496 8.95628 29.496 8.09044 29.496H8.09004H7.90996H7.90956C7.04372 29.496 6.25186 29.496 5.60596 29.41C4.89396 29.314 4.14398 29.09 3.52598 28.472C2.90798 27.854 2.68204 27.102 2.58604 26.392C2.50004 25.746 2.5 24.952 2.5 24.088V23.908C2.5 23.042 2.50004 22.248 2.58604 21.604C2.68204 20.894 2.90798 20.142 3.52598 19.524C4.14398 18.906 4.89396 18.682 5.60596 18.586C6.25194 18.5 7.04393 18.5 7.9099 18.5H7.90996ZM24.09 18.5H23.91H23.9099C23.0439 18.5 22.2519 18.5 21.606 18.586C20.894 18.682 20.144 18.906 19.526 19.524C18.908 20.142 18.682 20.894 18.586 21.604C18.5 22.248 18.5 23.042 18.5 23.908V24.088C18.5 24.952 18.5 25.746 18.586 26.392C18.682 27.102 18.908 27.854 19.526 28.472C20.144 29.09 20.894 29.314 21.606 29.41C22.2519 29.496 23.0437 29.496 23.9096 29.496H23.91H24.09H24.0904C24.9563 29.496 25.7481 29.496 26.394 29.41C27.106 29.314 27.856 29.09 28.474 28.472C29.092 27.854 29.318 27.102 29.414 26.392C29.5 25.748 29.5 24.954 29.5 24.088V23.908C29.5 23.044 29.5 22.25 29.414 21.604C29.318 20.894 29.092 20.142 28.474 19.524C27.856 18.906 27.106 18.682 26.394 18.586C25.7481 18.5 24.9561 18.5 24.0901 18.5H24.09ZM23.91 34.5H24.09C24.956 34.5 25.748 34.5 26.394 34.586C27.106 34.682 27.856 34.906 28.474 35.524C29.092 36.142 29.318 36.894 29.414 37.604C29.5 38.25 29.5 39.044 29.5 39.908V40.088C29.5 40.954 29.5 41.748 29.414 42.392C29.318 43.102 29.092 43.854 28.474 44.472C27.856 45.09 27.106 45.314 26.394 45.41C25.7482 45.496 24.9563 45.496 24.0905 45.496H24.09H23.91H23.9095C23.0437 45.496 22.2518 45.496 21.606 45.41C20.894 45.314 20.144 45.09 19.526 44.472C18.908 43.854 18.682 43.102 18.586 42.392C18.5 41.746 18.5 40.952 18.5 40.088V39.908C18.5 39.042 18.5 38.248 18.586 37.604C18.682 36.894 18.908 36.142 19.526 35.524C20.144 34.906 20.894 34.682 21.606 34.586C22.252 34.5 23.044 34.5 23.91 34.5ZM40.09 18.5H39.91H39.9099C39.0439 18.5 38.2519 18.5 37.606 18.586C36.894 18.682 36.144 18.906 35.526 19.524C34.908 20.142 34.682 20.894 34.586 21.604C34.5 22.248 34.5 23.042 34.5 23.908V24.088C34.5 24.952 34.5 25.746 34.586 26.392C34.682 27.102 34.908 27.854 35.526 28.472C36.144 29.09 36.894 29.314 37.606 29.41C38.2519 29.496 39.0437 29.496 39.9096 29.496H39.91H40.09H40.0904C40.9563 29.496 41.7481 29.496 42.394 29.41C43.106 29.314 43.856 29.09 44.474 28.472C45.092 27.854 45.318 27.102 45.414 26.392C45.5 25.748 45.5 24.954 45.5 24.088V23.908C45.5 23.044 45.5 22.25 45.414 21.604C45.318 20.894 45.092 20.142 44.474 19.524C43.856 18.906 43.106 18.682 42.394 18.586C41.7481 18.5 40.9561 18.5 40.0901 18.5H40.09Z" fill="#546B82"/>
</svg>
