<svg width="44" height="44" viewBox="0 0 44 44" fill="none" xmlns="http://www.w3.org/2000/svg">
<path fill-rule="evenodd" clip-rule="evenodd" d="M5.90996 0.5H6.09004H6.09008C6.95607 0.5 7.74805 0.5 8.39404 0.585999C9.10604 0.681998 9.85602 0.905999 10.474 1.524C11.092 2.142 11.318 2.89399 11.414 3.60399C11.5 4.24999 11.5 5.044 11.5 5.908V6.088C11.5 6.954 11.5 7.74799 11.414 8.39199C11.318 9.10199 11.092 9.854 10.474 10.472C9.85602 11.09 9.10604 11.314 8.39404 11.41C7.74805 11.496 6.95606 11.496 6.09007 11.496H6.09004H5.90996H5.90993C5.04394 11.496 4.25195 11.496 3.60596 11.41C2.89396 11.314 2.14398 11.09 1.52598 10.472C0.907977 9.854 0.682035 9.10199 0.586035 8.39199C0.500035 7.74599 0.5 6.952 0.5 6.088V5.908C0.5 5.042 0.500035 4.24799 0.586035 3.60399C0.682035 2.89399 0.907977 2.142 1.52598 1.524C2.14398 0.905999 2.89396 0.681998 3.60596 0.585999C4.25195 0.5 5.04393 0.5 5.90992 0.5H5.90996ZM21.91 0.5H22.09H22.0901C22.9561 0.5 23.7481 0.5 24.394 0.585999C25.106 0.681998 25.856 0.905999 26.474 1.524C27.092 2.142 27.318 2.89399 27.414 3.60399C27.5 4.24999 27.5 5.044 27.5 5.908V6.088C27.5 6.954 27.5 7.74799 27.414 8.39199C27.318 9.10199 27.092 9.854 26.474 10.472C25.856 11.09 25.106 11.314 24.394 11.41C23.7481 11.496 22.9561 11.496 22.0901 11.496H22.09H21.91H21.9099C21.0439 11.496 20.2519 11.496 19.606 11.41C18.894 11.314 18.144 11.09 17.526 10.472C16.908 9.854 16.682 9.10199 16.586 8.39199C16.5 7.74599 16.5 6.952 16.5 6.088V5.908C16.5 5.042 16.5 4.24799 16.586 3.60399C16.682 2.89399 16.908 2.142 17.526 1.524C18.144 0.905999 18.894 0.681998 19.606 0.585999C20.2519 0.5 21.0439 0.5 21.9099 0.5H21.91ZM38.09 0.5H37.91H37.9099C37.0439 0.5 36.2519 0.5 35.606 0.585999C34.894 0.681998 34.144 0.905999 33.526 1.524C32.908 2.142 32.682 2.89399 32.586 3.60399C32.5 4.24799 32.5 5.042 32.5 5.908V6.088C32.5 6.952 32.5 7.74599 32.586 8.39199C32.682 9.10199 32.908 9.854 33.526 10.472C34.144 11.09 34.894 11.314 35.606 11.41C36.2519 11.496 37.0439 11.496 37.9099 11.496H37.91H38.09H38.0901C38.9561 11.496 39.7481 11.496 40.394 11.41C41.106 11.314 41.856 11.09 42.474 10.472C43.092 9.854 43.318 9.10199 43.414 8.39199C43.5 7.74799 43.5 6.954 43.5 6.088V5.908C43.5 5.044 43.5 4.24999 43.414 3.60399C43.318 2.89399 43.092 2.142 42.474 1.524C41.856 0.905999 41.106 0.681998 40.394 0.585999C39.7481 0.5 38.9561 0.5 38.0901 0.5H38.09ZM5.90996 16.5H6.09004H6.0901C6.95607 16.5 7.74806 16.5 8.39404 16.586C9.10604 16.682 9.85602 16.906 10.474 17.524C11.092 18.142 11.318 18.894 11.414 19.604C11.5 20.25 11.5 21.044 11.5 21.908V22.088C11.5 22.954 11.5 23.748 11.414 24.392C11.318 25.102 11.092 25.854 10.474 26.472C9.85602 27.09 9.10604 27.314 8.39404 27.41C7.74814 27.496 6.95628 27.496 6.09044 27.496H6.09004H5.90996H5.90956C5.04372 27.496 4.25186 27.496 3.60596 27.41C2.89396 27.314 2.14398 27.09 1.52598 26.472C0.907977 25.854 0.682035 25.102 0.586035 24.392C0.500035 23.746 0.5 22.952 0.5 22.088V21.908C0.5 21.042 0.500035 20.248 0.586035 19.604C0.682035 18.894 0.907977 18.142 1.52598 17.524C2.14398 16.906 2.89396 16.682 3.60596 16.586C4.25194 16.5 5.04393 16.5 5.9099 16.5H5.90996ZM22.09 16.5H21.91H21.9099C21.0439 16.5 20.2519 16.5 19.606 16.586C18.894 16.682 18.144 16.906 17.526 17.524C16.908 18.142 16.682 18.894 16.586 19.604C16.5 20.248 16.5 21.042 16.5 21.908V22.088C16.5 22.952 16.5 23.746 16.586 24.392C16.682 25.102 16.908 25.854 17.526 26.472C18.144 27.09 18.894 27.314 19.606 27.41C20.2519 27.496 21.0437 27.496 21.9096 27.496H21.91H22.09H22.0904C22.9563 27.496 23.7481 27.496 24.394 27.41C25.106 27.314 25.856 27.09 26.474 26.472C27.092 25.854 27.318 25.102 27.414 24.392C27.5 23.748 27.5 22.954 27.5 22.088V21.908C27.5 21.044 27.5 20.25 27.414 19.604C27.318 18.894 27.092 18.142 26.474 17.524C25.856 16.906 25.106 16.682 24.394 16.586C23.7481 16.5 22.9561 16.5 22.0901 16.5H22.09ZM21.91 32.5H22.09C22.956 32.5 23.748 32.5 24.394 32.586C25.106 32.682 25.856 32.906 26.474 33.524C27.092 34.142 27.318 34.894 27.414 35.604C27.5 36.25 27.5 37.044 27.5 37.908V38.088C27.5 38.954 27.5 39.748 27.414 40.392C27.318 41.102 27.092 41.854 26.474 42.472C25.856 43.09 25.106 43.314 24.394 43.41C23.7482 43.496 22.9563 43.496 22.0905 43.496H22.09H21.91H21.9095C21.0437 43.496 20.2518 43.496 19.606 43.41C18.894 43.314 18.144 43.09 17.526 42.472C16.908 41.854 16.682 41.102 16.586 40.392C16.5 39.746 16.5 38.952 16.5 38.088V37.908C16.5 37.042 16.5 36.248 16.586 35.604C16.682 34.894 16.908 34.142 17.526 33.524C18.144 32.906 18.894 32.682 19.606 32.586C20.252 32.5 21.044 32.5 21.91 32.5ZM38.09 16.5H37.91H37.9099C37.0439 16.5 36.2519 16.5 35.606 16.586C34.894 16.682 34.144 16.906 33.526 17.524C32.908 18.142 32.682 18.894 32.586 19.604C32.5 20.248 32.5 21.042 32.5 21.908V22.088C32.5 22.952 32.5 23.746 32.586 24.392C32.682 25.102 32.908 25.854 33.526 26.472C34.144 27.09 34.894 27.314 35.606 27.41C36.2519 27.496 37.0437 27.496 37.9096 27.496H37.91H38.09H38.0904C38.9563 27.496 39.7481 27.496 40.394 27.41C41.106 27.314 41.856 27.09 42.474 26.472C43.092 25.854 43.318 25.102 43.414 24.392C43.5 23.748 43.5 22.954 43.5 22.088V21.908C43.5 21.044 43.5 20.25 43.414 19.604C43.318 18.894 43.092 18.142 42.474 17.524C41.856 16.906 41.106 16.682 40.394 16.586C39.7481 16.5 38.9561 16.5 38.0901 16.5H38.09Z" fill="#546B82"/>
</svg>
