<svg width="41" height="40" viewBox="0 0 41 40" fill="none" xmlns="http://www.w3.org/2000/svg">
<path fill-rule="evenodd" clip-rule="evenodd" d="M7.09229 2.08331H7.24235H7.24239C7.96404 2.08331 8.62403 2.08331 9.16235 2.15498C9.75569 2.23498 10.3807 2.42165 10.8957 2.93665C11.4107 3.45165 11.599 4.07831 11.679 4.66997C11.7506 5.20831 11.7507 5.86998 11.7507 6.58998V6.73998C11.7507 7.46165 11.7506 8.12331 11.679 8.65997C11.599 9.25164 11.4107 9.87831 10.8957 10.3933C10.3807 10.9083 9.75569 11.095 9.16235 11.175C8.62403 11.2466 7.96405 11.2466 7.24241 11.2466H7.24235H7.09229H7.09223C6.37058 11.2466 5.7106 11.2466 5.17228 11.175C4.57895 11.095 3.95396 10.9083 3.43896 10.3933C2.92396 9.87831 2.73568 9.25164 2.65568 8.65997C2.58401 8.12164 2.58398 7.45998 2.58398 6.73998V6.58998C2.58398 5.86831 2.58401 5.20664 2.65568 4.66997C2.73568 4.07831 2.92396 3.45165 3.43896 2.93665C3.95396 2.42165 4.57895 2.23498 5.17228 2.15498C5.71061 2.08331 6.3706 2.08331 7.09225 2.08331H7.09229ZM20.4256 2.08331H20.5757H20.5757C21.2974 2.08331 21.9574 2.08331 22.4957 2.15498C23.089 2.23498 23.714 2.42165 24.229 2.93665C24.744 3.45165 24.9323 4.07831 25.0123 4.66997C25.084 5.20831 25.084 5.86998 25.084 6.58998V6.73998C25.084 7.46165 25.084 8.12331 25.0123 8.65997C24.9323 9.25164 24.744 9.87831 24.229 10.3933C23.714 10.9083 23.089 11.095 22.4957 11.175C21.9574 11.2466 21.2974 11.2466 20.5757 11.2466H20.5757H20.4256H20.4256C19.7039 11.2466 19.0439 11.2466 18.5056 11.175C17.9123 11.095 17.2873 10.9083 16.7723 10.3933C16.2573 9.87831 16.069 9.25164 15.989 8.65997C15.9173 8.12164 15.9173 7.45998 15.9173 6.73998V6.58998C15.9173 5.86831 15.9173 5.20664 15.989 4.66997C16.069 4.07831 16.2573 3.45165 16.7723 2.93665C17.2873 2.42165 17.9123 2.23498 18.5056 2.15498C19.0439 2.08331 19.7039 2.08331 20.4256 2.08331H20.4256ZM33.909 2.08331H33.759H33.7589C33.0373 2.08331 32.3773 2.08331 31.8389 2.15498C31.2456 2.23498 30.6206 2.42165 30.1056 2.93665C29.5906 3.45165 29.4023 4.07831 29.3223 4.66997C29.2507 5.20664 29.2507 5.86831 29.2507 6.58998V6.73998C29.2507 7.45998 29.2507 8.12164 29.3223 8.65997C29.4023 9.25164 29.5906 9.87831 30.1056 10.3933C30.6206 10.9083 31.2456 11.095 31.8389 11.175C32.3773 11.2466 33.0373 11.2466 33.7589 11.2466H33.759H33.909H33.9091C34.6307 11.2466 35.2907 11.2466 35.829 11.175C36.4224 11.095 37.0473 10.9083 37.5623 10.3933C38.0773 9.87831 38.2656 9.25164 38.3456 8.65997C38.4173 8.12331 38.4173 7.46165 38.4173 6.73998V6.58998C38.4173 5.86998 38.4173 5.20831 38.3456 4.66997C38.2656 4.07831 38.0773 3.45165 37.5623 2.93665C37.0473 2.42165 36.4224 2.23498 35.829 2.15498C35.2907 2.08331 34.6307 2.08331 33.9091 2.08331H33.909ZM7.09229 15.4166H7.24235H7.24238C7.96403 15.4166 8.62403 15.4166 9.16235 15.4883C9.75569 15.5683 10.3807 15.755 10.8957 16.27C11.4107 16.785 11.599 17.4116 11.679 18.0033C11.7506 18.5416 11.7507 19.2033 11.7507 19.9233V20.0733C11.7507 20.795 11.7506 21.4566 11.679 21.9933C11.599 22.585 11.4107 23.2116 10.8957 23.7266C10.3807 24.2416 9.75569 24.4283 9.16235 24.5083C8.62411 24.58 7.96423 24.58 7.2427 24.58H7.24235H7.09229H7.09194C6.37041 24.58 5.71053 24.58 5.17228 24.5083C4.57895 24.4283 3.95396 24.2416 3.43896 23.7266C2.92396 23.2116 2.73568 22.585 2.65568 21.9933C2.58401 21.455 2.58398 20.7933 2.58398 20.0733V19.9233C2.58398 19.2016 2.58401 18.54 2.65568 18.0033C2.73568 17.4116 2.92396 16.785 3.43896 16.27C3.95396 15.755 4.57895 15.5683 5.17228 15.4883C5.71061 15.4166 6.3706 15.4166 7.09226 15.4166H7.09229ZM20.5757 15.4166H20.4256H20.4256C19.7039 15.4166 19.0439 15.4166 18.5056 15.4883C17.9123 15.5683 17.2873 15.755 16.7723 16.27C16.2573 16.785 16.069 17.4116 15.989 18.0033C15.9173 18.54 15.9173 19.2016 15.9173 19.9233V20.0733C15.9173 20.7933 15.9173 21.455 15.989 21.9933C16.069 22.585 16.2573 23.2116 16.7723 23.7266C17.2873 24.2416 17.9123 24.4283 18.5056 24.5083C19.0439 24.58 19.7037 24.58 20.4253 24.58H20.4256H20.5757H20.576C21.2976 24.58 21.9574 24.58 22.4957 24.5083C23.089 24.4283 23.714 24.2416 24.229 23.7266C24.744 23.2116 24.9323 22.585 25.0123 21.9933C25.084 21.4566 25.084 20.795 25.084 20.0733V19.9233C25.084 19.2033 25.084 18.5416 25.0123 18.0033C24.9323 17.4116 24.744 16.785 24.229 16.27C23.714 15.755 23.089 15.5683 22.4957 15.4883C21.9574 15.4166 21.2974 15.4166 20.5757 15.4166H20.5757ZM20.4256 28.75H20.5757C21.2973 28.75 21.9574 28.75 22.4957 28.8217C23.089 28.9017 23.714 29.0883 24.229 29.6033C24.744 30.1183 24.9323 30.745 25.0123 31.3366C25.084 31.875 25.084 32.5367 25.084 33.2567V33.4067C25.084 34.1283 25.084 34.79 25.0123 35.3267C24.9323 35.9183 24.744 36.545 24.229 37.06C23.714 37.575 23.089 37.7617 22.4957 37.8417C21.9574 37.9133 21.2976 37.9133 20.576 37.9133H20.5757H20.4256H20.4253C19.7037 37.9133 19.0439 37.9133 18.5056 37.8417C17.9123 37.7617 17.2873 37.575 16.7723 37.06C16.2573 36.545 16.069 35.9183 15.989 35.3267C15.9173 34.7883 15.9173 34.1267 15.9173 33.4067V33.2567C15.9173 32.535 15.9173 31.8733 15.989 31.3366C16.069 30.745 16.2573 30.1183 16.7723 29.6033C17.2873 29.0883 17.9123 28.9017 18.5056 28.8217C19.0439 28.75 19.704 28.75 20.4256 28.75ZM33.909 15.4166H33.759H33.7589C33.0373 15.4166 32.3773 15.4166 31.8389 15.4883C31.2456 15.5683 30.6206 15.755 30.1056 16.27C29.5906 16.785 29.4023 17.4116 29.3223 18.0033C29.2507 18.54 29.2507 19.2016 29.2507 19.9233V20.0733C29.2507 20.7933 29.2507 21.455 29.3223 21.9933C29.4023 22.585 29.5906 23.2116 30.1056 23.7266C30.6206 24.2416 31.2456 24.4283 31.8389 24.5083C32.3772 24.58 33.0371 24.58 33.7586 24.58H33.759H33.909H33.9094C34.6309 24.58 35.2908 24.58 35.829 24.5083C36.4224 24.4283 37.0473 24.2416 37.5623 23.7266C38.0773 23.2116 38.2656 22.585 38.3456 21.9933C38.4173 21.4566 38.4173 20.795 38.4173 20.0733V19.9233C38.4173 19.2033 38.4173 18.5416 38.3456 18.0033C38.2656 17.4116 38.0773 16.785 37.5623 16.27C37.0473 15.755 36.4224 15.5683 35.829 15.4883C35.2907 15.4166 34.6307 15.4166 33.9091 15.4166H33.909Z" fill="#002244"/>
</svg>
