<svg width="40" height="40" viewBox="0 0 40 40" fill="none" xmlns="http://www.w3.org/2000/svg">
<path fill-rule="evenodd" clip-rule="evenodd" d="M15.2373 5.68141C16.1157 5.6614 16.8115 4.93308 16.7915 4.05468C16.7715 3.17627 16.0432 2.48041 15.1648 2.50042C10.7589 2.60081 7.50942 2.98813 5.2231 5.26653C3.20761 7.27503 2.6785 10.0083 2.502 13.5573C2.45836 14.4349 3.13437 15.1817 4.01192 15.2253C4.88947 15.269 5.63624 14.5929 5.67988 13.7154C5.85191 10.2563 6.36545 8.6201 7.46906 7.52032C8.74657 6.24724 10.713 5.7845 15.2373 5.68141ZM24.8352 2.50042C23.9568 2.48041 23.2285 3.17627 23.2085 4.05468C23.1885 4.93308 23.8843 5.6614 24.7627 5.68141C29.287 5.7845 31.2534 6.24724 32.5309 7.52032C33.6345 8.6201 34.1481 10.2563 34.3201 13.7154C34.3638 14.5929 35.1105 15.269 35.9881 15.2253C36.8656 15.1817 37.5416 14.4349 37.498 13.5573C37.3215 10.0083 36.7924 7.27503 34.7769 5.26653C32.4906 2.98813 29.2411 2.60081 24.8352 2.50042ZM5.67988 26.2846C5.63624 25.4071 4.88947 24.731 4.01192 24.7747C3.13437 24.8183 2.45836 25.5651 2.502 26.4427C2.6785 29.9917 3.20761 32.725 5.2231 34.7335C7.50942 37.0119 10.7589 37.3992 15.1648 37.4996C16.0432 37.5196 16.7715 36.8237 16.7915 35.9453C16.8115 35.0669 16.1157 34.3386 15.2373 34.3186C10.713 34.2155 8.74657 33.7528 7.46906 32.4797C6.36545 31.3799 5.85191 29.7437 5.67988 26.2846ZM37.498 26.4427C37.5416 25.5651 36.8656 24.8183 35.9881 24.7747C35.1105 24.731 34.3638 25.4071 34.3201 26.2846C34.1481 29.7437 33.6345 31.3799 32.5309 32.4797C31.2534 33.7528 29.287 34.2155 24.7627 34.3186C23.8843 34.3386 23.1885 35.0669 23.2085 35.9453C23.2285 36.8237 23.9568 37.5196 24.8352 37.4996C29.2411 37.3992 32.4906 37.0119 34.7769 34.7335C36.7924 32.725 37.3215 29.9917 37.498 26.4427ZM19.9845 10.638C17.061 10.638 14.688 13.0051 14.688 15.9287C14.688 18.8523 17.061 21.2194 19.9845 21.2194C22.9081 21.2194 25.281 18.8523 25.281 15.9287C25.281 13.0051 22.9081 10.638 19.9845 10.638ZM11.7897 27.2949C11.324 27.7826 11.3419 28.5554 11.8296 29.0211C12.0661 29.2469 12.3697 29.359 12.6728 29.359L27.3239 29.359C27.6198 29.359 27.9166 29.2522 28.1513 29.0358C28.6472 28.5788 28.6787 27.8064 28.2217 27.3106C23.8794 22.5991 16.0434 22.8397 11.7897 27.2949Z" fill="#F79009"/>
</svg>
