<svg width="22" height="14" viewBox="0 0 22 14" fill="none" xmlns="http://www.w3.org/2000/svg">
<path d="M2.98204 2.36126C4.78645 1.25083 7.45709 0.75 11 0.75C14.5429 0.75 17.2136 1.25083 19.018 2.36126C20.8927 3.51494 21.7498 5.2741 21.75 7.49994C21.7501 9.39287 21.2063 10.8545 20.2179 11.8428C19.2321 12.8286 17.8975 13.25 16.5 13.25C14.9938 13.25 13.8239 12.4923 12.9391 11.8603C12.6336 11.6381 12.0154 11.1901 11.7548 11.0337C11.4038 10.8232 11.171 10.75 11 10.75C10.829 10.75 10.5962 10.8232 10.2453 11.0337C9.98465 11.1901 9.36642 11.6381 9.06093 11.8603C8.17613 12.4923 7.00617 13.25 5.5 13.25C4.10254 13.25 2.76789 12.8286 1.78208 11.8428C0.793686 10.8545 0.249861 9.39287 0.25 7.49994C0.250164 5.2741 1.10735 3.51494 2.98204 2.36126Z" fill="#FFCC33"/>
</svg>
