<svg width="23" height="22" viewBox="0 0 23 22" fill="none" xmlns="http://www.w3.org/2000/svg">
<path fill-rule="evenodd" clip-rule="evenodd" d="M10.75 1C10.75 0.447715 11.1977 0 11.75 0C17.8251 0 22.75 4.92487 22.75 11C22.75 17.0751 17.8251 22 11.75 22C5.67487 22 0.75 17.0751 0.75 11C0.75 9.01227 1.27813 7.14487 2.2024 5.53367C2.47721 5.05462 3.08835 4.88905 3.5674 5.16386C4.04646 5.43867 4.21203 6.04981 3.93722 6.52886C3.18208 7.84523 2.75 9.37064 2.75 11C2.75 15.9706 6.77944 20 11.75 20C16.7206 20 20.75 15.9706 20.75 11C20.75 6.02944 16.7206 2 11.75 2C11.1977 2 10.75 1.55228 10.75 1ZM10.75 4.25C10.75 3.69772 11.1977 3.25 11.75 3.25C16.0302 3.25 19.5 6.71979 19.5 11C19.5 15.2802 16.0302 18.75 11.75 18.75C7.46979 18.75 4 15.2802 4 11C4 10.4477 4.44772 10 5 10C5.55228 10 6 10.4477 6 11C6 14.1756 8.57436 16.75 11.75 16.75C14.9256 16.75 17.5 14.1756 17.5 11C17.5 7.82436 14.9256 5.25 11.75 5.25C11.1977 5.25 10.75 4.80228 10.75 4.25ZM11.75 7C11.1977 7 10.75 7.44772 10.75 8C10.75 8.55229 11.1977 9 11.75 9C12.8546 9 13.75 9.89543 13.75 11C13.75 12.1046 12.8546 13 11.75 13C11.1977 13 10.75 13.4477 10.75 14C10.75 14.5523 11.1977 15 11.75 15C13.9591 15 15.75 13.2091 15.75 11C15.75 8.79086 13.9591 7 11.75 7Z" fill="#FFCC33"/>
</svg>
